<?xml version="1.0" encoding="UTF-8" standalone="no"?>
<!DOCTYPE svg PUBLIC "-//W3C//DTD SVG 1.1//EN"
 "http://www.w3.org/Graphics/SVG/1.1/DTD/svg11.dtd">
<!-- Generated by graphviz version 2.42.4 (0)
 -->
<!-- Title: api Pages: 1 -->
<svg width="213pt" height="1556pt"
 viewBox="0.00 0.00 213.00 1556.00" xmlns="http://www.w3.org/2000/svg" xmlns:xlink="http://www.w3.org/1999/xlink">
<g id="graph0" class="graph" transform="scale(1 1) rotate(0) translate(4 1552)">
<title>api</title>
<polygon fill="white" stroke="transparent" points="-4,4 -4,-1552 209,-1552 209,4 -4,4"/>
<!-- amplihack CLI -->
<g id="node1" class="node">
<title>amplihack CLI</title>
<polygon fill="none" stroke="black" points="83,-738 0,-738 0,-702 83,-702 83,-738"/>
<text text-anchor="middle" x="41.5" y="-717.8" font-family="Times,serif" font-size="9.00">amplihack CLI</text>
</g>
<!-- append -->
<g id="node2" class="node">
<title>append</title>
<polygon fill="none" stroke="black" points="189,-1548 135,-1548 135,-1512 189,-1512 189,-1548"/>
<text text-anchor="middle" x="162" y="-1527.8" font-family="Times,serif" font-size="9.00">append</text>
</g>
<!-- amplihack CLI&#45;&gt;append -->
<g id="edge1" class="edge">
<title>amplihack CLI&#45;&gt;append</title>
<path fill="none" stroke="black" d="M42.18,-738.1C40.62,-842.6 37.02,-1368.82 119,-1503 121.08,-1506.4 123.76,-1509.45 126.77,-1512.16"/>
<polygon fill="black" stroke="black" points="124.66,-1514.96 134.74,-1518.23 128.9,-1509.39 124.66,-1514.96"/>
</g>
<!-- auto_mode -->
<g id="node3" class="node">
<title>auto_mode</title>
<polygon fill="none" stroke="black" points="195,-1494 129,-1494 129,-1458 195,-1458 195,-1494"/>
<text text-anchor="middle" x="162" y="-1473.8" font-family="Times,serif" font-size="9.00">auto_mode</text>
</g>
<!-- amplihack CLI&#45;&gt;auto_mode -->
<g id="edge2" class="edge">
<title>amplihack CLI&#45;&gt;auto_mode</title>
<path fill="none" stroke="black" d="M42.33,-738.15C41.67,-838.43 42.51,-1324.8 119,-1449 119.8,-1450.29 120.68,-1451.53 121.63,-1452.72"/>
<polygon fill="black" stroke="black" points="119.26,-1455.3 128.81,-1459.88 124.2,-1450.34 119.26,-1455.3"/>
</g>
<!-- builder -->
<g id="node4" class="node">
<title>builder</title>
<polygon fill="none" stroke="black" points="189,-1440 135,-1440 135,-1404 189,-1404 189,-1440"/>
<text text-anchor="middle" x="162" y="-1419.8" font-family="Times,serif" font-size="9.00">builder</text>
</g>
<!-- amplihack CLI&#45;&gt;builder -->
<g id="edge3" class="edge">
<title>amplihack CLI&#45;&gt;builder</title>
<path fill="none" stroke="black" d="M42.5,-738.05C42.78,-833.62 47.94,-1280.69 119,-1395 121.1,-1398.38 123.8,-1401.42 126.82,-1404.13"/>
<polygon fill="black" stroke="black" points="124.72,-1406.93 134.8,-1410.19 128.95,-1401.35 124.72,-1406.93"/>
</g>
<!-- completions -->
<g id="node5" class="node">
<title>completions</title>
<polygon fill="none" stroke="black" points="198,-1386 126,-1386 126,-1350 198,-1350 198,-1386"/>
<text text-anchor="middle" x="162" y="-1365.8" font-family="Times,serif" font-size="9.00">completions</text>
</g>
<!-- amplihack CLI&#45;&gt;completions -->
<g id="edge4" class="edge">
<title>amplihack CLI&#45;&gt;completions</title>
<path fill="none" stroke="black" d="M42.7,-738.08C43.99,-829.07 53.4,-1236.61 119,-1341 119.25,-1341.4 119.52,-1341.8 119.79,-1342.2"/>
<polygon fill="black" stroke="black" points="117.23,-1344.59 126.47,-1349.76 122.47,-1339.95 117.23,-1344.59"/>
</g>
<!-- cs_validate -->
<g id="node6" class="node">
<title>cs_validate</title>
<polygon fill="none" stroke="black" points="196,-1332 128,-1332 128,-1296 196,-1296 196,-1332"/>
<text text-anchor="middle" x="162" y="-1311.8" font-family="Times,serif" font-size="9.00">cs_validate</text>
</g>
<!-- amplihack CLI&#45;&gt;cs_validate -->
<g id="edge5" class="edge">
<title>amplihack CLI&#45;&gt;cs_validate</title>
<path fill="none" stroke="black" d="M42.94,-738.2C45.31,-824.54 58.87,-1192.52 119,-1287 119.51,-1287.8 120.05,-1288.58 120.62,-1289.34"/>
<polygon fill="black" stroke="black" points="118.28,-1291.95 127.7,-1296.79 123.35,-1287.13 118.28,-1291.95"/>
</g>
<!-- doctor -->
<g id="node7" class="node">
<title>doctor</title>
<polygon fill="none" stroke="black" points="189,-1278 135,-1278 135,-1242 189,-1242 189,-1278"/>
<text text-anchor="middle" x="162" y="-1257.8" font-family="Times,serif" font-size="9.00">doctor</text>
</g>
<!-- amplihack CLI&#45;&gt;doctor -->
<g id="edge6" class="edge">
<title>amplihack CLI&#45;&gt;doctor</title>
<path fill="none" stroke="black" d="M43.22,-738.07C46.74,-819.06 64.26,-1148.3 119,-1233 121.16,-1236.34 123.9,-1239.36 126.94,-1242.05"/>
<polygon fill="black" stroke="black" points="124.86,-1244.87 134.95,-1248.1 129.07,-1239.28 124.86,-1244.87"/>
</g>
<!-- fleet -->
<g id="node8" class="node">
<title>fleet</title>
<polygon fill="none" stroke="black" points="189,-1224 135,-1224 135,-1188 189,-1188 189,-1224"/>
<text text-anchor="middle" x="162" y="-1203.8" font-family="Times,serif" font-size="9.00">fleet</text>
</g>
<!-- amplihack CLI&#45;&gt;fleet -->
<g id="edge7" class="edge">
<title>amplihack CLI&#45;&gt;fleet</title>
<path fill="none" stroke="black" d="M43.58,-738.18C48.37,-813.93 69.68,-1104.11 119,-1179 121.08,-1182.15 123.66,-1185.02 126.52,-1187.59"/>
<polygon fill="black" stroke="black" points="124.52,-1190.47 134.58,-1193.76 128.77,-1184.91 124.52,-1190.47"/>
</g>
<!-- hive_haymaker -->
<g id="node9" class="node">
<title>hive_haymaker</title>
<polygon fill="none" stroke="black" points="205,-1170 119,-1170 119,-1134 205,-1134 205,-1170"/>
<text text-anchor="middle" x="162" y="-1149.8" font-family="Times,serif" font-size="9.00">hive_haymaker</text>
</g>
<!-- amplihack CLI&#45;&gt;hive_haymaker -->
<g id="edge8" class="edge">
<title>amplihack CLI&#45;&gt;hive_haymaker</title>
<path fill="none" stroke="black" d="M44.05,-738.38C50.24,-808.69 75.11,-1059.88 119,-1125 119.35,-1125.52 119.71,-1126.03 120.08,-1126.53"/>
<polygon fill="black" stroke="black" points="117.68,-1129.08 127.08,-1133.98 122.79,-1124.29 117.68,-1129.08"/>
</g>
<!-- hygiene -->
<g id="node10" class="node">
<title>hygiene</title>
<polygon fill="none" stroke="black" points="189,-1116 135,-1116 135,-1080 189,-1080 189,-1116"/>
<text text-anchor="middle" x="162" y="-1095.8" font-family="Times,serif" font-size="9.00">hygiene</text>
</g>
<!-- amplihack CLI&#45;&gt;hygiene -->
<g id="edge9" class="edge">
<title>amplihack CLI&#45;&gt;hygiene</title>
<path fill="none" stroke="black" d="M41.81,-738.31C40.63,-793.76 43.76,-962.66 119,-1071 121.15,-1074.1 123.79,-1076.93 126.68,-1079.49"/>
<polygon fill="black" stroke="black" points="124.7,-1082.38 134.79,-1085.63 128.93,-1076.8 124.7,-1082.38"/>
</g>
<!-- install -->
<g id="node11" class="node">
<title>install</title>
<polygon fill="none" stroke="black" points="189,-1062 135,-1062 135,-1026 189,-1026 189,-1062"/>
<text text-anchor="middle" x="162" y="-1041.8" font-family="Times,serif" font-size="9.00">install</text>
</g>
<!-- amplihack CLI&#45;&gt;install -->
<g id="edge10" class="edge">
<title>amplihack CLI&#45;&gt;install</title>
<path fill="none" stroke="black" d="M42.73,-738.3C44.22,-787.94 54.29,-927.45 119,-1017 121.21,-1020.06 123.89,-1022.86 126.8,-1025.4"/>
<polygon fill="black" stroke="black" points="124.84,-1028.31 134.94,-1031.52 129.05,-1022.71 124.84,-1028.31"/>
</g>
<!-- launch -->
<g id="node12" class="node">
<title>launch</title>
<polygon fill="none" stroke="black" points="189,-1008 135,-1008 135,-972 189,-972 189,-1008"/>
<text text-anchor="middle" x="162" y="-987.8" font-family="Times,serif" font-size="9.00">launch</text>
</g>
<!-- amplihack CLI&#45;&gt;launch -->
<g id="edge11" class="edge">
<title>amplihack CLI&#45;&gt;launch</title>
<path fill="none" stroke="black" d="M44,-738.08C48.41,-781.2 64.64,-891.82 119,-963 121.17,-965.84 123.73,-968.47 126.5,-970.88"/>
<polygon fill="black" stroke="black" points="124.62,-973.84 134.71,-977.08 128.84,-968.26 124.62,-973.84"/>
</g>
<!-- lock -->
<g id="node13" class="node">
<title>lock</title>
<polygon fill="none" stroke="black" points="189,-954 135,-954 135,-918 189,-918 189,-954"/>
<text text-anchor="middle" x="162" y="-933.8" font-family="Times,serif" font-size="9.00">lock</text>
</g>
<!-- amplihack CLI&#45;&gt;lock -->
<g id="edge12" class="edge">
<title>amplihack CLI&#45;&gt;lock</title>
<path fill="none" stroke="black" d="M45.96,-738.03C53.62,-774.01 74.95,-855.85 119,-909 121.22,-911.68 123.79,-914.19 126.53,-916.51"/>
<polygon fill="black" stroke="black" points="124.48,-919.35 134.58,-922.54 128.67,-913.75 124.48,-919.35"/>
</g>
<!-- mcp_eval -->
<g id="node14" class="node">
<title>mcp_eval</title>
<polygon fill="none" stroke="black" points="191.5,-900 132.5,-900 132.5,-864 191.5,-864 191.5,-900"/>
<text text-anchor="middle" x="162" y="-879.8" font-family="Times,serif" font-size="9.00">mcp_eval</text>
</g>
<!-- amplihack CLI&#45;&gt;mcp_eval -->
<g id="edge13" class="edge">
<title>amplihack CLI&#45;&gt;mcp_eval</title>
<path fill="none" stroke="black" d="M49.54,-738.39C60.86,-766.17 85.31,-819.38 119,-855 120.6,-856.69 122.32,-858.32 124.13,-859.89"/>
<polygon fill="black" stroke="black" points="122.38,-862.97 132.43,-866.33 126.67,-857.43 122.38,-862.97"/>
</g>
<!-- memory -->
<g id="node15" class="node">
<title>memory</title>
<polygon fill="none" stroke="black" points="189,-846 135,-846 135,-810 189,-810 189,-846"/>
<text text-anchor="middle" x="162" y="-825.8" font-family="Times,serif" font-size="9.00">memory</text>
</g>
<!-- amplihack CLI&#45;&gt;memory -->
<g id="edge14" class="edge">
<title>amplihack CLI&#45;&gt;memory</title>
<path fill="none" stroke="black" d="M57.49,-738.27C72.15,-755.54 95.63,-781.61 119,-801 121.39,-802.98 123.94,-804.94 126.54,-806.84"/>
<polygon fill="black" stroke="black" points="124.77,-809.87 134.98,-812.67 128.75,-804.11 124.77,-809.87"/>
</g>
<!-- mode -->
<g id="node16" class="node">
<title>mode</title>
<polygon fill="none" stroke="black" points="189,-792 135,-792 135,-756 189,-756 189,-792"/>
<text text-anchor="middle" x="162" y="-771.8" font-family="Times,serif" font-size="9.00">mode</text>
</g>
<!-- amplihack CLI&#45;&gt;mode -->
<g id="edge15" class="edge">
<title>amplihack CLI&#45;&gt;mode</title>
<path fill="none" stroke="black" d="M82.29,-738.13C96.25,-744.49 111.83,-751.59 125.42,-757.79"/>
<polygon fill="black" stroke="black" points="124.36,-761.15 134.91,-762.11 127.26,-754.78 124.36,-761.15"/>
</g>
<!-- multitask -->
<g id="node17" class="node">
<title>multitask</title>
<polygon fill="none" stroke="black" points="191.5,-738 132.5,-738 132.5,-702 191.5,-702 191.5,-738"/>
<text text-anchor="middle" x="162" y="-717.8" font-family="Times,serif" font-size="9.00">multitask</text>
</g>
<!-- amplihack CLI&#45;&gt;multitask -->
<g id="edge16" class="edge">
<title>amplihack CLI&#45;&gt;multitask</title>
<path fill="none" stroke="black" d="M83.28,-720C95.94,-720 109.85,-720 122.35,-720"/>
<polygon fill="black" stroke="black" points="122.47,-723.5 132.47,-720 122.47,-716.5 122.47,-723.5"/>
</g>
<!-- new_agent -->
<g id="node18" class="node">
<title>new_agent</title>
<polygon fill="none" stroke="black" points="195,-684 129,-684 129,-648 195,-648 195,-684"/>
<text text-anchor="middle" x="162" y="-663.8" font-family="Times,serif" font-size="9.00">new_agent</text>
</g>
<!-- amplihack CLI&#45;&gt;new_agent -->
<g id="edge17" class="edge">
<title>amplihack CLI&#45;&gt;new_agent</title>
<path fill="none" stroke="black" d="M82.29,-701.87C94.28,-696.4 107.47,-690.4 119.56,-684.88"/>
<polygon fill="black" stroke="black" points="121.33,-687.92 128.98,-680.59 118.43,-681.55 121.33,-687.92"/>
</g>
<!-- node -->
<g id="node19" class="node">
<title>node</title>
<polygon fill="none" stroke="black" points="189,-630 135,-630 135,-594 189,-594 189,-630"/>
<text text-anchor="middle" x="162" y="-609.8" font-family="Times,serif" font-size="9.00">node</text>
</g>
<!-- amplihack CLI&#45;&gt;node -->
<g id="edge18" class="edge">
<title>amplihack CLI&#45;&gt;node</title>
<path fill="none" stroke="black" d="M57.49,-701.73C72.15,-684.46 95.63,-658.39 119,-639 121.39,-637.02 123.94,-635.06 126.54,-633.16"/>
<polygon fill="black" stroke="black" points="128.75,-635.89 134.98,-627.33 124.77,-630.13 128.75,-635.89"/>
</g>
<!-- orch -->
<g id="node20" class="node">
<title>orch</title>
<polygon fill="none" stroke="black" points="189,-576 135,-576 135,-540 189,-540 189,-576"/>
<text text-anchor="middle" x="162" y="-555.8" font-family="Times,serif" font-size="9.00">orch</text>
</g>
<!-- amplihack CLI&#45;&gt;orch -->
<g id="edge19" class="edge">
<title>amplihack CLI&#45;&gt;orch</title>
<path fill="none" stroke="black" d="M47.47,-701.68C57.67,-671.92 83.09,-613.97 119,-576 121.26,-573.61 123.78,-571.33 126.43,-569.21"/>
<polygon fill="black" stroke="black" points="128.48,-572.05 134.62,-563.41 124.44,-566.33 128.48,-572.05"/>
</g>
<!-- amplihack CLI&#45;&gt;orch -->
<g id="edge20" class="edge">
<title>amplihack CLI&#45;&gt;orch</title>
<path fill="none" stroke="black" d="M52.16,-701.69C64.4,-675.32 87.72,-627.08 119,-594 123.12,-589.64 128.08,-585.67 133.13,-582.01"/>
<polygon fill="black" stroke="black" points="135.36,-584.72 141.57,-576.14 131.36,-578.98 135.36,-584.72"/>
</g>
<!-- plugin -->
<g id="node21" class="node">
<title>plugin</title>
<polygon fill="none" stroke="black" points="189,-522 135,-522 135,-486 189,-486 189,-522"/>
<text text-anchor="middle" x="162" y="-501.8" font-family="Times,serif" font-size="9.00">plugin</text>
</g>
<!-- amplihack CLI&#45;&gt;plugin -->
<g id="edge21" class="edge">
<title>amplihack CLI&#45;&gt;plugin</title>
<path fill="none" stroke="black" d="M45.96,-701.97C53.62,-665.99 74.95,-584.15 119,-531 121.22,-528.32 123.79,-525.81 126.53,-523.49"/>
<polygon fill="black" stroke="black" points="128.67,-526.25 134.58,-517.46 124.48,-520.65 128.67,-526.25"/>
</g>
<!-- pr -->
<g id="node22" class="node">
<title>pr</title>
<polygon fill="none" stroke="black" points="189,-468 135,-468 135,-432 189,-432 189,-468"/>
<text text-anchor="middle" x="162" y="-447.8" font-family="Times,serif" font-size="9.00">pr</text>
</g>
<!-- amplihack CLI&#45;&gt;pr -->
<g id="edge22" class="edge">
<title>amplihack CLI&#45;&gt;pr</title>
<path fill="none" stroke="black" d="M44,-701.92C48.41,-658.8 64.64,-548.18 119,-477 121.17,-474.16 123.73,-471.53 126.5,-469.12"/>
<polygon fill="black" stroke="black" points="128.84,-471.74 134.71,-462.92 124.62,-466.16 128.84,-471.74"/>
</g>
<!-- query_code -->
<g id="node23" class="node">
<title>query_code</title>
<polygon fill="none" stroke="black" points="197,-414 127,-414 127,-378 197,-378 197,-414"/>
<text text-anchor="middle" x="162" y="-393.8" font-family="Times,serif" font-size="9.00">query_code</text>
</g>
<!-- amplihack CLI&#45;&gt;query_code -->
<g id="edge23" class="edge">
<title>amplihack CLI&#45;&gt;query_code</title>
<path fill="none" stroke="black" d="M42.73,-701.7C44.22,-652.06 54.29,-512.55 119,-423 119.36,-422.5 119.74,-422 120.13,-421.51"/>
<polygon fill="black" stroke="black" points="122.81,-423.77 127.3,-414.17 117.8,-418.88 122.81,-423.77"/>
</g>
<!-- recipe -->
<g id="node24" class="node">
<title>recipe</title>
<polygon fill="none" stroke="black" points="189,-360 135,-360 135,-324 189,-324 189,-360"/>
<text text-anchor="middle" x="162" y="-339.8" font-family="Times,serif" font-size="9.00">recipe</text>
</g>
<!-- amplihack CLI&#45;&gt;recipe -->
<g id="edge24" class="edge">
<title>amplihack CLI&#45;&gt;recipe</title>
<path fill="none" stroke="black" d="M41.81,-701.69C40.63,-646.24 43.76,-477.34 119,-369 121.15,-365.9 123.79,-363.07 126.68,-360.51"/>
<polygon fill="black" stroke="black" points="128.93,-363.2 134.79,-354.37 124.7,-357.62 128.93,-363.2"/>
</g>
<!-- reflect -->
<g id="node25" class="node">
<title>reflect</title>
<polygon fill="none" stroke="black" points="189,-306 135,-306 135,-270 189,-270 189,-306"/>
<text text-anchor="middle" x="162" y="-285.8" font-family="Times,serif" font-size="9.00">reflect</text>
</g>
<!-- amplihack CLI&#45;&gt;reflect -->
<g id="edge25" class="edge">
<title>amplihack CLI&#45;&gt;reflect</title>
<path fill="none" stroke="black" d="M44.05,-701.62C50.24,-631.31 75.11,-380.12 119,-315 121.11,-311.87 123.72,-309.02 126.59,-306.45"/>
<polygon fill="black" stroke="black" points="128.84,-309.14 134.67,-300.3 124.6,-303.57 128.84,-309.14"/>
</g>
<!-- remote -->
<g id="node26" class="node">
<title>remote</title>
<polygon fill="none" stroke="black" points="189,-252 135,-252 135,-216 189,-216 189,-252"/>
<text text-anchor="middle" x="162" y="-231.8" font-family="Times,serif" font-size="9.00">remote</text>
</g>
<!-- amplihack CLI&#45;&gt;remote -->
<g id="edge26" class="edge">
<title>amplihack CLI&#45;&gt;remote</title>
<path fill="none" stroke="black" d="M43.58,-701.82C48.37,-626.07 69.68,-335.89 119,-261 121.08,-257.85 123.66,-254.98 126.52,-252.41"/>
<polygon fill="black" stroke="black" points="128.77,-255.09 134.58,-246.24 124.52,-249.53 128.77,-255.09"/>
</g>
<!-- rustyclawd -->
<g id="node27" class="node">
<title>rustyclawd</title>
<polygon fill="none" stroke="black" points="196,-198 128,-198 128,-162 196,-162 196,-198"/>
<text text-anchor="middle" x="162" y="-177.8" font-family="Times,serif" font-size="9.00">rustyclawd</text>
</g>
<!-- amplihack CLI&#45;&gt;rustyclawd -->
<g id="edge27" class="edge">
<title>amplihack CLI&#45;&gt;rustyclawd</title>
<path fill="none" stroke="black" d="M43.22,-701.93C46.74,-620.94 64.26,-291.7 119,-207 119.51,-206.2 120.06,-205.43 120.64,-204.67"/>
<polygon fill="black" stroke="black" points="123.36,-206.88 127.75,-197.24 118.31,-202.04 123.36,-206.88"/>
</g>
<!-- session_tree -->
<g id="node28" class="node">
<title>session_tree</title>
<polygon fill="none" stroke="black" points="198.5,-144 125.5,-144 125.5,-108 198.5,-108 198.5,-144"/>
<text text-anchor="middle" x="162" y="-123.8" font-family="Times,serif" font-size="9.00">session_tree</text>
</g>
<!-- amplihack CLI&#45;&gt;session_tree -->
<g id="edge28" class="edge">
<title>amplihack CLI&#45;&gt;session_tree</title>
<path fill="none" stroke="black" d="M42.94,-701.8C45.31,-615.46 58.87,-247.48 119,-153 119.26,-152.6 119.52,-152.2 119.79,-151.81"/>
<polygon fill="black" stroke="black" points="122.48,-154.06 126.51,-144.26 117.25,-149.4 122.48,-154.06"/>
</g>
<!-- uvx_help -->
<g id="node29" class="node">
<title>uvx_help</title>
<polygon fill="none" stroke="black" points="191,-90 133,-90 133,-54 191,-54 191,-90"/>
<text text-anchor="middle" x="162" y="-69.8" font-family="Times,serif" font-size="9.00">uvx_help</text>
</g>
<!-- amplihack CLI&#45;&gt;uvx_help -->
<g id="edge29" class="edge">
<title>amplihack CLI&#45;&gt;uvx_help</title>
<path fill="none" stroke="black" d="M42.7,-701.92C43.99,-610.93 53.4,-203.39 119,-99 120.6,-96.45 122.54,-94.1 124.69,-91.94"/>
<polygon fill="black" stroke="black" points="127.22,-94.39 132.67,-85.3 122.75,-89 127.22,-94.39"/>
</g>
<!-- workflow -->
<g id="node30" class="node">
<title>workflow</title>
<polygon fill="none" stroke="black" points="191,-36 133,-36 133,0 191,0 191,-36"/>
<text text-anchor="middle" x="162" y="-15.8" font-family="Times,serif" font-size="9.00">workflow</text>
</g>
<!-- amplihack CLI&#45;&gt;workflow -->
<g id="edge30" class="edge">
<title>amplihack CLI&#45;&gt;workflow</title>
<path fill="none" stroke="black" d="M42.49,-701.93C42.7,-605.24 47.32,-151.31 119,-36 120.59,-33.45 122.52,-31.09 124.66,-28.94"/>
<polygon fill="black" stroke="black" points="127.06,-31.5 132.63,-22.49 122.66,-26.06 127.06,-31.5"/>
</g>
<!-- amplihack CLI&#45;&gt;workflow -->
<g id="edge31" class="edge">
<title>amplihack CLI&#45;&gt;workflow</title>
<path fill="none" stroke="black" d="M42.51,-701.83C42.89,-606.59 48.64,-167.18 119,-54 121.79,-49.51 125.63,-45.63 129.86,-42.2"/>
<polygon fill="black" stroke="black" points="132.24,-44.8 138.32,-36.12 128.16,-39.12 132.24,-44.8"/>
</g>
</g>
</svg>
