<?xml version="1.0" encoding="UTF-8" standalone="no"?>
<!DOCTYPE svg PUBLIC "-//W3C//DTD SVG 1.1//EN"
 "http://www.w3.org/Graphics/SVG/1.1/DTD/svg11.dtd">
<!-- Generated by graphviz version 2.42.4 (0)
 -->
<!-- Title: api_contracts Pages: 1 -->
<svg width="1899pt" height="284pt"
 viewBox="0.00 0.00 1899.00 284.00" xmlns="http://www.w3.org/2000/svg" xmlns:xlink="http://www.w3.org/1999/xlink">
<g id="graph0" class="graph" transform="scale(1 1) rotate(0) translate(4 280)">
<title>api_contracts</title>
<polygon fill="white" stroke="transparent" points="-4,4 -4,-280 1895,-280 1895,4 -4,4"/>
<g id="clust1" class="cluster">
<title>cluster_cli_cmds</title>
<polygon fill="none" stroke="black" stroke-dasharray="5,2" points="8,-193 8,-268 1426,-268 1426,-193 8,-193"/>
<text text-anchor="middle" x="717" y="-252.8" font-family="Times,serif" font-size="14.00">CLI Commands (amplihack&#45;cli)</text>
</g>
<g id="clust2" class="cluster">
<title>cluster_hooks</title>
<polygon fill="none" stroke="black" stroke-dasharray="5,2" points="180,-8 180,-165 578,-165 578,-8 180,-8"/>
<text text-anchor="middle" x="379" y="-149.8" font-family="Times,serif" font-size="14.00">Hook Protocol (JSON over stdio)</text>
</g>
<g id="clust3" class="cluster">
<title>cluster_recipe_steps</title>
<polygon fill="none" stroke="black" stroke-dasharray="5,2" points="621,-90 621,-165 998,-165 998,-90 621,-90"/>
<text text-anchor="middle" x="809.5" y="-149.8" font-family="Times,serif" font-size="14.00">Recipe Step Types</text>
</g>
<g id="clust4" class="cluster">
<title>cluster_memory_api</title>
<polygon fill="none" stroke="black" stroke-dasharray="5,2" points="1006,-90 1006,-165 1490,-165 1490,-90 1006,-90"/>
<text text-anchor="middle" x="1248" y="-149.8" font-family="Times,serif" font-size="14.00">Memory API</text>
</g>
<g id="clust5" class="cluster">
<title>cluster_fleet_api</title>
<polygon fill="none" stroke="black" stroke-dasharray="5,2" points="1498,-90 1498,-165 1883,-165 1883,-90 1498,-90"/>
<text text-anchor="middle" x="1690.5" y="-149.8" font-family="Times,serif" font-size="14.00">Fleet API</text>
</g>
<!-- cmd_install -->
<g id="node1" class="node">
<title>cmd_install</title>
<polygon fill="#87ceeb" stroke="black" points="477.5,-237 376.5,-237 376.5,-201 477.5,-201 477.5,-237"/>
<text text-anchor="middle" x="427" y="-216.5" font-family="Helvetica,sans-Serif" font-size="10.00">amplihack install</text>
</g>
<!-- hook_session_start -->
<g id="node12" class="node">
<title>hook_session_start</title>
<polygon fill="#98fb98" stroke="black" points="570,-134 488,-134 488,-98 570,-98 570,-134"/>
<text text-anchor="middle" x="529" y="-119" font-family="Helvetica,sans-Serif" font-size="10.00">session_start</text>
<text text-anchor="middle" x="529" y="-108" font-family="Helvetica,sans-Serif" font-size="10.00">&#45;&gt; HookInput</text>
</g>
<!-- cmd_install&#45;&gt;hook_session_start -->
<g id="edge1" class="edge">
<title>cmd_install&#45;&gt;hook_session_start</title>
<path fill="none" stroke="black" d="M444.3,-200.87C460.71,-184.62 485.55,-160.02 504.09,-141.66"/>
<polygon fill="black" stroke="black" points="506.97,-143.74 511.61,-134.22 502.04,-138.77 506.97,-143.74"/>
<text text-anchor="middle" x="504" y="-175.8" font-family="Helvetica,sans-Serif" font-size="9.00">stages bundle</text>
</g>
<!-- cmd_launch -->
<g id="node2" class="node">
<title>cmd_launch</title>
<polygon fill="#87ceeb" stroke="black" points="866.5,-237 763.5,-237 763.5,-201 866.5,-201 866.5,-237"/>
<text text-anchor="middle" x="815" y="-216.5" font-family="Helvetica,sans-Serif" font-size="10.00">amplihack launch</text>
</g>
<!-- cmd_launch&#45;&gt;hook_session_start -->
<g id="edge2" class="edge">
<title>cmd_launch&#45;&gt;hook_session_start</title>
<path fill="none" stroke="black" d="M776.71,-200.91C769.27,-197.99 761.47,-195.2 754,-193 730.58,-186.11 723.93,-187.81 700,-183 662.99,-175.56 652.37,-178.17 617,-165 598.87,-158.25 579.89,-148.31 564.22,-139.22"/>
<polygon fill="black" stroke="black" points="565.79,-136.09 555.4,-134 562.22,-142.11 565.79,-136.09"/>
<text text-anchor="middle" x="729.5" y="-175.8" font-family="Helvetica,sans-Serif" font-size="9.00">starts claude</text>
</g>
<!-- cmd_recipe -->
<g id="node3" class="node">
<title>cmd_recipe</title>
<polygon fill="#87ceeb" stroke="black" points="1003.5,-237 884.5,-237 884.5,-201 1003.5,-201 1003.5,-237"/>
<text text-anchor="middle" x="944" y="-216.5" font-family="Helvetica,sans-Serif" font-size="10.00">amplihack recipe run</text>
</g>
<!-- step_skill -->
<g id="node17" class="node">
<title>step_skill</title>
<polygon fill="#ffd700" stroke="black" points="732.5,-134 629.5,-134 629.5,-98 732.5,-98 732.5,-134"/>
<text text-anchor="middle" x="681" y="-119" font-family="Helvetica,sans-Serif" font-size="10.00">type: skill</text>
<text text-anchor="middle" x="681" y="-108" font-family="Helvetica,sans-Serif" font-size="10.00">skill name + task</text>
</g>
<!-- cmd_recipe&#45;&gt;step_skill -->
<g id="edge3" class="edge">
<title>cmd_recipe&#45;&gt;step_skill</title>
<path fill="none" stroke="black" d="M899.76,-200.93C891.59,-198.07 883.09,-195.3 875,-193 816.47,-176.37 796.04,-190.94 741,-165 728.24,-158.99 715.79,-149.75 705.56,-140.98"/>
<polygon fill="black" stroke="black" points="707.67,-138.17 697.87,-134.12 703,-143.39 707.67,-138.17"/>
<text text-anchor="middle" x="840" y="-175.8" font-family="Helvetica,sans-Serif" font-size="9.00">parses YAML</text>
</g>
<!-- step_agent -->
<g id="node18" class="node">
<title>step_agent</title>
<polygon fill="#ffd700" stroke="black" points="879.5,-134 750.5,-134 750.5,-98 879.5,-98 879.5,-134"/>
<text text-anchor="middle" x="815" y="-119" font-family="Helvetica,sans-Serif" font-size="10.00">type: agent</text>
<text text-anchor="middle" x="815" y="-108" font-family="Helvetica,sans-Serif" font-size="10.00">agent ref + description</text>
</g>
<!-- cmd_recipe&#45;&gt;step_agent -->
<g id="edge4" class="edge">
<title>cmd_recipe&#45;&gt;step_agent</title>
<path fill="none" stroke="black" d="M922.12,-200.87C900.9,-184.25 868.54,-158.92 844.94,-140.44"/>
<polygon fill="black" stroke="black" points="847.02,-137.63 836.99,-134.22 842.71,-143.14 847.02,-137.63"/>
</g>
<!-- step_bash -->
<g id="node19" class="node">
<title>step_bash</title>
<polygon fill="#ffd700" stroke="black" points="990,-134 898,-134 898,-98 990,-98 990,-134"/>
<text text-anchor="middle" x="944" y="-119" font-family="Helvetica,sans-Serif" font-size="10.00">type: bash</text>
<text text-anchor="middle" x="944" y="-108" font-family="Helvetica,sans-Serif" font-size="10.00">shell command</text>
</g>
<!-- cmd_recipe&#45;&gt;step_bash -->
<g id="edge5" class="edge">
<title>cmd_recipe&#45;&gt;step_bash</title>
<path fill="none" stroke="black" d="M944,-200.87C944,-185.41 944,-162.42 944,-144.41"/>
<polygon fill="black" stroke="black" points="947.5,-144.22 944,-134.22 940.5,-144.22 947.5,-144.22"/>
</g>
<!-- cmd_memory -->
<g id="node4" class="node">
<title>cmd_memory</title>
<polygon fill="#87ceeb" stroke="black" points="1164,-237 1022,-237 1022,-201 1164,-201 1164,-237"/>
<text text-anchor="middle" x="1093" y="-216.5" font-family="Helvetica,sans-Serif" font-size="10.00">amplihack memory index</text>
</g>
<!-- mem_index -->
<g id="node22" class="node">
<title>mem_index</title>
<polygon fill="#dda0dd" stroke="black" points="1104,-134 1014,-134 1014,-98 1104,-98 1104,-134"/>
<text text-anchor="middle" x="1059" y="-113.5" font-family="Helvetica,sans-Serif" font-size="10.00">index_project()</text>
</g>
<!-- cmd_memory&#45;&gt;mem_index -->
<g id="edge6" class="edge">
<title>cmd_memory&#45;&gt;mem_index</title>
<path fill="none" stroke="black" d="M1087.23,-200.87C1081.98,-185.27 1074.14,-161.98 1068.06,-143.9"/>
<polygon fill="black" stroke="black" points="1071.3,-142.58 1064.8,-134.22 1064.67,-144.81 1071.3,-142.58"/>
<text text-anchor="middle" x="1098.5" y="-175.8" font-family="Helvetica,sans-Serif" font-size="9.00">indexes</text>
</g>
<!-- cmd_fleet -->
<g id="node5" class="node">
<title>cmd_fleet</title>
<polygon fill="#87ceeb" stroke="black" points="1418,-237 1326,-237 1326,-201 1418,-201 1418,-237"/>
<text text-anchor="middle" x="1372" y="-216.5" font-family="Helvetica,sans-Serif" font-size="10.00">amplihack fleet</text>
</g>
<!-- fleet_scout -->
<g id="node24" class="node">
<title>fleet_scout</title>
<polygon fill="#ffa07a" stroke="black" points="1574,-134 1506,-134 1506,-98 1574,-98 1574,-134"/>
<text text-anchor="middle" x="1540" y="-113.5" font-family="Helvetica,sans-Serif" font-size="10.00">fleet scout</text>
</g>
<!-- cmd_fleet&#45;&gt;fleet_scout -->
<g id="edge8" class="edge">
<title>cmd_fleet&#45;&gt;fleet_scout</title>
<path fill="none" stroke="black" d="M1418.28,-202.87C1442.09,-193.89 1470.88,-181.1 1494,-165 1503.33,-158.5 1512.29,-149.9 1519.79,-141.77"/>
<polygon fill="black" stroke="black" points="1522.48,-144.01 1526.49,-134.21 1517.24,-139.37 1522.48,-144.01"/>
</g>
<!-- fleet_advance -->
<g id="node25" class="node">
<title>fleet_advance</title>
<polygon fill="#ffa07a" stroke="black" points="1675.5,-134 1592.5,-134 1592.5,-98 1675.5,-98 1675.5,-134"/>
<text text-anchor="middle" x="1634" y="-113.5" font-family="Helvetica,sans-Serif" font-size="10.00">fleet advance</text>
</g>
<!-- cmd_fleet&#45;&gt;fleet_advance -->
<g id="edge9" class="edge">
<title>cmd_fleet&#45;&gt;fleet_advance</title>
<path fill="none" stroke="black" d="M1418.07,-213.24C1462.54,-207.12 1530.65,-193.64 1583,-165 1593.89,-159.04 1604.21,-150.2 1612.67,-141.73"/>
<polygon fill="black" stroke="black" points="1615.24,-144.11 1619.61,-134.45 1610.17,-139.28 1615.24,-144.11"/>
</g>
<!-- fleet_status -->
<g id="node26" class="node">
<title>fleet_status</title>
<polygon fill="#ffa07a" stroke="black" points="1764.5,-134 1693.5,-134 1693.5,-98 1764.5,-98 1764.5,-134"/>
<text text-anchor="middle" x="1729" y="-113.5" font-family="Helvetica,sans-Serif" font-size="10.00">fleet status</text>
</g>
<!-- cmd_fleet&#45;&gt;fleet_status -->
<g id="edge10" class="edge">
<title>cmd_fleet&#45;&gt;fleet_status</title>
<path fill="none" stroke="black" d="M1418.09,-213.89C1493.59,-206.56 1639.73,-189.63 1685,-165 1695.08,-159.51 1704.09,-150.83 1711.29,-142.34"/>
<polygon fill="black" stroke="black" points="1714.13,-144.39 1717.61,-134.38 1708.65,-140.04 1714.13,-144.39"/>
</g>
<!-- fleet_dashboard -->
<g id="node27" class="node">
<title>fleet_dashboard</title>
<polygon fill="#ffa07a" stroke="black" points="1875,-134 1783,-134 1783,-98 1875,-98 1875,-134"/>
<text text-anchor="middle" x="1829" y="-113.5" font-family="Helvetica,sans-Serif" font-size="10.00">fleet dashboard</text>
</g>
<!-- cmd_fleet&#45;&gt;fleet_dashboard -->
<g id="edge11" class="edge">
<title>cmd_fleet&#45;&gt;fleet_dashboard</title>
<path fill="none" stroke="black" d="M1418.31,-215.41C1510.11,-209.72 1711.7,-194.21 1774,-165 1786.01,-159.37 1797.4,-150.31 1806.66,-141.58"/>
<polygon fill="black" stroke="black" points="1809.27,-143.93 1813.91,-134.4 1804.34,-138.95 1809.27,-143.93"/>
</g>
<!-- cmd_doctor -->
<g id="node6" class="node">
<title>cmd_doctor</title>
<polygon fill="#87ceeb" stroke="black" points="745.5,-237 644.5,-237 644.5,-201 745.5,-201 745.5,-237"/>
<text text-anchor="middle" x="695" y="-216.5" font-family="Helvetica,sans-Serif" font-size="10.00">amplihack doctor</text>
</g>
<!-- cmd_completions -->
<g id="node7" class="node">
<title>cmd_completions</title>
<polygon fill="#87ceeb" stroke="black" points="626.5,-237 495.5,-237 495.5,-201 626.5,-201 626.5,-237"/>
<text text-anchor="middle" x="561" y="-216.5" font-family="Helvetica,sans-Serif" font-size="10.00">amplihack completions</text>
</g>
<!-- cmd_query_code -->
<g id="node8" class="node">
<title>cmd_query_code</title>
<polygon fill="#87ceeb" stroke="black" points="1307.5,-237 1182.5,-237 1182.5,-201 1307.5,-201 1307.5,-237"/>
<text text-anchor="middle" x="1245" y="-216.5" font-family="Helvetica,sans-Serif" font-size="10.00">amplihack query&#45;code</text>
</g>
<!-- mem_query -->
<g id="node23" class="node">
<title>mem_query</title>
<polygon fill="#dda0dd" stroke="black" points="1207.5,-134 1122.5,-134 1122.5,-98 1207.5,-98 1207.5,-134"/>
<text text-anchor="middle" x="1165" y="-113.5" font-family="Helvetica,sans-Serif" font-size="10.00">query_graph()</text>
</g>
<!-- cmd_query_code&#45;&gt;mem_query -->
<g id="edge7" class="edge">
<title>cmd_query_code&#45;&gt;mem_query</title>
<path fill="none" stroke="black" d="M1231.43,-200.87C1218.67,-184.76 1199.42,-160.46 1184.92,-142.15"/>
<polygon fill="black" stroke="black" points="1187.59,-139.88 1178.64,-134.22 1182.1,-144.23 1187.59,-139.88"/>
<text text-anchor="middle" x="1233" y="-175.8" font-family="Helvetica,sans-Serif" font-size="9.00">queries</text>
</g>
<!-- cmd_orch -->
<g id="node9" class="node">
<title>cmd_orch</title>
<polygon fill="#87ceeb" stroke="black" points="358,-237 266,-237 266,-201 358,-201 358,-237"/>
<text text-anchor="middle" x="312" y="-216.5" font-family="Helvetica,sans-Serif" font-size="10.00">amplihack orch</text>
</g>
<!-- cmd_new_agent -->
<g id="node10" class="node">
<title>cmd_new_agent</title>
<polygon fill="#87ceeb" stroke="black" points="248,-237 126,-237 126,-201 248,-201 248,-237"/>
<text text-anchor="middle" x="187" y="-216.5" font-family="Helvetica,sans-Serif" font-size="10.00">amplihack new&#45;agent</text>
</g>
<!-- cmd_hive -->
<g id="node11" class="node">
<title>cmd_hive</title>
<polygon fill="#87ceeb" stroke="black" points="108,-237 16,-237 16,-201 108,-201 108,-237"/>
<text text-anchor="middle" x="62" y="-216.5" font-family="Helvetica,sans-Serif" font-size="10.00">amplihack hive</text>
</g>
<!-- hook_pre_tool -->
<g id="node13" class="node">
<title>hook_pre_tool</title>
<polygon fill="#98fb98" stroke="black" points="470,-134 388,-134 388,-98 470,-98 470,-134"/>
<text text-anchor="middle" x="429" y="-119" font-family="Helvetica,sans-Serif" font-size="10.00">pre_tool_use</text>
<text text-anchor="middle" x="429" y="-108" font-family="Helvetica,sans-Serif" font-size="10.00">&#45;&gt; HookInput</text>
</g>
<!-- hook_post_tool -->
<g id="node14" class="node">
<title>hook_post_tool</title>
<polygon fill="#98fb98" stroke="black" points="471,-52 387,-52 387,-16 471,-16 471,-52"/>
<text text-anchor="middle" x="429" y="-37" font-family="Helvetica,sans-Serif" font-size="10.00">post_tool_use</text>
<text text-anchor="middle" x="429" y="-26" font-family="Helvetica,sans-Serif" font-size="10.00">&#45;&gt; HookInput</text>
</g>
<!-- hook_pre_tool&#45;&gt;hook_post_tool -->
<g id="edge12" class="edge">
<title>hook_pre_tool&#45;&gt;hook_post_tool</title>
<path fill="none" stroke="black" d="M429,-97.64C429,-87.3 429,-73.94 429,-62.22"/>
<polygon fill="black" stroke="black" points="432.5,-62.05 429,-52.05 425.5,-62.05 432.5,-62.05"/>
<text text-anchor="middle" x="449" y="-72.8" font-family="Helvetica,sans-Serif" font-size="9.00">validates</text>
</g>
<!-- hook_stop -->
<g id="node15" class="node">
<title>hook_stop</title>
<polygon fill="#98fb98" stroke="black" points="370,-134 288,-134 288,-98 370,-98 370,-134"/>
<text text-anchor="middle" x="329" y="-119" font-family="Helvetica,sans-Serif" font-size="10.00">stop</text>
<text text-anchor="middle" x="329" y="-108" font-family="Helvetica,sans-Serif" font-size="10.00">&#45;&gt; HookInput</text>
</g>
<!-- hook_user_prompt -->
<g id="node16" class="node">
<title>hook_user_prompt</title>
<polygon fill="#98fb98" stroke="black" points="270,-134 188,-134 188,-98 270,-98 270,-134"/>
<text text-anchor="middle" x="229" y="-119" font-family="Helvetica,sans-Serif" font-size="10.00">user_prompt</text>
<text text-anchor="middle" x="229" y="-108" font-family="Helvetica,sans-Serif" font-size="10.00">&#45;&gt; HookInput</text>
</g>
<!-- mem_store -->
<g id="node20" class="node">
<title>mem_store</title>
<polygon fill="#dda0dd" stroke="black" points="1481.5,-134 1380.5,-134 1380.5,-98 1481.5,-98 1481.5,-134"/>
<text text-anchor="middle" x="1431" y="-113.5" font-family="Helvetica,sans-Serif" font-size="10.00">store_discovery()</text>
</g>
<!-- mem_get -->
<g id="node21" class="node">
<title>mem_get</title>
<polygon fill="#dda0dd" stroke="black" points="1362.5,-134 1225.5,-134 1225.5,-98 1362.5,-98 1362.5,-134"/>
<text text-anchor="middle" x="1294" y="-113.5" font-family="Helvetica,sans-Serif" font-size="10.00">get_recent_discoveries()</text>
</g>
</g>
</svg>
