<?xml version="1.0" encoding="UTF-8" standalone="no"?>
<!DOCTYPE svg PUBLIC "-//W3C//DTD SVG 1.1//EN"
 "http://www.w3.org/Graphics/SVG/1.1/DTD/svg11.dtd">
<!-- Generated by graphviz version 2.42.4 (0)
 -->
<!-- Title: user_journeys_overview Pages: 1 -->
<svg width="641pt" height="324pt"
 viewBox="0.00 0.00 641.00 323.62" xmlns="http://www.w3.org/2000/svg" xmlns:xlink="http://www.w3.org/1999/xlink">
<g id="graph0" class="graph" transform="scale(1 1) rotate(0) translate(4 319.62)">
<title>user_journeys_overview</title>
<polygon fill="white" stroke="transparent" points="-4,4 -4,-319.62 637,-319.62 637,4 -4,4"/>
<!-- user -->
<g id="node1" class="node">
<title>user</title>
<ellipse fill="#74b9ff" stroke="black" cx="27" cy="-189.62" rx="27" ry="18"/>
<text text-anchor="middle" x="27" y="-187.12" font-family="Helvetica,sans-Serif" font-size="10.00">User</text>
</g>
<!-- cli -->
<g id="node2" class="node">
<title>cli</title>
<path fill="#dfe6e9" stroke="black" d="M228,-207.62C228,-207.62 198,-207.62 198,-207.62 192,-207.62 186,-201.62 186,-195.62 186,-195.62 186,-183.62 186,-183.62 186,-177.62 192,-171.62 198,-171.62 198,-171.62 228,-171.62 228,-171.62 234,-171.62 240,-177.62 240,-183.62 240,-183.62 240,-195.62 240,-195.62 240,-201.62 234,-207.62 228,-207.62"/>
<text text-anchor="middle" x="213" y="-192.62" font-family="Helvetica,sans-Serif" font-size="10.00">CLI</text>
<text text-anchor="middle" x="213" y="-181.62" font-family="Helvetica,sans-Serif" font-size="10.00">cli.py</text>
</g>
<!-- user&#45;&gt;cli -->
<g id="edge1" class="edge">
<title>user&#45;&gt;cli</title>
<path fill="none" stroke="black" d="M38.99,-205.86C46.86,-215.94 58.43,-228 72,-233.62 111.42,-249.95 128.58,-249.95 168,-233.62 177.38,-229.74 185.81,-222.77 192.71,-215.52"/>
<polygon fill="black" stroke="black" points="195.64,-217.49 199.58,-207.66 190.37,-212.88 195.64,-217.49"/>
<text text-anchor="middle" x="120" y="-248.43" font-family="Helvetica,sans-Serif" font-size="9.00">amplihack launch</text>
</g>
<!-- user&#45;&gt;cli -->
<g id="edge4" class="edge">
<title>user&#45;&gt;cli</title>
<path fill="none" stroke="black" d="M52.01,-196.75C58.44,-198.35 65.44,-199.82 72,-200.62 114.35,-205.84 125.65,-205.84 168,-200.62 170.53,-200.31 173.12,-199.9 175.73,-199.43"/>
<polygon fill="black" stroke="black" points="176.62,-202.82 185.67,-197.32 175.16,-195.97 176.62,-202.82"/>
<text text-anchor="middle" x="120" y="-206.43" font-family="Helvetica,sans-Serif" font-size="9.00">amplihack &#45;&#45;auto &#45;p &#39;...&#39;</text>
</g>
<!-- user&#45;&gt;cli -->
<g id="edge7" class="edge">
<title>user&#45;&gt;cli</title>
<path fill="none" stroke="black" d="M54.36,-189.62C86.29,-189.62 140.22,-189.62 175.97,-189.62"/>
<polygon fill="black" stroke="black" points="175.98,-193.13 185.98,-189.62 175.98,-186.13 175.98,-193.13"/>
<text text-anchor="middle" x="120" y="-192.43" font-family="Helvetica,sans-Serif" font-size="9.00">amplihack install</text>
</g>
<!-- user&#45;&gt;cli -->
<g id="edge10" class="edge">
<title>user&#45;&gt;cli</title>
<path fill="none" stroke="black" d="M50.97,-180.85C57.65,-178.7 65.03,-176.71 72,-175.62 114.16,-169.08 125.84,-169.08 168,-175.62 170.66,-176.04 173.37,-176.58 176.08,-177.22"/>
<polygon fill="black" stroke="black" points="175.23,-180.61 185.79,-179.84 177.05,-173.85 175.23,-180.61"/>
<text text-anchor="middle" x="120" y="-178.43" font-family="Helvetica,sans-Serif" font-size="9.00">amplihack recipe run</text>
</g>
<!-- user&#45;&gt;cli -->
<g id="edge13" class="edge">
<title>user&#45;&gt;cli</title>
<path fill="none" stroke="black" d="M42.86,-174.65C50.78,-167.73 61.13,-160.25 72,-156.62 112.48,-143.13 127.52,-143.13 168,-156.62 174.06,-158.65 179.96,-161.87 185.37,-165.52"/>
<polygon fill="black" stroke="black" points="183.31,-168.35 193.42,-171.51 187.49,-162.73 183.31,-168.35"/>
<text text-anchor="middle" x="120" y="-159.43" font-family="Helvetica,sans-Serif" font-size="9.00">amplihack memory tree</text>
</g>
<!-- launcher -->
<g id="node3" class="node">
<title>launcher</title>
<path fill="#55efc4" stroke="black" d="M415,-315.62C415,-315.62 352,-315.62 352,-315.62 346,-315.62 340,-309.62 340,-303.62 340,-303.62 340,-291.62 340,-291.62 340,-285.62 346,-279.62 352,-279.62 352,-279.62 415,-279.62 415,-279.62 421,-279.62 427,-285.62 427,-291.62 427,-291.62 427,-303.62 427,-303.62 427,-309.62 421,-315.62 415,-315.62"/>
<text text-anchor="middle" x="383.5" y="-300.62" font-family="Helvetica,sans-Serif" font-size="10.00">ClaudeLauncher</text>
<text text-anchor="middle" x="383.5" y="-289.62" font-family="Helvetica,sans-Serif" font-size="10.00">core.py</text>
</g>
<!-- cli&#45;&gt;launcher -->
<g id="edge2" class="edge">
<title>cli&#45;&gt;launcher</title>
<path fill="none" stroke="black" d="M229.11,-207.67C237.1,-216.5 247.43,-226.87 258,-234.62 280.24,-250.93 307.31,-265.18 330.53,-276"/>
<polygon fill="black" stroke="black" points="329.33,-279.3 339.88,-280.26 332.23,-272.93 329.33,-279.3"/>
<text text-anchor="middle" x="287.5" y="-271.43" font-family="Helvetica,sans-Serif" font-size="9.00">J1: Launch</text>
</g>
<!-- auto -->
<g id="node4" class="node">
<title>auto</title>
<path fill="#ffeaa7" stroke="black" d="M410.5,-261.62C410.5,-261.62 356.5,-261.62 356.5,-261.62 350.5,-261.62 344.5,-255.62 344.5,-249.62 344.5,-249.62 344.5,-237.62 344.5,-237.62 344.5,-231.62 350.5,-225.62 356.5,-225.62 356.5,-225.62 410.5,-225.62 410.5,-225.62 416.5,-225.62 422.5,-231.62 422.5,-237.62 422.5,-237.62 422.5,-249.62 422.5,-249.62 422.5,-255.62 416.5,-261.62 410.5,-261.62"/>
<text text-anchor="middle" x="383.5" y="-246.62" font-family="Helvetica,sans-Serif" font-size="10.00">AutoMode</text>
<text text-anchor="middle" x="383.5" y="-235.62" font-family="Helvetica,sans-Serif" font-size="10.00">auto_mode.py</text>
</g>
<!-- cli&#45;&gt;auto -->
<g id="edge5" class="edge">
<title>cli&#45;&gt;auto</title>
<path fill="none" stroke="black" d="M240.33,-198.06C265.55,-206.15 304.2,-218.53 334.84,-228.35"/>
<polygon fill="black" stroke="black" points="333.88,-231.72 344.48,-231.44 336.02,-225.05 333.88,-231.72"/>
<text text-anchor="middle" x="287.5" y="-223.43" font-family="Helvetica,sans-Serif" font-size="9.00">J2: Auto Mode</text>
</g>
<!-- install_mod -->
<g id="node5" class="node">
<title>install_mod</title>
<path fill="#a29bfe" stroke="black" d="M420,-153.62C420,-153.62 347,-153.62 347,-153.62 341,-153.62 335,-147.62 335,-141.62 335,-141.62 335,-129.62 335,-129.62 335,-123.62 341,-117.62 347,-117.62 347,-117.62 420,-117.62 420,-117.62 426,-117.62 432,-123.62 432,-129.62 432,-129.62 432,-141.62 432,-141.62 432,-147.62 426,-153.62 420,-153.62"/>
<text text-anchor="middle" x="383.5" y="-138.62" font-family="Helvetica,sans-Serif" font-size="10.00">install.py</text>
<text text-anchor="middle" x="383.5" y="-127.62" font-family="Helvetica,sans-Serif" font-size="10.00">copytree_manifest</text>
</g>
<!-- cli&#45;&gt;install_mod -->
<g id="edge8" class="edge">
<title>cli&#45;&gt;install_mod</title>
<path fill="none" stroke="black" d="M240.33,-181.19C262.95,-173.94 296.36,-163.23 325.12,-154.02"/>
<polygon fill="black" stroke="black" points="326.21,-157.34 334.67,-150.95 324.07,-150.67 326.21,-157.34"/>
<text text-anchor="middle" x="287.5" y="-177.43" font-family="Helvetica,sans-Serif" font-size="9.00">J3: Install</text>
</g>
<!-- recipe -->
<g id="node6" class="node">
<title>recipe</title>
<path fill="#dfe6e9" stroke="black" d="M411,-207.62C411,-207.62 356,-207.62 356,-207.62 350,-207.62 344,-201.62 344,-195.62 344,-195.62 344,-183.62 344,-183.62 344,-177.62 350,-171.62 356,-171.62 356,-171.62 411,-171.62 411,-171.62 417,-171.62 423,-177.62 423,-183.62 423,-183.62 423,-195.62 423,-195.62 423,-201.62 417,-207.62 411,-207.62"/>
<text text-anchor="middle" x="383.5" y="-192.62" font-family="Helvetica,sans-Serif" font-size="10.00">RecipeRunner</text>
<text text-anchor="middle" x="383.5" y="-181.62" font-family="Helvetica,sans-Serif" font-size="10.00">rust_runner.py</text>
</g>
<!-- cli&#45;&gt;recipe -->
<g id="edge11" class="edge">
<title>cli&#45;&gt;recipe</title>
<path fill="none" stroke="black" d="M240.33,-189.62C265.28,-189.62 303.36,-189.62 333.83,-189.62"/>
<polygon fill="black" stroke="black" points="333.84,-193.13 343.84,-189.62 333.84,-186.13 333.84,-193.13"/>
<text text-anchor="middle" x="287.5" y="-192.43" font-family="Helvetica,sans-Serif" font-size="9.00">J4: Recipe</text>
</g>
<!-- memory -->
<g id="node7" class="node">
<title>memory</title>
<path fill="#fab1a0" stroke="black" d="M416,-97.62C416,-97.62 351,-97.62 351,-97.62 345,-97.62 339,-91.62 339,-85.62 339,-85.62 339,-73.62 339,-73.62 339,-67.62 345,-61.62 351,-61.62 351,-61.62 416,-61.62 416,-61.62 422,-61.62 428,-67.62 428,-73.62 428,-73.62 428,-85.62 428,-85.62 428,-91.62 422,-97.62 416,-97.62"/>
<text text-anchor="middle" x="383.5" y="-82.62" font-family="Helvetica,sans-Serif" font-size="10.00">MemoryManager</text>
<text text-anchor="middle" x="383.5" y="-71.62" font-family="Helvetica,sans-Serif" font-size="10.00">manager.py</text>
</g>
<!-- cli&#45;&gt;memory -->
<g id="edge14" class="edge">
<title>cli&#45;&gt;memory</title>
<path fill="none" stroke="black" d="M229.06,-171.19C237.04,-162.16 247.37,-151.56 258,-143.62 279.91,-127.27 306.61,-112.93 329.65,-101.99"/>
<polygon fill="black" stroke="black" points="331.36,-105.06 338.95,-97.67 328.4,-98.71 331.36,-105.06"/>
<text text-anchor="middle" x="287.5" y="-146.43" font-family="Helvetica,sans-Serif" font-size="9.00">J5: Memory</text>
</g>
<!-- claude_bin -->
<g id="node8" class="node">
<title>claude_bin</title>
<path fill="#b2f2bb" stroke="black" d="M603,-261.62C603,-261.62 553,-261.62 553,-261.62 547,-261.62 541,-255.62 541,-249.62 541,-249.62 541,-237.62 541,-237.62 541,-231.62 547,-225.62 553,-225.62 553,-225.62 603,-225.62 603,-225.62 609,-225.62 615,-231.62 615,-237.62 615,-237.62 615,-249.62 615,-249.62 615,-255.62 609,-261.62 603,-261.62"/>
<text text-anchor="middle" x="578" y="-246.62" font-family="Helvetica,sans-Serif" font-size="10.00">claude binary</text>
<text text-anchor="middle" x="578" y="-235.62" font-family="Helvetica,sans-Serif" font-size="10.00">(subprocess)</text>
</g>
<!-- launcher&#45;&gt;claude_bin -->
<g id="edge3" class="edge">
<title>launcher&#45;&gt;claude_bin</title>
<path fill="none" stroke="black" d="M427.22,-285.64C458.01,-277.01 499.5,-265.36 531.01,-256.53"/>
<polygon fill="black" stroke="black" points="532.18,-259.83 540.86,-253.76 530.29,-253.09 532.18,-259.83"/>
</g>
<!-- auto&#45;&gt;claude_bin -->
<g id="edge6" class="edge">
<title>auto&#45;&gt;claude_bin</title>
<path fill="none" stroke="black" d="M422.53,-243.62C453.48,-243.62 497.29,-243.62 530.35,-243.62"/>
<polygon fill="black" stroke="black" points="530.68,-247.13 540.68,-243.62 530.68,-240.13 530.68,-247.13"/>
<text text-anchor="middle" x="477.5" y="-246.43" font-family="Helvetica,sans-Serif" font-size="9.00">iterative turns</text>
</g>
<!-- fs -->
<g id="node11" class="node">
<title>fs</title>
<path fill="#d0bfff" stroke="black" d="M633,-155.6C633,-157.68 608.35,-159.38 578,-159.38 547.65,-159.38 523,-157.68 523,-155.6 523,-155.6 523,-121.65 523,-121.65 523,-119.57 547.65,-117.87 578,-117.87 608.35,-117.87 633,-119.57 633,-121.65 633,-121.65 633,-155.6 633,-155.6"/>
<path fill="none" stroke="black" d="M633,-155.6C633,-153.52 608.35,-151.83 578,-151.83 547.65,-151.83 523,-153.52 523,-155.6"/>
<text text-anchor="middle" x="578" y="-141.62" font-family="Helvetica,sans-Serif" font-size="10.00">~/.amplihack/.claude/</text>
<text text-anchor="middle" x="578" y="-130.62" font-family="Helvetica,sans-Serif" font-size="10.00">(filesystem)</text>
</g>
<!-- install_mod&#45;&gt;fs -->
<g id="edge9" class="edge">
<title>install_mod&#45;&gt;fs</title>
<path fill="none" stroke="black" d="M432.08,-136.37C456.36,-136.74 486.25,-137.21 512.56,-137.62"/>
<polygon fill="black" stroke="black" points="512.77,-141.12 522.82,-137.78 512.88,-134.13 512.77,-141.12"/>
</g>
<!-- recipe&#45;&gt;claude_bin -->
<g id="edge12" class="edge">
<title>recipe&#45;&gt;claude_bin</title>
<path fill="none" stroke="black" d="M423.46,-200.55C454.52,-209.27 498.1,-221.49 530.9,-230.69"/>
<polygon fill="black" stroke="black" points="530.13,-234.11 540.71,-233.44 532.02,-227.37 530.13,-234.11"/>
<text text-anchor="middle" x="477.5" y="-225.43" font-family="Helvetica,sans-Serif" font-size="9.00">agent steps</text>
</g>
<!-- sqlite -->
<g id="node9" class="node">
<title>sqlite</title>
<path fill="#ffd8a8" stroke="black" d="M610.5,-96.6C610.5,-98.68 595.93,-100.38 578,-100.38 560.07,-100.38 545.5,-98.68 545.5,-96.6 545.5,-96.6 545.5,-62.65 545.5,-62.65 545.5,-60.57 560.07,-58.87 578,-58.87 595.93,-58.87 610.5,-60.57 610.5,-62.65 610.5,-62.65 610.5,-96.6 610.5,-96.6"/>
<path fill="none" stroke="black" d="M610.5,-96.6C610.5,-94.52 595.93,-92.83 578,-92.83 560.07,-92.83 545.5,-94.52 545.5,-96.6"/>
<text text-anchor="middle" x="578" y="-82.62" font-family="Helvetica,sans-Serif" font-size="10.00">SQLite</text>
<text text-anchor="middle" x="578" y="-71.62" font-family="Helvetica,sans-Serif" font-size="10.00">memory.db</text>
</g>
<!-- memory&#45;&gt;sqlite -->
<g id="edge15" class="edge">
<title>memory&#45;&gt;sqlite</title>
<path fill="none" stroke="black" d="M428.18,-79.62C460.27,-79.62 503.61,-79.62 535.24,-79.62"/>
<polygon fill="black" stroke="black" points="535.49,-83.13 545.49,-79.62 535.49,-76.13 535.49,-83.13"/>
</g>
<!-- kuzu -->
<g id="node10" class="node">
<title>kuzu</title>
<path fill="#ffe0cc" stroke="black" d="M607,-37.6C607,-39.68 594,-41.38 578,-41.38 562,-41.38 549,-39.68 549,-37.6 549,-37.6 549,-3.65 549,-3.65 549,-1.57 562,0.13 578,0.13 594,0.13 607,-1.57 607,-3.65 607,-3.65 607,-37.6 607,-37.6"/>
<path fill="none" stroke="black" d="M607,-37.6C607,-35.52 594,-33.83 578,-33.83 562,-33.83 549,-35.52 549,-37.6"/>
<text text-anchor="middle" x="578" y="-23.62" font-family="Helvetica,sans-Serif" font-size="10.00">Kuzu</text>
<text text-anchor="middle" x="578" y="-12.62" font-family="Helvetica,sans-Serif" font-size="10.00">graph DB</text>
</g>
<!-- memory&#45;&gt;kuzu -->
<g id="edge16" class="edge">
<title>memory&#45;&gt;kuzu</title>
<path fill="none" stroke="black" d="M428.18,-66.24C461.61,-55.99 507.25,-42 539.14,-32.23"/>
<polygon fill="black" stroke="black" points="540.44,-35.49 548.98,-29.21 538.39,-28.8 540.44,-35.49"/>
</g>
</g>
</svg>
