<?xml version="1.0" encoding="UTF-8" standalone="no"?>
<!DOCTYPE svg PUBLIC "-//W3C//DTD SVG 1.1//EN"
 "http://www.w3.org/Graphics/SVG/1.1/DTD/svg11.dtd">
<!-- Generated by graphviz version 2.42.4 (0)
 -->
<!-- Title: data_flow Pages: 1 -->
<svg width="1576pt" height="362pt"
 viewBox="0.00 0.00 1576.14 362.00" xmlns="http://www.w3.org/2000/svg" xmlns:xlink="http://www.w3.org/1999/xlink">
<g id="graph0" class="graph" transform="scale(1 1) rotate(0) translate(4 358)">
<title>data_flow</title>
<polygon fill="white" stroke="transparent" points="-4,4 -4,-358 1572.14,-358 1572.14,4 -4,4"/>
<g id="clust1" class="cluster">
<title>cluster_input</title>
<polygon fill="none" stroke="black" stroke-dasharray="5,2" points="8,-37 8,-238 135.72,-238 135.72,-37 8,-37"/>
<text text-anchor="middle" x="71.86" y="-222.8" font-family="Times,serif" font-size="14.00">Input Sources</text>
</g>
<g id="clust2" class="cluster">
<title>cluster_parse</title>
<polygon fill="none" stroke="black" stroke-dasharray="5,2" points="179.72,-46 179.72,-229 490.72,-229 490.72,-46 179.72,-46"/>
<text text-anchor="middle" x="335.22" y="-213.8" font-family="Times,serif" font-size="14.00">Parsing &amp; Validation</text>
</g>
<g id="clust3" class="cluster">
<title>cluster_route</title>
<polygon fill="none" stroke="black" stroke-dasharray="5,2" points="556.72,-46 556.72,-229 746.72,-229 746.72,-46 556.72,-46"/>
<text text-anchor="middle" x="651.72" y="-213.8" font-family="Times,serif" font-size="14.00">Routing &amp; Classification</text>
</g>
<g id="clust4" class="cluster">
<title>cluster_exec</title>
<polygon fill="none" stroke="black" stroke-dasharray="5,2" points="813.72,-75 813.72,-204 1140.72,-204 1140.72,-75 813.72,-75"/>
<text text-anchor="middle" x="977.22" y="-188.8" font-family="Times,serif" font-size="14.00">Execution</text>
</g>
<g id="clust5" class="cluster">
<title>cluster_persist</title>
<polygon fill="none" stroke="black" stroke-dasharray="5,2" points="1220.43,-217 1220.43,-346 1560.14,-346 1560.14,-217 1220.43,-217"/>
<text text-anchor="middle" x="1390.29" y="-330.8" font-family="Times,serif" font-size="14.00">State Persistence</text>
</g>
<g id="clust6" class="cluster">
<title>cluster_output</title>
<polygon fill="none" stroke="black" stroke-dasharray="5,2" points="1201.72,-8 1201.72,-209 1359.14,-209 1359.14,-8 1201.72,-8"/>
<text text-anchor="middle" x="1280.43" y="-193.8" font-family="Times,serif" font-size="14.00">Output</text>
</g>
<!-- user_prompt -->
<g id="node1" class="node">
<title>user_prompt</title>
<ellipse fill="#ffffff" stroke="black" cx="71.86" cy="-126" rx="54.39" ry="21.43"/>
<text text-anchor="middle" x="71.86" y="-129" font-family="Helvetica,sans-Serif" font-size="10.00">User Prompt</text>
<text text-anchor="middle" x="71.86" y="-118" font-family="Helvetica,sans-Serif" font-size="10.00">(stdin)</text>
</g>
<!-- clap_parse -->
<g id="node4" class="node">
<title>clap_parse</title>
<polygon fill="#87ceeb" stroke="black" points="276.72,-144 187.72,-144 187.72,-108 276.72,-108 276.72,-144"/>
<text text-anchor="middle" x="232.22" y="-129" font-family="Helvetica,sans-Serif" font-size="10.00">Clap CLI Parser</text>
<text text-anchor="middle" x="232.22" y="-118" font-family="Helvetica,sans-Serif" font-size="10.00">(cli::Cli)</text>
</g>
<!-- user_prompt&#45;&gt;clap_parse -->
<g id="edge1" class="edge">
<title>user_prompt&#45;&gt;clap_parse</title>
<path fill="none" stroke="black" d="M126.48,-126C142.97,-126 161.13,-126 177.62,-126"/>
<polygon fill="black" stroke="black" points="177.65,-129.5 187.65,-126 177.65,-122.5 177.65,-129.5"/>
<text text-anchor="middle" x="157.72" y="-128.8" font-family="Helvetica,sans-Serif" font-size="9.00">args</text>
</g>
<!-- recipe_yaml -->
<g id="node2" class="node">
<title>recipe_yaml</title>
<ellipse fill="#ffffff" stroke="black" cx="71.86" cy="-66" rx="55.72" ry="21.43"/>
<text text-anchor="middle" x="71.86" y="-69" font-family="Helvetica,sans-Serif" font-size="10.00">Recipe YAML</text>
<text text-anchor="middle" x="71.86" y="-58" font-family="Helvetica,sans-Serif" font-size="10.00">(file)</text>
</g>
<!-- recipe_parse -->
<g id="node5" class="node">
<title>recipe_parse</title>
<polygon fill="#87ceeb" stroke="black" points="273.72,-90 190.72,-90 190.72,-54 273.72,-54 273.72,-90"/>
<text text-anchor="middle" x="232.22" y="-75" font-family="Helvetica,sans-Serif" font-size="10.00">recipe::parser</text>
<text text-anchor="middle" x="232.22" y="-64" font-family="Helvetica,sans-Serif" font-size="10.00">(serde_yaml)</text>
</g>
<!-- recipe_yaml&#45;&gt;recipe_parse -->
<g id="edge2" class="edge">
<title>recipe_yaml&#45;&gt;recipe_parse</title>
<path fill="none" stroke="black" d="M127.8,-68.08C144.82,-68.73 163.49,-69.43 180.22,-70.07"/>
<polygon fill="black" stroke="black" points="180.24,-73.57 190.36,-70.45 180.5,-66.58 180.24,-73.57"/>
<text text-anchor="middle" x="157.72" y="-71.8" font-family="Helvetica,sans-Serif" font-size="9.00">YAML</text>
</g>
<!-- hook_event -->
<g id="node3" class="node">
<title>hook_event</title>
<ellipse fill="#ffffff" stroke="black" cx="71.86" cy="-186" rx="53.07" ry="21.43"/>
<text text-anchor="middle" x="71.86" y="-189" font-family="Helvetica,sans-Serif" font-size="10.00">Hook Event</text>
<text text-anchor="middle" x="71.86" y="-178" font-family="Helvetica,sans-Serif" font-size="10.00">(JSON stdin)</text>
</g>
<!-- hook_deser -->
<g id="node6" class="node">
<title>hook_deser</title>
<polygon fill="#87ceeb" stroke="black" points="270.72,-198 193.72,-198 193.72,-162 270.72,-162 270.72,-198"/>
<text text-anchor="middle" x="232.22" y="-183" font-family="Helvetica,sans-Serif" font-size="10.00">HookInput</text>
<text text-anchor="middle" x="232.22" y="-172" font-family="Helvetica,sans-Serif" font-size="10.00">(serde_json)</text>
</g>
<!-- hook_event&#45;&gt;hook_deser -->
<g id="edge3" class="edge">
<title>hook_event&#45;&gt;hook_deser</title>
<path fill="none" stroke="black" d="M124.71,-184.04C143.5,-183.32 164.63,-182.52 183.09,-181.82"/>
<polygon fill="black" stroke="black" points="183.46,-185.31 193.32,-181.44 183.19,-178.32 183.46,-185.31"/>
<text text-anchor="middle" x="157.72" y="-185.8" font-family="Helvetica,sans-Serif" font-size="9.00">JSON</text>
</g>
<!-- cmd_dispatch -->
<g id="node8" class="node">
<title>cmd_dispatch</title>
<polygon fill="#ffd700" stroke="black" points="728.72,-144 574.72,-144 574.72,-108 728.72,-108 728.72,-144"/>
<text text-anchor="middle" x="651.72" y="-129" font-family="Helvetica,sans-Serif" font-size="10.00">commands::dispatch</text>
<text text-anchor="middle" x="651.72" y="-118" font-family="Helvetica,sans-Serif" font-size="10.00">(match on Command enum)</text>
</g>
<!-- clap_parse&#45;&gt;cmd_dispatch -->
<g id="edge5" class="edge">
<title>clap_parse&#45;&gt;cmd_dispatch</title>
<path fill="none" stroke="black" d="M277.11,-126C344.98,-126 476.67,-126 564.17,-126"/>
<polygon fill="black" stroke="black" points="564.35,-129.5 574.35,-126 564.35,-122.5 564.35,-129.5"/>
<text text-anchor="middle" x="418.72" y="-128.8" font-family="Helvetica,sans-Serif" font-size="9.00">Command enum</text>
</g>
<!-- recipe_condition -->
<g id="node10" class="node">
<title>recipe_condition</title>
<polygon fill="#ffd700" stroke="black" points="713.72,-90 589.72,-90 589.72,-54 713.72,-54 713.72,-90"/>
<text text-anchor="middle" x="651.72" y="-69.5" font-family="Helvetica,sans-Serif" font-size="10.00">recipe::condition_eval</text>
</g>
<!-- recipe_parse&#45;&gt;recipe_condition -->
<g id="edge6" class="edge">
<title>recipe_parse&#45;&gt;recipe_condition</title>
<path fill="none" stroke="black" d="M274.01,-72C344.87,-72 491.51,-72 579.48,-72"/>
<polygon fill="black" stroke="black" points="579.64,-75.5 589.64,-72 579.64,-68.5 579.64,-75.5"/>
<text text-anchor="middle" x="418.72" y="-74.8" font-family="Helvetica,sans-Serif" font-size="9.00">steps</text>
</g>
<!-- security_check -->
<g id="node7" class="node">
<title>security_check</title>
<polygon fill="#ff6347" stroke="black" points="482.72,-198 354.72,-198 354.72,-162 482.72,-162 482.72,-198"/>
<text text-anchor="middle" x="418.72" y="-183" font-family="Helvetica,sans-Serif" font-size="10.00">security::XpiaDefender</text>
<text text-anchor="middle" x="418.72" y="-172" font-family="Helvetica,sans-Serif" font-size="10.00">(pattern scan)</text>
</g>
<!-- hook_deser&#45;&gt;security_check -->
<g id="edge4" class="edge">
<title>hook_deser&#45;&gt;security_check</title>
<path fill="none" stroke="black" d="M271,-180C292.13,-180 319.19,-180 344.31,-180"/>
<polygon fill="black" stroke="black" points="344.56,-183.5 354.56,-180 344.56,-176.5 344.56,-183.5"/>
<text text-anchor="middle" x="315.72" y="-182.8" font-family="Helvetica,sans-Serif" font-size="9.00">validated</text>
</g>
<!-- workflow_class -->
<g id="node9" class="node">
<title>workflow_class</title>
<polygon fill="#ffd700" stroke="black" points="732.72,-198 570.72,-198 570.72,-162 732.72,-162 732.72,-198"/>
<text text-anchor="middle" x="651.72" y="-183" font-family="Helvetica,sans-Serif" font-size="10.00">workflows::WorkflowClassifier</text>
<text text-anchor="middle" x="651.72" y="-172" font-family="Helvetica,sans-Serif" font-size="10.00">(Q&amp;A / Investigation / Dev)</text>
</g>
<!-- security_check&#45;&gt;workflow_class -->
<g id="edge7" class="edge">
<title>security_check&#45;&gt;workflow_class</title>
<path fill="none" stroke="black" d="M482.84,-180C506.78,-180 534.53,-180 560.49,-180"/>
<polygon fill="black" stroke="black" points="560.72,-183.5 570.72,-180 560.72,-176.5 560.72,-183.5"/>
<text text-anchor="middle" x="523.72" y="-182.8" font-family="Helvetica,sans-Serif" font-size="9.00">safe input</text>
</g>
<!-- agent_session -->
<g id="node11" class="node">
<title>agent_session</title>
<polygon fill="#98fb98" stroke="black" points="936.72,-173 821.72,-173 821.72,-137 936.72,-137 936.72,-173"/>
<text text-anchor="middle" x="879.22" y="-158" font-family="Helvetica,sans-Serif" font-size="10.00">agent_core::session</text>
<text text-anchor="middle" x="879.22" y="-147" font-family="Helvetica,sans-Serif" font-size="10.00">(conversation state)</text>
</g>
<!-- cmd_dispatch&#45;&gt;agent_session -->
<g id="edge8" class="edge">
<title>cmd_dispatch&#45;&gt;agent_session</title>
<path fill="none" stroke="black" d="M728.75,-135.78C755.5,-139.22 785.35,-143.06 811.3,-146.39"/>
<polygon fill="black" stroke="black" points="811.04,-149.89 821.41,-147.69 811.94,-142.95 811.04,-149.89"/>
<text text-anchor="middle" x="780.22" y="-146.8" font-family="Helvetica,sans-Serif" font-size="9.00">run</text>
</g>
<!-- recipe_step_exec -->
<g id="node13" class="node">
<title>recipe_step_exec</title>
<polygon fill="#98fb98" stroke="black" points="926.72,-119 831.72,-119 831.72,-83 926.72,-83 926.72,-119"/>
<text text-anchor="middle" x="879.22" y="-104" font-family="Helvetica,sans-Serif" font-size="10.00">recipe::executor</text>
<text text-anchor="middle" x="879.22" y="-93" font-family="Helvetica,sans-Serif" font-size="10.00">(step runner)</text>
</g>
<!-- cmd_dispatch&#45;&gt;recipe_step_exec -->
<g id="edge9" class="edge">
<title>cmd_dispatch&#45;&gt;recipe_step_exec</title>
<path fill="none" stroke="black" d="M728.81,-116.26C738.2,-115.12 747.68,-114.01 756.72,-113 777.81,-110.64 800.98,-108.29 821.38,-106.31"/>
<polygon fill="black" stroke="black" points="821.84,-109.78 831.46,-105.33 821.17,-102.81 821.84,-109.78"/>
<text text-anchor="middle" x="780.22" y="-115.8" font-family="Helvetica,sans-Serif" font-size="9.00">recipe run</text>
</g>
<!-- workflow_class&#45;&gt;agent_session -->
<g id="edge10" class="edge">
<title>workflow_class&#45;&gt;agent_session</title>
<path fill="none" stroke="black" d="M732.86,-171.12C758.67,-168.25 786.98,-165.12 811.7,-162.37"/>
<polygon fill="black" stroke="black" points="812.15,-165.85 821.7,-161.27 811.38,-158.89 812.15,-165.85"/>
<text text-anchor="middle" x="780.22" y="-170.8" font-family="Helvetica,sans-Serif" font-size="9.00">classified</text>
</g>
<!-- recipe_condition&#45;&gt;recipe_step_exec -->
<g id="edge11" class="edge">
<title>recipe_condition&#45;&gt;recipe_step_exec</title>
<path fill="none" stroke="black" d="M713.75,-79.85C747.17,-84.15 788.34,-89.44 821.13,-93.66"/>
<polygon fill="black" stroke="black" points="821.1,-97.18 831.46,-94.99 821.99,-90.24 821.1,-97.18"/>
<text text-anchor="middle" x="780.22" y="-92.8" font-family="Helvetica,sans-Serif" font-size="9.00">eval</text>
</g>
<!-- agent_loop_exec -->
<g id="node12" class="node">
<title>agent_loop_exec</title>
<polygon fill="#98fb98" stroke="black" points="1132.72,-173 1000.72,-173 1000.72,-137 1132.72,-137 1132.72,-173"/>
<text text-anchor="middle" x="1066.72" y="-158" font-family="Helvetica,sans-Serif" font-size="10.00">agentic_loop::loop_core</text>
<text text-anchor="middle" x="1066.72" y="-147" font-family="Helvetica,sans-Serif" font-size="10.00">(tool&#45;use cycle)</text>
</g>
<!-- agent_session&#45;&gt;agent_loop_exec -->
<g id="edge12" class="edge">
<title>agent_session&#45;&gt;agent_loop_exec</title>
<path fill="none" stroke="black" d="M936.89,-155C953.8,-155 972.61,-155 990.51,-155"/>
<polygon fill="black" stroke="black" points="990.64,-158.5 1000.64,-155 990.64,-151.5 990.64,-158.5"/>
<text text-anchor="middle" x="968.72" y="-157.8" font-family="Helvetica,sans-Serif" font-size="9.00">drives</text>
</g>
<!-- memory_store -->
<g id="node15" class="node">
<title>memory_store</title>
<polygon fill="#f0e68c" stroke="black" points="1332.43,-261 1228.43,-261 1228.43,-225 1332.43,-225 1332.43,-261"/>
<text text-anchor="middle" x="1280.43" y="-246" font-family="Helvetica,sans-Serif" font-size="10.00">memory::backend</text>
<text text-anchor="middle" x="1280.43" y="-235" font-family="Helvetica,sans-Serif" font-size="10.00">(store/retrieve)</text>
</g>
<!-- agent_loop_exec&#45;&gt;memory_store -->
<g id="edge13" class="edge">
<title>agent_loop_exec&#45;&gt;memory_store</title>
<path fill="none" stroke="black" d="M1108.3,-173.07C1134.78,-184.73 1170.17,-200.09 1201.72,-213 1208.35,-215.71 1215.32,-218.5 1222.25,-221.22"/>
<polygon fill="black" stroke="black" points="1221.05,-224.51 1231.64,-224.9 1223.6,-218 1221.05,-224.51"/>
<text text-anchor="middle" x="1171.22" y="-210.8" font-family="Helvetica,sans-Serif" font-size="9.00">persist</text>
</g>
<!-- stdout_out -->
<g id="node17" class="node">
<title>stdout_out</title>
<ellipse fill="#d3d3d3" stroke="black" cx="1280.43" cy="-157" rx="65.11" ry="21.43"/>
<text text-anchor="middle" x="1280.43" y="-160" font-family="Helvetica,sans-Serif" font-size="10.00">stdout</text>
<text text-anchor="middle" x="1280.43" y="-149" font-family="Helvetica,sans-Serif" font-size="10.00">(user response)</text>
</g>
<!-- agent_loop_exec&#45;&gt;stdout_out -->
<g id="edge14" class="edge">
<title>agent_loop_exec&#45;&gt;stdout_out</title>
<path fill="none" stroke="black" d="M1132.97,-155.62C1155.72,-155.83 1181.43,-156.07 1204.88,-156.3"/>
<polygon fill="black" stroke="black" points="1205.1,-159.8 1215.13,-156.39 1205.16,-152.8 1205.1,-159.8"/>
<text text-anchor="middle" x="1171.22" y="-158.8" font-family="Helvetica,sans-Serif" font-size="9.00">response</text>
</g>
<!-- file_out -->
<g id="node18" class="node">
<title>file_out</title>
<ellipse fill="#d3d3d3" stroke="black" cx="1280.43" cy="-37" rx="70.92" ry="21.43"/>
<text text-anchor="middle" x="1280.43" y="-40" font-family="Helvetica,sans-Serif" font-size="10.00">File Output</text>
<text text-anchor="middle" x="1280.43" y="-29" font-family="Helvetica,sans-Serif" font-size="10.00">(generated code)</text>
</g>
<!-- recipe_step_exec&#45;&gt;file_out -->
<g id="edge15" class="edge">
<title>recipe_step_exec&#45;&gt;file_out</title>
<path fill="none" stroke="black" d="M926.8,-93.53C995.93,-82.45 1126.27,-61.55 1207.66,-48.51"/>
<polygon fill="black" stroke="black" points="1208.51,-51.92 1217.83,-46.88 1207.4,-45 1208.51,-51.92"/>
<text text-anchor="middle" x="1066.72" y="-83.8" font-family="Helvetica,sans-Serif" font-size="9.00">writes</text>
</g>
<!-- gh_issue -->
<g id="node19" class="node">
<title>gh_issue</title>
<ellipse fill="#d3d3d3" stroke="black" cx="1280.43" cy="-97" rx="55.72" ry="21.43"/>
<text text-anchor="middle" x="1280.43" y="-100" font-family="Helvetica,sans-Serif" font-size="10.00">GitHub Issue</text>
<text text-anchor="middle" x="1280.43" y="-89" font-family="Helvetica,sans-Serif" font-size="10.00">(gh API)</text>
</g>
<!-- recipe_step_exec&#45;&gt;gh_issue -->
<g id="edge18" class="edge">
<title>recipe_step_exec&#45;&gt;gh_issue</title>
<path fill="none" stroke="black" d="M926.8,-100.53C997.9,-99.82 1133.76,-98.46 1214.51,-97.65"/>
<polygon fill="black" stroke="black" points="1214.59,-101.15 1224.56,-97.55 1214.52,-94.15 1214.59,-101.15"/>
<text text-anchor="middle" x="1066.72" y="-101.8" font-family="Helvetica,sans-Serif" font-size="9.00">files</text>
</g>
<!-- atomic_json -->
<g id="node14" class="node">
<title>atomic_json</title>
<polygon fill="#f0e68c" stroke="black" points="1552.14,-261 1433.14,-261 1433.14,-225 1552.14,-225 1552.14,-261"/>
<text text-anchor="middle" x="1492.64" y="-246" font-family="Helvetica,sans-Serif" font-size="10.00">state::AtomicJsonFile</text>
<text text-anchor="middle" x="1492.64" y="-235" font-family="Helvetica,sans-Serif" font-size="10.00">(file lock + write)</text>
</g>
<!-- memory_store&#45;&gt;atomic_json -->
<g id="edge17" class="edge">
<title>memory_store&#45;&gt;atomic_json</title>
<path fill="none" stroke="black" d="M1332.59,-243C1359.66,-243 1393.28,-243 1422.62,-243"/>
<polygon fill="black" stroke="black" points="1422.81,-246.5 1432.81,-243 1422.81,-239.5 1422.81,-246.5"/>
<text text-anchor="middle" x="1392.14" y="-245.8" font-family="Helvetica,sans-Serif" font-size="9.00">file ops</text>
</g>
<!-- kuzu_graph -->
<g id="node16" class="node">
<title>kuzu_graph</title>
<polygon fill="#f0e68c" stroke="black" points="1549.14,-315 1436.14,-315 1436.14,-279 1549.14,-279 1549.14,-315"/>
<text text-anchor="middle" x="1492.64" y="-300" font-family="Helvetica,sans-Serif" font-size="10.00">LadybugDB (Kuzu)</text>
<text text-anchor="middle" x="1492.64" y="-289" font-family="Helvetica,sans-Serif" font-size="10.00">(graph insert/query)</text>
</g>
<!-- memory_store&#45;&gt;kuzu_graph -->
<g id="edge16" class="edge">
<title>memory_store&#45;&gt;kuzu_graph</title>
<path fill="none" stroke="black" d="M1332.59,-256.14C1360.65,-263.35 1395.75,-272.37 1425.83,-280.09"/>
<polygon fill="black" stroke="black" points="1425.27,-283.56 1435.82,-282.66 1427.01,-276.78 1425.27,-283.56"/>
<text text-anchor="middle" x="1392.14" y="-278.8" font-family="Helvetica,sans-Serif" font-size="9.00">graph ops</text>
</g>
</g>
</svg>
