<?xml version="1.0" encoding="UTF-8" standalone="no"?>
<!DOCTYPE svg PUBLIC "-//W3C//DTD SVG 1.1//EN"
 "http://www.w3.org/Graphics/SVG/1.1/DTD/svg11.dtd">
<!-- Generated by graphviz version 2.42.4 (0)
 -->
<!-- Title: data_flow Pages: 1 -->
<svg width="480pt" height="152pt"
 viewBox="0.00 0.00 480.00 152.00" xmlns="http://www.w3.org/2000/svg" xmlns:xlink="http://www.w3.org/1999/xlink">
<g id="graph0" class="graph" transform="scale(1 1) rotate(0) translate(4 148)">
<title>data_flow</title>
<polygon fill="white" stroke="transparent" points="-4,4 -4,-148 476,-148 476,4 -4,4"/>
<!-- user -->
<g id="node1" class="node">
<title>user</title>
<polygon fill="none" stroke="black" points="54,-90 0,-90 0,-54 54,-54 54,-90"/>
<text text-anchor="middle" x="27" y="-69.5" font-family="Times,serif" font-size="10.00">user</text>
</g>
<!-- amplihack&#45;cli -->
<g id="node2" class="node">
<title>amplihack&#45;cli</title>
<polygon fill="none" stroke="black" points="183.5,-90 99.5,-90 99.5,-54 183.5,-54 183.5,-90"/>
<text text-anchor="middle" x="141.5" y="-69.5" font-family="Times,serif" font-size="10.00">amplihack&#45;cli</text>
</g>
<!-- user&#45;&gt;amplihack&#45;cli -->
<g id="edge1" class="edge">
<title>user&#45;&gt;amplihack&#45;cli</title>
<path fill="none" stroke="black" d="M54.09,-72C64.54,-72 76.96,-72 89.07,-72"/>
<polygon fill="black" stroke="black" points="89.13,-75.5 99.13,-72 89.13,-68.5 89.13,-75.5"/>
</g>
<!-- amplihack&#45;state -->
<g id="node3" class="node">
<title>amplihack&#45;state</title>
<polygon fill="none" stroke="black" points="335.5,-144 237.5,-144 237.5,-108 335.5,-108 335.5,-144"/>
<text text-anchor="middle" x="286.5" y="-123.5" font-family="Times,serif" font-size="10.00">amplihack&#45;state</text>
</g>
<!-- amplihack&#45;cli&#45;&gt;amplihack&#45;state -->
<g id="edge2" class="edge">
<title>amplihack&#45;cli&#45;&gt;amplihack&#45;state</title>
<path fill="none" stroke="black" d="M183.86,-87.62C197.67,-92.83 213.3,-98.74 228.1,-104.33"/>
<polygon fill="black" stroke="black" points="227.09,-107.68 237.68,-107.94 229.56,-101.13 227.09,-107.68"/>
</g>
<!-- amplihack&#45;memory -->
<g id="node4" class="node">
<title>amplihack&#45;memory</title>
<polygon fill="none" stroke="black" points="344,-90 229,-90 229,-54 344,-54 344,-90"/>
<text text-anchor="middle" x="286.5" y="-69.5" font-family="Times,serif" font-size="10.00">amplihack&#45;memory</text>
</g>
<!-- amplihack&#45;cli&#45;&gt;amplihack&#45;memory -->
<g id="edge3" class="edge">
<title>amplihack&#45;cli&#45;&gt;amplihack&#45;memory</title>
<path fill="none" stroke="black" d="M183.86,-72C194.71,-72 206.69,-72 218.5,-72"/>
<polygon fill="black" stroke="black" points="218.81,-75.5 228.81,-72 218.81,-68.5 218.81,-75.5"/>
</g>
<!-- recipe runner -->
<g id="node5" class="node">
<title>recipe runner</title>
<polygon fill="none" stroke="black" points="329.5,-36 243.5,-36 243.5,0 329.5,0 329.5,-36"/>
<text text-anchor="middle" x="286.5" y="-15.5" font-family="Times,serif" font-size="10.00">recipe runner</text>
</g>
<!-- amplihack&#45;cli&#45;&gt;recipe runner -->
<g id="edge4" class="edge">
<title>amplihack&#45;cli&#45;&gt;recipe runner</title>
<path fill="none" stroke="black" d="M183.86,-56.38C199.45,-50.5 217.37,-43.73 233.78,-37.53"/>
<polygon fill="black" stroke="black" points="235.12,-40.77 243.24,-33.96 232.65,-34.22 235.12,-40.77"/>
</g>
<!-- agent sessions -->
<g id="node6" class="node">
<title>agent sessions</title>
<polygon fill="none" stroke="black" points="472,-36 380,-36 380,0 472,0 472,-36"/>
<text text-anchor="middle" x="426" y="-15.5" font-family="Times,serif" font-size="10.00">agent sessions</text>
</g>
<!-- recipe runner&#45;&gt;agent sessions -->
<g id="edge5" class="edge">
<title>recipe runner&#45;&gt;agent sessions</title>
<path fill="none" stroke="black" d="M329.5,-18C342.21,-18 356.37,-18 369.81,-18"/>
<polygon fill="black" stroke="black" points="369.91,-21.5 379.91,-18 369.91,-14.5 369.91,-21.5"/>
</g>
<!-- amplihack&#45;hooks -->
<g id="node7" class="node">
<title>amplihack&#45;hooks</title>
<polygon fill="none" stroke="black" points="193,-144 90,-144 90,-108 193,-108 193,-144"/>
<text text-anchor="middle" x="141.5" y="-123.5" font-family="Times,serif" font-size="10.00">amplihack&#45;hooks</text>
</g>
<!-- amplihack&#45;hooks&#45;&gt;amplihack&#45;state -->
<g id="edge6" class="edge">
<title>amplihack&#45;hooks&#45;&gt;amplihack&#45;state</title>
<path fill="none" stroke="black" d="M193.32,-126C204.26,-126 215.91,-126 227.11,-126"/>
<polygon fill="black" stroke="black" points="227.24,-129.5 237.24,-126 227.24,-122.5 227.24,-129.5"/>
</g>
</g>
</svg>
