<?xml version="1.0" encoding="UTF-8" standalone="no"?>
<!DOCTYPE svg PUBLIC "-//W3C//DTD SVG 1.1//EN"
 "http://www.w3.org/Graphics/SVG/1.1/DTD/svg11.dtd">
<!-- Generated by graphviz version 2.42.4 (0)
 -->
<!-- Title: ast_lsp_bindings Pages: 1 -->
<svg width="687pt" height="1025pt"
 viewBox="0.00 0.00 687.00 1025.00" xmlns="http://www.w3.org/2000/svg" xmlns:xlink="http://www.w3.org/1999/xlink">
<g id="graph0" class="graph" transform="scale(1 1) rotate(0) translate(4 1021)">
<title>ast_lsp_bindings</title>
<polygon fill="white" stroke="transparent" points="-4,4 -4,-1021 683,-1021 683,4 -4,4"/>
<g id="clust1" class="cluster">
<title>cluster_entry</title>
<polygon fill="none" stroke="black" points="33.5,-552 33.5,-627 140.5,-627 140.5,-552 33.5,-552"/>
<text text-anchor="middle" x="87" y="-611.8" font-family="Times,serif" font-size="14.00">CLI Entry</text>
</g>
<g id="clust2" class="cluster">
<title>cluster_dispatch</title>
<polygon fill="none" stroke="black" points="278,-552 278,-627 671,-627 671,-552 278,-552"/>
<text text-anchor="middle" x="474.5" y="-611.8" font-family="Times,serif" font-size="14.00">Command Dispatch</text>
</g>
<g id="clust3" class="cluster">
<title>cluster_types</title>
<polygon fill="none" stroke="black" points="542.5,-170 542.5,-353 661.5,-353 661.5,-170 542.5,-170"/>
<text text-anchor="middle" x="602" y="-337.8" font-family="Times,serif" font-size="14.00">Core Types</text>
</g>
<g id="clust4" class="cluster">
<title>cluster_state</title>
<polygon fill="none" stroke="black" points="277.5,-307 277.5,-544 430.5,-544 430.5,-307 277.5,-307"/>
<text text-anchor="middle" x="354" y="-528.8" font-family="Times,serif" font-size="14.00">State Management</text>
</g>
<g id="clust5" class="cluster">
<title>cluster_hooks</title>
<polygon fill="none" stroke="black" points="263,-8 263,-299 444,-299 444,-8 263,-8"/>
<text text-anchor="middle" x="353.5" y="-283.8" font-family="Times,serif" font-size="14.00">Hook System</text>
</g>
<g id="clust6" class="cluster">
<title>cluster_agent</title>
<polygon fill="none" stroke="black" points="8,-826 8,-1009 431,-1009 431,-826 8,-826"/>
<text text-anchor="middle" x="219.5" y="-993.8" font-family="Times,serif" font-size="14.00">Agent System</text>
</g>
<g id="clust7" class="cluster">
<title>cluster_memory</title>
<polygon fill="none" stroke="black" points="286,-635 286,-818 421,-818 421,-635 286,-635"/>
<text text-anchor="middle" x="353.5" y="-802.8" font-family="Times,serif" font-size="14.00">Memory System</text>
</g>
<!-- main_rs -->
<g id="node1" class="node">
<title>main_rs</title>
<polygon fill="#87ceeb" stroke="black" points="132.5,-596 41.5,-596 41.5,-560 132.5,-560 132.5,-596"/>
<text text-anchor="middle" x="87" y="-581" font-family="Helvetica,sans-Serif" font-size="10.00">bins/amplihack</text>
<text text-anchor="middle" x="87" y="-570" font-family="Helvetica,sans-Serif" font-size="10.00">main.rs</text>
</g>
<!-- cli_commands -->
<g id="node2" class="node">
<title>cli_commands</title>
<polygon fill="#ffd700" stroke="black" points="421,-596 286,-596 286,-560 421,-560 421,-596"/>
<text text-anchor="middle" x="353.5" y="-575.5" font-family="Helvetica,sans-Serif" font-size="10.00">cli::commands::dispatch</text>
</g>
<!-- main_rs&#45;&gt;cli_commands -->
<g id="edge1" class="edge">
<title>main_rs&#45;&gt;cli_commands</title>
<path fill="none" stroke="black" d="M132.57,-578C171.66,-578 229.35,-578 275.84,-578"/>
<polygon fill="black" stroke="black" points="275.88,-581.5 285.88,-578 275.88,-574.5 275.88,-581.5"/>
<text text-anchor="middle" x="214.5" y="-580.8" font-family="Helvetica,sans-Serif" font-size="9.00">parse &amp; dispatch</text>
</g>
<!-- cli_subcommands -->
<g id="node3" class="node">
<title>cli_subcommands</title>
<polygon fill="#ffd700" stroke="black" points="663,-596 541,-596 541,-560 663,-560 663,-596"/>
<text text-anchor="middle" x="602" y="-575.5" font-family="Helvetica,sans-Serif" font-size="10.00">cli::cli_subcommands</text>
</g>
<!-- cli_commands&#45;&gt;cli_subcommands -->
<g id="edge2" class="edge">
<title>cli_commands&#45;&gt;cli_subcommands</title>
<path fill="none" stroke="black" d="M421.21,-578C455.06,-578 496.18,-578 530.55,-578"/>
<polygon fill="black" stroke="black" points="530.98,-581.5 540.98,-578 530.98,-574.5 530.98,-581.5"/>
<text text-anchor="middle" x="488.5" y="-580.8" font-family="Helvetica,sans-Serif" font-size="9.00">route</text>
</g>
<!-- types_hook_io -->
<g id="node4" class="node">
<title>types_hook_io</title>
<polygon fill="#dda0dd" stroke="black" points="652,-268 552,-268 552,-232 652,-232 652,-268"/>
<text text-anchor="middle" x="602" y="-247.5" font-family="Helvetica,sans-Serif" font-size="10.00">types::HookInput</text>
</g>
<!-- cli_commands&#45;&gt;types_hook_io -->
<g id="edge3" class="edge">
<title>cli_commands&#45;&gt;types_hook_io</title>
<path fill="none" stroke="black" d="M419.51,-559.86C428,-556.45 436.39,-552.51 444,-548 485.13,-523.64 501.87,-517.88 523,-475 542.53,-435.37 515.35,-312.98 541,-277 542.03,-275.56 543.15,-274.2 544.35,-272.91"/>
<polygon fill="black" stroke="black" points="546.74,-275.46 551.99,-266.26 542.15,-270.18 546.74,-275.46"/>
<text text-anchor="middle" x="488.5" y="-543.8" font-family="Helvetica,sans-Serif" font-size="9.00">uses</text>
</g>
<!-- types_settings -->
<g id="node6" class="node">
<title>types_settings</title>
<polygon fill="#dda0dd" stroke="black" points="646.5,-214 557.5,-214 557.5,-178 646.5,-178 646.5,-214"/>
<text text-anchor="middle" x="602" y="-193.5" font-family="Helvetica,sans-Serif" font-size="10.00">types::Settings</text>
</g>
<!-- cli_commands&#45;&gt;types_settings -->
<g id="edge4" class="edge">
<title>cli_commands&#45;&gt;types_settings</title>
<path fill="none" stroke="black" d="M421.02,-565.88C429.91,-561.58 438.01,-555.79 444,-548 465.31,-520.29 444.32,-424.59 454,-391 471.79,-329.28 494.73,-321.68 523,-264 531.76,-246.13 526.99,-237.14 541,-223 543.33,-220.65 545.9,-218.48 548.64,-216.49"/>
<polygon fill="black" stroke="black" points="550.66,-219.35 557.21,-211.02 546.9,-213.45 550.66,-219.35"/>
<text text-anchor="middle" x="488.5" y="-393.8" font-family="Helvetica,sans-Serif" font-size="9.00">reads</text>
</g>
<!-- types_paths -->
<g id="node5" class="node">
<title>types_paths</title>
<polygon fill="#dda0dd" stroke="black" points="653.5,-322 550.5,-322 550.5,-286 653.5,-286 653.5,-322"/>
<text text-anchor="middle" x="602" y="-301.5" font-family="Helvetica,sans-Serif" font-size="10.00">types::ProjectDirs</text>
</g>
<!-- state_atomic -->
<g id="node7" class="node">
<title>state_atomic</title>
<polygon fill="#ffa07a" stroke="black" points="413,-513 294,-513 294,-477 413,-477 413,-513"/>
<text text-anchor="middle" x="353.5" y="-492.5" font-family="Helvetica,sans-Serif" font-size="10.00">state::AtomicJsonFile</text>
</g>
<!-- state_atomic&#45;&gt;types_paths -->
<g id="edge9" class="edge">
<title>state_atomic&#45;&gt;types_paths</title>
<path fill="none" stroke="black" d="M413.17,-482.01C423.85,-478.36 434.58,-473.75 444,-468 503.78,-431.47 556.24,-366.6 582.72,-330.36"/>
<polygon fill="black" stroke="black" points="585.57,-332.39 588.58,-322.23 579.89,-328.3 585.57,-332.39"/>
<text text-anchor="middle" x="488.5" y="-463.8" font-family="Helvetica,sans-Serif" font-size="9.00">path resolution</text>
</g>
<!-- state_counter -->
<g id="node8" class="node">
<title>state_counter</title>
<polygon fill="#ffa07a" stroke="black" points="413.5,-459 293.5,-459 293.5,-423 413.5,-423 413.5,-459"/>
<text text-anchor="middle" x="353.5" y="-438.5" font-family="Helvetica,sans-Serif" font-size="10.00">state::AtomicCounter</text>
</g>
<!-- state_env -->
<g id="node9" class="node">
<title>state_env</title>
<polygon fill="#ffa07a" stroke="black" points="394,-405 313,-405 313,-369 394,-369 394,-405"/>
<text text-anchor="middle" x="353.5" y="-384.5" font-family="Helvetica,sans-Serif" font-size="10.00">state::EnvVar</text>
</g>
<!-- state_lock -->
<g id="node10" class="node">
<title>state_lock</title>
<polygon fill="#ffa07a" stroke="black" points="397,-351 310,-351 310,-315 397,-315 397,-351"/>
<text text-anchor="middle" x="353.5" y="-330.5" font-family="Helvetica,sans-Serif" font-size="10.00">state::FileLock</text>
</g>
<!-- hooks_pre_tool -->
<g id="node11" class="node">
<title>hooks_pre_tool</title>
<polygon fill="#98fb98" stroke="black" points="410.5,-268 296.5,-268 296.5,-232 410.5,-232 410.5,-268"/>
<text text-anchor="middle" x="353.5" y="-247.5" font-family="Helvetica,sans-Serif" font-size="10.00">hooks::pre_tool_use</text>
</g>
<!-- hooks_pre_tool&#45;&gt;types_hook_io -->
<g id="edge5" class="edge">
<title>hooks_pre_tool&#45;&gt;types_hook_io</title>
<path fill="none" stroke="black" d="M410.74,-250C449.83,-250 501.83,-250 541.59,-250"/>
<polygon fill="black" stroke="black" points="541.67,-253.5 551.67,-250 541.67,-246.5 541.67,-253.5"/>
<text text-anchor="middle" x="488.5" y="-252.8" font-family="Helvetica,sans-Serif" font-size="9.00">deserializes</text>
</g>
<!-- hooks_post_tool -->
<g id="node12" class="node">
<title>hooks_post_tool</title>
<polygon fill="#98fb98" stroke="black" points="413,-214 294,-214 294,-178 413,-178 413,-214"/>
<text text-anchor="middle" x="353.5" y="-193.5" font-family="Helvetica,sans-Serif" font-size="10.00">hooks::post_tool_use</text>
</g>
<!-- hooks_post_tool&#45;&gt;types_hook_io -->
<g id="edge6" class="edge">
<title>hooks_post_tool&#45;&gt;types_hook_io</title>
<path fill="none" stroke="black" d="M413.23,-208.87C452.05,-217.37 502.77,-228.48 541.71,-237.01"/>
<polygon fill="black" stroke="black" points="541.33,-240.51 551.85,-239.23 542.83,-233.67 541.33,-240.51"/>
<text text-anchor="middle" x="488.5" y="-234.8" font-family="Helvetica,sans-Serif" font-size="9.00">deserializes</text>
</g>
<!-- hooks_session -->
<g id="node13" class="node">
<title>hooks_session</title>
<polygon fill="#98fb98" stroke="black" points="411.5,-160 295.5,-160 295.5,-124 411.5,-124 411.5,-160"/>
<text text-anchor="middle" x="353.5" y="-139.5" font-family="Helvetica,sans-Serif" font-size="10.00">hooks::session_start</text>
</g>
<!-- hooks_session&#45;&gt;types_settings -->
<g id="edge7" class="edge">
<title>hooks_session&#45;&gt;types_settings</title>
<path fill="none" stroke="black" d="M411.67,-154.52C452.58,-163.49 507.27,-175.47 547.36,-184.25"/>
<polygon fill="black" stroke="black" points="546.7,-187.69 557.21,-186.41 548.2,-180.85 546.7,-187.69"/>
<text text-anchor="middle" x="488.5" y="-180.8" font-family="Helvetica,sans-Serif" font-size="9.00">reads</text>
</g>
<!-- hooks_stop -->
<g id="node14" class="node">
<title>hooks_stop</title>
<polygon fill="#98fb98" stroke="black" points="390,-106 317,-106 317,-70 390,-70 390,-106"/>
<text text-anchor="middle" x="353.5" y="-85.5" font-family="Helvetica,sans-Serif" font-size="10.00">hooks::stop</text>
</g>
<!-- hooks_workflow -->
<g id="node15" class="node">
<title>hooks_workflow</title>
<polygon fill="#98fb98" stroke="black" points="436,-52 271,-52 271,-16 436,-16 436,-52"/>
<text text-anchor="middle" x="353.5" y="-31.5" font-family="Helvetica,sans-Serif" font-size="10.00">hooks::workflow_classification</text>
</g>
<!-- hooks_workflow&#45;&gt;types_settings -->
<g id="edge8" class="edge">
<title>hooks_workflow&#45;&gt;types_settings</title>
<path fill="none" stroke="black" d="M424.56,-52C431.29,-54.65 437.88,-57.64 444,-61 497.53,-90.35 549.13,-140.17 577.8,-170.38"/>
<polygon fill="black" stroke="black" points="575.53,-173.08 584.93,-177.99 580.64,-168.3 575.53,-173.08"/>
<text text-anchor="middle" x="488.5" y="-118.8" font-family="Helvetica,sans-Serif" font-size="9.00">reads</text>
</g>
<!-- agent_core_agent -->
<g id="node16" class="node">
<title>agent_core_agent</title>
<polygon fill="#add8e6" stroke="black" points="139,-924 35,-924 35,-888 139,-888 139,-924"/>
<text text-anchor="middle" x="87" y="-903.5" font-family="Helvetica,sans-Serif" font-size="10.00">agent_core::agent</text>
</g>
<!-- memory_backend -->
<g id="node20" class="node">
<title>memory_backend</title>
<polygon fill="#f0e68c" stroke="black" points="405.5,-787 301.5,-787 301.5,-751 405.5,-751 405.5,-787"/>
<text text-anchor="middle" x="353.5" y="-766.5" font-family="Helvetica,sans-Serif" font-size="10.00">memory::backend</text>
</g>
<!-- agent_core_agent&#45;&gt;memory_backend -->
<g id="edge10" class="edge">
<title>agent_core_agent&#45;&gt;memory_backend</title>
<path fill="none" stroke="black" d="M137.72,-887.86C144.6,-885.05 151.52,-882.06 158,-879 188.15,-864.75 265.52,-820.03 313.1,-792.19"/>
<polygon fill="black" stroke="black" points="315.04,-795.11 321.9,-787.03 311.5,-789.07 315.04,-795.11"/>
<text text-anchor="middle" x="214.5" y="-870.8" font-family="Helvetica,sans-Serif" font-size="9.00">stores/retrieves</text>
</g>
<!-- agent_core_loop -->
<g id="node17" class="node">
<title>agent_core_loop</title>
<polygon fill="#add8e6" stroke="black" points="423,-978 284,-978 284,-942 423,-942 423,-978"/>
<text text-anchor="middle" x="353.5" y="-957.5" font-family="Helvetica,sans-Serif" font-size="10.00">agent_core::agentic_loop</text>
</g>
<!-- agent_core_session -->
<g id="node18" class="node">
<title>agent_core_session</title>
<polygon fill="#add8e6" stroke="black" points="143.5,-870 30.5,-870 30.5,-834 143.5,-834 143.5,-870"/>
<text text-anchor="middle" x="87" y="-849.5" font-family="Helvetica,sans-Serif" font-size="10.00">agent_core::session</text>
</g>
<!-- memory_discoveries -->
<g id="node22" class="node">
<title>memory_discoveries</title>
<polygon fill="#f0e68c" stroke="black" points="413,-679 294,-679 294,-643 413,-643 413,-679"/>
<text text-anchor="middle" x="353.5" y="-658.5" font-family="Helvetica,sans-Serif" font-size="10.00">memory::discoveries</text>
</g>
<!-- agent_core_session&#45;&gt;memory_discoveries -->
<g id="edge11" class="edge">
<title>agent_core_session&#45;&gt;memory_discoveries</title>
<path fill="none" stroke="black" d="M102.36,-833.86C129.93,-800.21 193.74,-727.93 263,-688 269.48,-684.27 276.52,-681 283.72,-678.16"/>
<polygon fill="black" stroke="black" points="285.4,-681.27 293.59,-674.54 282.99,-674.7 285.4,-681.27"/>
<text text-anchor="middle" x="214.5" y="-753.8" font-family="Helvetica,sans-Serif" font-size="9.00">queries</text>
</g>
<!-- agent_core_sdk -->
<g id="node19" class="node">
<title>agent_core_sdk</title>
<polygon fill="#add8e6" stroke="black" points="158,-978 16,-978 16,-942 158,-942 158,-978"/>
<text text-anchor="middle" x="87" y="-957.5" font-family="Helvetica,sans-Serif" font-size="10.00">agent_core::sdk_adapters</text>
</g>
<!-- agent_core_sdk&#45;&gt;agent_core_loop -->
<g id="edge12" class="edge">
<title>agent_core_sdk&#45;&gt;agent_core_loop</title>
<path fill="none" stroke="black" d="M158.19,-960C193.72,-960 236.98,-960 273.66,-960"/>
<polygon fill="black" stroke="black" points="273.82,-963.5 283.82,-960 273.82,-956.5 273.82,-963.5"/>
<text text-anchor="middle" x="214.5" y="-962.8" font-family="Helvetica,sans-Serif" font-size="9.00">drives</text>
</g>
<!-- memory_db -->
<g id="node21" class="node">
<title>memory_db</title>
<polygon fill="#f0e68c" stroke="black" points="407.5,-733 299.5,-733 299.5,-697 407.5,-697 407.5,-733"/>
<text text-anchor="middle" x="353.5" y="-712.5" font-family="Helvetica,sans-Serif" font-size="10.00">memory::database</text>
</g>
</g>
</svg>
