<?xml version="1.0" encoding="UTF-8" standalone="no"?>
<!DOCTYPE svg PUBLIC "-//W3C//DTD SVG 1.1//EN"
 "http://www.w3.org/Graphics/SVG/1.1/DTD/svg11.dtd">
<!-- Generated by graphviz version 2.42.4 (0)
 -->
<!-- Title: ast Pages: 1 -->
<svg width="3561pt" height="44pt"
 viewBox="0.00 0.00 3560.50 44.00" xmlns="http://www.w3.org/2000/svg" xmlns:xlink="http://www.w3.org/1999/xlink">
<g id="graph0" class="graph" transform="scale(1 1) rotate(0) translate(4 40)">
<title>ast</title>
<polygon fill="white" stroke="transparent" points="-4,4 -4,-40 3556.5,-40 3556.5,4 -4,4"/>
<!-- amplihack -->
<g id="node1" class="node">
<title>amplihack</title>
<polygon fill="none" stroke="black" points="64,-36 0,-36 0,0 64,0 64,-36"/>
<text text-anchor="middle" x="32" y="-20.8" font-family="Times,serif" font-size="9.00">amplihack</text>
<text text-anchor="middle" x="32" y="-10.8" font-family="Times,serif" font-size="9.00">~0 pub</text>
</g>
<!-- amplihack&#45;agent&#45;core -->
<g id="node2" class="node">
<title>amplihack&#45;agent&#45;core</title>
<polygon fill="none" stroke="black" points="198,-36 82,-36 82,0 198,0 198,-36"/>
<text text-anchor="middle" x="140" y="-20.8" font-family="Times,serif" font-size="9.00">amplihack&#45;agent&#45;core</text>
<text text-anchor="middle" x="140" y="-10.8" font-family="Times,serif" font-size="9.00">~519 pub</text>
</g>
<!-- amplihack&#45;agent&#45;eval -->
<g id="node3" class="node">
<title>amplihack&#45;agent&#45;eval</title>
<polygon fill="none" stroke="black" points="331.5,-36 216.5,-36 216.5,0 331.5,0 331.5,-36"/>
<text text-anchor="middle" x="274" y="-20.8" font-family="Times,serif" font-size="9.00">amplihack&#45;agent&#45;eval</text>
<text text-anchor="middle" x="274" y="-10.8" font-family="Times,serif" font-size="9.00">~433 pub</text>
</g>
<!-- amplihack&#45;agent&#45;generator -->
<g id="node4" class="node">
<title>amplihack&#45;agent&#45;generator</title>
<polygon fill="none" stroke="black" points="492,-36 350,-36 350,0 492,0 492,-36"/>
<text text-anchor="middle" x="421" y="-20.8" font-family="Times,serif" font-size="9.00">amplihack&#45;agent&#45;generator</text>
<text text-anchor="middle" x="421" y="-10.8" font-family="Times,serif" font-size="9.00">~83 pub</text>
</g>
<!-- amplihack&#45;asset&#45;resolver&#45;bin -->
<g id="node5" class="node">
<title>amplihack&#45;asset&#45;resolver&#45;bin</title>
<polygon fill="none" stroke="black" points="659.5,-36 510.5,-36 510.5,0 659.5,0 659.5,-36"/>
<text text-anchor="middle" x="585" y="-20.8" font-family="Times,serif" font-size="9.00">amplihack&#45;asset&#45;resolver&#45;bin</text>
<text text-anchor="middle" x="585" y="-10.8" font-family="Times,serif" font-size="9.00">~0 pub</text>
</g>
<!-- amplihack&#45;blarify -->
<g id="node6" class="node">
<title>amplihack&#45;blarify</title>
<polygon fill="none" stroke="black" points="774.5,-36 677.5,-36 677.5,0 774.5,0 774.5,-36"/>
<text text-anchor="middle" x="726" y="-20.8" font-family="Times,serif" font-size="9.00">amplihack&#45;blarify</text>
<text text-anchor="middle" x="726" y="-10.8" font-family="Times,serif" font-size="9.00">~427 pub</text>
</g>
<!-- amplihack&#45;builders -->
<g id="node7" class="node">
<title>amplihack&#45;builders</title>
<polygon fill="none" stroke="black" points="897.5,-36 792.5,-36 792.5,0 897.5,0 897.5,-36"/>
<text text-anchor="middle" x="845" y="-20.8" font-family="Times,serif" font-size="9.00">amplihack&#45;builders</text>
<text text-anchor="middle" x="845" y="-10.8" font-family="Times,serif" font-size="9.00">~40 pub</text>
</g>
<!-- amplihack&#45;cli -->
<g id="node8" class="node">
<title>amplihack&#45;cli</title>
<polygon fill="none" stroke="black" points="994,-36 916,-36 916,0 994,0 994,-36"/>
<text text-anchor="middle" x="955" y="-20.8" font-family="Times,serif" font-size="9.00">amplihack&#45;cli</text>
<text text-anchor="middle" x="955" y="-10.8" font-family="Times,serif" font-size="9.00">~692 pub</text>
</g>
<!-- amplihack&#45;context -->
<g id="node9" class="node">
<title>amplihack&#45;context</title>
<polygon fill="none" stroke="black" points="1113.5,-36 1012.5,-36 1012.5,0 1113.5,0 1113.5,-36"/>
<text text-anchor="middle" x="1063" y="-20.8" font-family="Times,serif" font-size="9.00">amplihack&#45;context</text>
<text text-anchor="middle" x="1063" y="-10.8" font-family="Times,serif" font-size="9.00">~45 pub</text>
</g>
<!-- amplihack&#45;delegation -->
<g id="node10" class="node">
<title>amplihack&#45;delegation</title>
<polygon fill="none" stroke="black" points="1248,-36 1132,-36 1132,0 1248,0 1248,-36"/>
<text text-anchor="middle" x="1190" y="-20.8" font-family="Times,serif" font-size="9.00">amplihack&#45;delegation</text>
<text text-anchor="middle" x="1190" y="-10.8" font-family="Times,serif" font-size="9.00">~78 pub</text>
</g>
<!-- amplihack&#45;domain&#45;agents -->
<g id="node11" class="node">
<title>amplihack&#45;domain&#45;agents</title>
<polygon fill="none" stroke="black" points="1400,-36 1266,-36 1266,0 1400,0 1400,-36"/>
<text text-anchor="middle" x="1333" y="-20.8" font-family="Times,serif" font-size="9.00">amplihack&#45;domain&#45;agents</text>
<text text-anchor="middle" x="1333" y="-10.8" font-family="Times,serif" font-size="9.00">~123 pub</text>
</g>
<!-- amplihack&#45;fleet -->
<g id="node12" class="node">
<title>amplihack&#45;fleet</title>
<polygon fill="none" stroke="black" points="1505.5,-36 1418.5,-36 1418.5,0 1505.5,0 1505.5,-36"/>
<text text-anchor="middle" x="1462" y="-20.8" font-family="Times,serif" font-size="9.00">amplihack&#45;fleet</text>
<text text-anchor="middle" x="1462" y="-10.8" font-family="Times,serif" font-size="9.00">~66 pub</text>
</g>
<!-- amplihack&#45;hive -->
<g id="node13" class="node">
<title>amplihack&#45;hive</title>
<polygon fill="none" stroke="black" points="1610,-36 1524,-36 1524,0 1610,0 1610,-36"/>
<text text-anchor="middle" x="1567" y="-20.8" font-family="Times,serif" font-size="9.00">amplihack&#45;hive</text>
<text text-anchor="middle" x="1567" y="-10.8" font-family="Times,serif" font-size="9.00">~423 pub</text>
</g>
<!-- amplihack&#45;hooks -->
<g id="node14" class="node">
<title>amplihack&#45;hooks</title>
<polygon fill="none" stroke="black" points="1721.5,-36 1628.5,-36 1628.5,0 1721.5,0 1721.5,-36"/>
<text text-anchor="middle" x="1675" y="-20.8" font-family="Times,serif" font-size="9.00">amplihack&#45;hooks</text>
<text text-anchor="middle" x="1675" y="-10.8" font-family="Times,serif" font-size="9.00">~79 pub</text>
</g>
<!-- amplihack&#45;hooks&#45;bin -->
<g id="node15" class="node">
<title>amplihack&#45;hooks&#45;bin</title>
<polygon fill="none" stroke="black" points="1850.5,-36 1739.5,-36 1739.5,0 1850.5,0 1850.5,-36"/>
<text text-anchor="middle" x="1795" y="-20.8" font-family="Times,serif" font-size="9.00">amplihack&#45;hooks&#45;bin</text>
<text text-anchor="middle" x="1795" y="-10.8" font-family="Times,serif" font-size="9.00">~0 pub</text>
</g>
<!-- amplihack&#45;launcher -->
<g id="node16" class="node">
<title>amplihack&#45;launcher</title>
<polygon fill="none" stroke="black" points="1977,-36 1869,-36 1869,0 1977,0 1977,-36"/>
<text text-anchor="middle" x="1923" y="-20.8" font-family="Times,serif" font-size="9.00">amplihack&#45;launcher</text>
<text text-anchor="middle" x="1923" y="-10.8" font-family="Times,serif" font-size="9.00">~304 pub</text>
</g>
<!-- amplihack&#45;memory -->
<g id="node17" class="node">
<title>amplihack&#45;memory</title>
<polygon fill="none" stroke="black" points="2099,-36 1995,-36 1995,0 2099,0 2099,-36"/>
<text text-anchor="middle" x="2047" y="-20.8" font-family="Times,serif" font-size="9.00">amplihack&#45;memory</text>
<text text-anchor="middle" x="2047" y="-10.8" font-family="Times,serif" font-size="9.00">~439 pub</text>
</g>
<!-- amplihack&#45;multilspy -->
<g id="node18" class="node">
<title>amplihack&#45;multilspy</title>
<polygon fill="none" stroke="black" points="2227,-36 2117,-36 2117,0 2227,0 2227,-36"/>
<text text-anchor="middle" x="2172" y="-20.8" font-family="Times,serif" font-size="9.00">amplihack&#45;multilspy</text>
<text text-anchor="middle" x="2172" y="-10.8" font-family="Times,serif" font-size="9.00">~117 pub</text>
</g>
<!-- amplihack&#45;orchestration -->
<g id="node19" class="node">
<title>amplihack&#45;orchestration</title>
<polygon fill="none" stroke="black" points="2374.5,-36 2245.5,-36 2245.5,0 2374.5,0 2374.5,-36"/>
<text text-anchor="middle" x="2310" y="-20.8" font-family="Times,serif" font-size="9.00">amplihack&#45;orchestration</text>
<text text-anchor="middle" x="2310" y="-10.8" font-family="Times,serif" font-size="9.00">~108 pub</text>
</g>
<!-- amplihack&#45;recovery -->
<g id="node20" class="node">
<title>amplihack&#45;recovery</title>
<polygon fill="none" stroke="black" points="2499.5,-36 2392.5,-36 2392.5,0 2499.5,0 2499.5,-36"/>
<text text-anchor="middle" x="2446" y="-20.8" font-family="Times,serif" font-size="9.00">amplihack&#45;recovery</text>
<text text-anchor="middle" x="2446" y="-10.8" font-family="Times,serif" font-size="9.00">~34 pub</text>
</g>
<!-- amplihack&#45;reflection -->
<g id="node21" class="node">
<title>amplihack&#45;reflection</title>
<polygon fill="none" stroke="black" points="2628.5,-36 2517.5,-36 2517.5,0 2628.5,0 2628.5,-36"/>
<text text-anchor="middle" x="2573" y="-20.8" font-family="Times,serif" font-size="9.00">amplihack&#45;reflection</text>
<text text-anchor="middle" x="2573" y="-10.8" font-family="Times,serif" font-size="9.00">~74 pub</text>
</g>
<!-- amplihack&#45;remote -->
<g id="node22" class="node">
<title>amplihack&#45;remote</title>
<polygon fill="none" stroke="black" points="2745.5,-36 2646.5,-36 2646.5,0 2745.5,0 2745.5,-36"/>
<text text-anchor="middle" x="2696" y="-20.8" font-family="Times,serif" font-size="9.00">amplihack&#45;remote</text>
<text text-anchor="middle" x="2696" y="-10.8" font-family="Times,serif" font-size="9.00">~93 pub</text>
</g>
<!-- amplihack&#45;safety -->
<g id="node23" class="node">
<title>amplihack&#45;safety</title>
<polygon fill="none" stroke="black" points="2858,-36 2764,-36 2764,0 2858,0 2858,-36"/>
<text text-anchor="middle" x="2811" y="-20.8" font-family="Times,serif" font-size="9.00">amplihack&#45;safety</text>
<text text-anchor="middle" x="2811" y="-10.8" font-family="Times,serif" font-size="9.00">~16 pub</text>
</g>
<!-- amplihack&#45;security -->
<g id="node24" class="node">
<title>amplihack&#45;security</title>
<polygon fill="none" stroke="black" points="2980,-36 2876,-36 2876,0 2980,0 2980,-36"/>
<text text-anchor="middle" x="2928" y="-20.8" font-family="Times,serif" font-size="9.00">amplihack&#45;security</text>
<text text-anchor="middle" x="2928" y="-10.8" font-family="Times,serif" font-size="9.00">~40 pub</text>
</g>
<!-- amplihack&#45;session -->
<g id="node25" class="node">
<title>amplihack&#45;session</title>
<polygon fill="none" stroke="black" points="3098,-36 2998,-36 2998,0 3098,0 3098,-36"/>
<text text-anchor="middle" x="3048" y="-20.8" font-family="Times,serif" font-size="9.00">amplihack&#45;session</text>
<text text-anchor="middle" x="3048" y="-10.8" font-family="Times,serif" font-size="9.00">~105 pub</text>
</g>
<!-- amplihack&#45;state -->
<g id="node26" class="node">
<title>amplihack&#45;state</title>
<polygon fill="none" stroke="black" points="3205.5,-36 3116.5,-36 3116.5,0 3205.5,0 3205.5,-36"/>
<text text-anchor="middle" x="3161" y="-20.8" font-family="Times,serif" font-size="9.00">amplihack&#45;state</text>
<text text-anchor="middle" x="3161" y="-10.8" font-family="Times,serif" font-size="9.00">~41 pub</text>
</g>
<!-- amplihack&#45;types -->
<g id="node27" class="node">
<title>amplihack&#45;types</title>
<polygon fill="none" stroke="black" points="3316,-36 3224,-36 3224,0 3316,0 3316,-36"/>
<text text-anchor="middle" x="3270" y="-20.8" font-family="Times,serif" font-size="9.00">amplihack&#45;types</text>
<text text-anchor="middle" x="3270" y="-10.8" font-family="Times,serif" font-size="9.00">~38 pub</text>
</g>
<!-- amplihack&#45;utils -->
<g id="node28" class="node">
<title>amplihack&#45;utils</title>
<polygon fill="none" stroke="black" points="3421.5,-36 3334.5,-36 3334.5,0 3421.5,0 3421.5,-36"/>
<text text-anchor="middle" x="3378" y="-20.8" font-family="Times,serif" font-size="9.00">amplihack&#45;utils</text>
<text text-anchor="middle" x="3378" y="-10.8" font-family="Times,serif" font-size="9.00">~340 pub</text>
</g>
<!-- amplihack&#45;workflows -->
<g id="node29" class="node">
<title>amplihack&#45;workflows</title>
<polygon fill="none" stroke="black" points="3552.5,-36 3439.5,-36 3439.5,0 3552.5,0 3552.5,-36"/>
<text text-anchor="middle" x="3496" y="-20.8" font-family="Times,serif" font-size="9.00">amplihack&#45;workflows</text>
<text text-anchor="middle" x="3496" y="-10.8" font-family="Times,serif" font-size="9.00">~110 pub</text>
</g>
</g>
</svg>
