<?xml version="1.0" encoding="UTF-8" standalone="no"?>
<!DOCTYPE svg PUBLIC "-//W3C//DTD SVG 1.1//EN"
 "http://www.w3.org/Graphics/SVG/1.1/DTD/svg11.dtd">
<!-- Generated by graphviz version 2.42.4 (0)
 -->
<!-- Title: repo_surface Pages: 1 -->
<svg width="4758pt" height="207pt"
 viewBox="0.00 0.00 4758.00 207.00" xmlns="http://www.w3.org/2000/svg" xmlns:xlink="http://www.w3.org/1999/xlink">
<g id="graph0" class="graph" transform="scale(1 1) rotate(0) translate(4 203)">
<title>repo_surface</title>
<polygon fill="white" stroke="transparent" points="-4,4 -4,-203 4754,-203 4754,4 -4,4"/>
<g id="clust1" class="cluster">
<title>cluster_root</title>
<polygon fill="none" stroke="black" stroke-dasharray="5,2" points="3947,-114 3947,-191 4308,-191 4308,-114 3947,-114"/>
<text text-anchor="middle" x="4127.5" y="-175.8" font-family="Times,serif" font-size="14.00">Root</text>
</g>
<g id="clust2" class="cluster">
<title>cluster_bins</title>
<polygon fill="none" stroke="black" stroke-dasharray="5,2" points="8,-8 8,-85 474,-85 474,-8 8,-8"/>
<text text-anchor="middle" x="241" y="-69.8" font-family="Times,serif" font-size="14.00">bins/</text>
</g>
<g id="clust3" class="cluster">
<title>cluster_crates</title>
<polygon fill="none" stroke="black" stroke-dasharray="5,2" points="482,-9 482,-84 4294,-84 4294,-9 482,-9"/>
<text text-anchor="middle" x="2388" y="-68.8" font-family="Times,serif" font-size="14.00">crates/ (23 crates)</text>
</g>
<g id="clust4" class="cluster">
<title>cluster_bundle</title>
<polygon fill="none" stroke="black" stroke-dasharray="5,2" points="4316,-115 4316,-190 4742,-190 4742,-115 4316,-115"/>
<text text-anchor="middle" x="4529" y="-174.8" font-family="Times,serif" font-size="14.00">amplifier&#45;bundle/</text>
</g>
<g id="clust5" class="cluster">
<title>cluster_docs</title>
<polygon fill="none" stroke="black" stroke-dasharray="5,2" points="4302,-9 4302,-84 4588,-84 4588,-9 4302,-9"/>
<text text-anchor="middle" x="4445" y="-68.8" font-family="Times,serif" font-size="14.00">docs/</text>
</g>
<!-- Cargo_toml -->
<g id="node1" class="node">
<title>Cargo_toml</title>
<polygon fill="#ffd700" stroke="black" points="4180.5,-160 4079.5,-160 4079.5,-122 4180.5,-122 4180.5,-160"/>
<text text-anchor="middle" x="4130" y="-144.8" font-family="Helvetica,sans-Serif" font-size="14.00">Cargo.toml</text>
<text text-anchor="middle" x="4130" y="-129.8" font-family="Helvetica,sans-Serif" font-size="14.00">(workspace)</text>
</g>
<!-- bin_amplihack -->
<g id="node4" class="node">
<title>bin_amplihack</title>
<polygon fill="#87ceeb" stroke="black" points="466,-54 378,-54 378,-16 466,-16 466,-54"/>
<text text-anchor="middle" x="422" y="-38.8" font-family="Helvetica,sans-Serif" font-size="14.00">amplihack</text>
<text text-anchor="middle" x="422" y="-23.8" font-family="Helvetica,sans-Serif" font-size="14.00">main.rs</text>
</g>
<!-- Cargo_toml&#45;&gt;bin_amplihack -->
<g id="edge1" class="edge">
<title>Cargo_toml&#45;&gt;bin_amplihack</title>
<path fill="none" stroke="black" d="M4095.22,-121.9C4087.44,-118.65 4079.1,-115.74 4071,-114 3973.42,-93.04 571.29,-120.48 478,-85 465.04,-80.07 453.11,-70.66 443.62,-61.4"/>
<polygon fill="black" stroke="black" points="446.02,-58.85 436.55,-54.09 440.98,-63.71 446.02,-58.85"/>
<text text-anchor="middle" x="1508.5" y="-96" font-family="Helvetica,sans-Serif" font-size="10.00">workspace member</text>
</g>
<!-- cli -->
<g id="node7" class="node">
<title>cli</title>
<polygon fill="#98fb98" stroke="black" points="3320,-53 3212,-53 3212,-17 3320,-17 3320,-53"/>
<text text-anchor="middle" x="3266" y="-31.3" font-family="Helvetica,sans-Serif" font-size="14.00">amplihack&#45;cli</text>
</g>
<!-- Cargo_toml&#45;&gt;cli -->
<g id="edge2" class="edge">
<title>Cargo_toml&#45;&gt;cli</title>
<path fill="none" stroke="black" d="M4094.86,-121.96C4087.18,-118.74 4078.96,-115.84 4071,-114 3990.61,-95.43 3406.5,-113.3 3329,-85 3314.44,-79.68 3300.58,-69.66 3289.58,-60.06"/>
<polygon fill="black" stroke="black" points="3291.85,-57.39 3282.11,-53.21 3287.12,-62.55 3291.85,-57.39"/>
<text text-anchor="middle" x="3845.5" y="-96" font-family="Helvetica,sans-Serif" font-size="10.00">workspace member</text>
</g>
<!-- types -->
<g id="node8" class="node">
<title>types</title>
<polygon fill="#98fb98" stroke="black" points="3969.5,-53 3838.5,-53 3838.5,-17 3969.5,-17 3969.5,-53"/>
<text text-anchor="middle" x="3904" y="-31.3" font-family="Helvetica,sans-Serif" font-size="14.00">amplihack&#45;types</text>
</g>
<!-- Cargo_toml&#45;&gt;types -->
<g id="edge3" class="edge">
<title>Cargo_toml&#45;&gt;types</title>
<path fill="none" stroke="black" d="M4093.82,-121.94C4086.42,-118.85 4078.58,-116 4071,-114 4028.67,-102.81 4012.61,-122.64 3973,-104 3952.71,-94.45 3934.84,-76.41 3922.37,-61.31"/>
<polygon fill="black" stroke="black" points="3924.98,-58.95 3916.02,-53.29 3919.49,-63.3 3924.98,-58.95"/>
<text text-anchor="middle" x="4021.5" y="-96" font-family="Helvetica,sans-Serif" font-size="10.00">workspace member</text>
</g>
<!-- state -->
<g id="node9" class="node">
<title>state</title>
<polygon fill="#98fb98" stroke="black" points="4116,-53 3988,-53 3988,-17 4116,-17 4116,-53"/>
<text text-anchor="middle" x="4052" y="-31.3" font-family="Helvetica,sans-Serif" font-size="14.00">amplihack&#45;state</text>
</g>
<!-- Cargo_toml&#45;&gt;state -->
<g id="edge4" class="edge">
<title>Cargo_toml&#45;&gt;state</title>
<path fill="none" stroke="black" d="M4100.06,-121.93C4093.17,-116.77 4086.31,-110.7 4081,-104 4071.41,-91.9 4064.43,-76.15 4059.72,-62.85"/>
<polygon fill="black" stroke="black" points="4063.01,-61.67 4056.56,-53.27 4056.37,-63.86 4063.01,-61.67"/>
<text text-anchor="middle" x="4129.5" y="-96" font-family="Helvetica,sans-Serif" font-size="10.00">workspace member</text>
</g>
<!-- memory -->
<g id="node13" class="node">
<title>memory</title>
<polygon fill="#98fb98" stroke="black" points="4285.5,-53 4134.5,-53 4134.5,-17 4285.5,-17 4285.5,-53"/>
<text text-anchor="middle" x="4210" y="-31.3" font-family="Helvetica,sans-Serif" font-size="14.00">amplihack&#45;memory</text>
</g>
<!-- Cargo_toml&#45;&gt;memory -->
<g id="edge5" class="edge">
<title>Cargo_toml&#45;&gt;memory</title>
<path fill="none" stroke="black" d="M4158.9,-121.89C4165.74,-116.7 4172.61,-110.62 4178,-104 4187.92,-91.83 4195.58,-76.07 4200.92,-62.8"/>
<polygon fill="black" stroke="black" points="4204.27,-63.82 4204.55,-53.23 4197.73,-61.34 4204.27,-63.82"/>
<text text-anchor="middle" x="4233.5" y="-96" font-family="Helvetica,sans-Serif" font-size="10.00">workspace member</text>
</g>
<!-- mkdocs_yml -->
<g id="node2" class="node">
<title>mkdocs_yml</title>
<polygon fill="#e8e8e8" stroke="black" points="4299.5,-159 4198.5,-159 4198.5,-123 4299.5,-123 4299.5,-159"/>
<text text-anchor="middle" x="4249" y="-137.3" font-family="Helvetica,sans-Serif" font-size="14.00">mkdocs.yml</text>
</g>
<!-- docs_howto -->
<g id="node35" class="node">
<title>docs_howto</title>
<polygon fill="#e8e8e8" stroke="black" points="4373.5,-53 4310.5,-53 4310.5,-17 4373.5,-17 4373.5,-53"/>
<text text-anchor="middle" x="4342" y="-31.3" font-family="Helvetica,sans-Serif" font-size="14.00">howto/</text>
</g>
<!-- mkdocs_yml&#45;&gt;docs_howto -->
<g id="edge6" class="edge">
<title>mkdocs_yml&#45;&gt;docs_howto</title>
<path fill="none" stroke="black" d="M4267.46,-122.81C4273.51,-116.98 4280.17,-110.33 4286,-104 4298.57,-90.34 4311.82,-74.34 4322.27,-61.3"/>
<polygon fill="black" stroke="black" points="4325.21,-63.21 4328.69,-53.2 4319.73,-58.86 4325.21,-63.21"/>
</g>
<!-- docs_ref -->
<g id="node36" class="node">
<title>docs_ref</title>
<polygon fill="#e8e8e8" stroke="black" points="4478,-53 4392,-53 4392,-17 4478,-17 4478,-53"/>
<text text-anchor="middle" x="4435" y="-31.3" font-family="Helvetica,sans-Serif" font-size="14.00">reference/</text>
</g>
<!-- mkdocs_yml&#45;&gt;docs_ref -->
<g id="edge7" class="edge">
<title>mkdocs_yml&#45;&gt;docs_ref</title>
<path fill="none" stroke="black" d="M4290.33,-122.92C4297.55,-119.94 4304.99,-116.88 4312,-114 4343.53,-101.05 4354.33,-103.44 4383,-85 4393.65,-78.15 4404.08,-68.97 4412.76,-60.41"/>
<polygon fill="black" stroke="black" points="4415.41,-62.71 4419.91,-53.12 4410.41,-57.81 4415.41,-62.71"/>
</g>
<!-- docs_concepts -->
<g id="node37" class="node">
<title>docs_concepts</title>
<polygon fill="#e8e8e8" stroke="black" points="4579.5,-53 4496.5,-53 4496.5,-17 4579.5,-17 4579.5,-53"/>
<text text-anchor="middle" x="4538" y="-31.3" font-family="Helvetica,sans-Serif" font-size="14.00">concepts/</text>
</g>
<!-- mkdocs_yml&#45;&gt;docs_concepts -->
<g id="edge8" class="edge">
<title>mkdocs_yml&#45;&gt;docs_concepts</title>
<path fill="none" stroke="black" d="M4286.48,-122.9C4294.76,-119.59 4303.58,-116.4 4312,-114 4387.82,-92.38 4416.53,-120.34 4487,-85 4498.55,-79.21 4509.21,-69.91 4517.78,-60.95"/>
<polygon fill="black" stroke="black" points="4520.61,-63.03 4524.73,-53.27 4515.42,-58.34 4520.61,-63.03"/>
</g>
<!-- package_json -->
<g id="node3" class="node">
<title>package_json</title>
<polygon fill="#e8e8e8" stroke="black" points="4061.5,-159 3954.5,-159 3954.5,-123 4061.5,-123 4061.5,-159"/>
<text text-anchor="middle" x="4008" y="-137.3" font-family="Helvetica,sans-Serif" font-size="14.00">package.json</text>
</g>
<!-- bin_asset_resolver -->
<g id="node5" class="node">
<title>bin_asset_resolver</title>
<polygon fill="#87ceeb" stroke="black" points="359.5,-53 168.5,-53 168.5,-17 359.5,-17 359.5,-53"/>
<text text-anchor="middle" x="264" y="-31.3" font-family="Helvetica,sans-Serif" font-size="14.00">amplihack&#45;asset&#45;resolver</text>
</g>
<!-- bin_hooks -->
<g id="node6" class="node">
<title>bin_hooks</title>
<polygon fill="#87ceeb" stroke="black" points="150,-53 16,-53 16,-17 150,-17 150,-53"/>
<text text-anchor="middle" x="83" y="-31.3" font-family="Helvetica,sans-Serif" font-size="14.00">amplihack&#45;hooks</text>
</g>
<!-- security -->
<g id="node10" class="node">
<title>security</title>
<polygon fill="#98fb98" stroke="black" points="3820.5,-53 3671.5,-53 3671.5,-17 3820.5,-17 3820.5,-53"/>
<text text-anchor="middle" x="3746" y="-31.3" font-family="Helvetica,sans-Serif" font-size="14.00">amplihack&#45;security</text>
</g>
<!-- workflows -->
<g id="node11" class="node">
<title>workflows</title>
<polygon fill="#98fb98" stroke="black" points="3653.5,-53 3490.5,-53 3490.5,-17 3653.5,-17 3653.5,-53"/>
<text text-anchor="middle" x="3572" y="-31.3" font-family="Helvetica,sans-Serif" font-size="14.00">amplihack&#45;workflows</text>
</g>
<!-- hooks -->
<g id="node12" class="node">
<title>hooks</title>
<polygon fill="#98fb98" stroke="black" points="3472,-53 3338,-53 3338,-17 3472,-17 3472,-53"/>
<text text-anchor="middle" x="3405" y="-31.3" font-family="Helvetica,sans-Serif" font-size="14.00">amplihack&#45;hooks</text>
</g>
<!-- recipe -->
<g id="node14" class="node">
<title>recipe</title>
<polygon fill="#98fb98" stroke="black" points="3193.5,-53 3058.5,-53 3058.5,-17 3193.5,-17 3193.5,-53"/>
<text text-anchor="middle" x="3126" y="-31.3" font-family="Helvetica,sans-Serif" font-size="14.00">amplihack&#45;recipe</text>
</g>
<!-- launcher -->
<g id="node15" class="node">
<title>launcher</title>
<polygon fill="#98fb98" stroke="black" points="3040,-53 2886,-53 2886,-17 3040,-17 3040,-53"/>
<text text-anchor="middle" x="2963" y="-31.3" font-family="Helvetica,sans-Serif" font-size="14.00">amplihack&#45;launcher</text>
</g>
<!-- fleet -->
<g id="node16" class="node">
<title>fleet</title>
<polygon fill="#98fb98" stroke="black" points="2868,-53 2744,-53 2744,-17 2868,-17 2868,-53"/>
<text text-anchor="middle" x="2806" y="-31.3" font-family="Helvetica,sans-Serif" font-size="14.00">amplihack&#45;fleet</text>
</g>
<!-- agent_core -->
<g id="node17" class="node">
<title>agent_core</title>
<polygon fill="#98fb98" stroke="black" points="2726.5,-53 2559.5,-53 2559.5,-17 2726.5,-17 2726.5,-53"/>
<text text-anchor="middle" x="2643" y="-31.3" font-family="Helvetica,sans-Serif" font-size="14.00">amplihack&#45;agent&#45;core</text>
</g>
<!-- agent_eval -->
<g id="node18" class="node">
<title>agent_eval</title>
<polygon fill="#98fb98" stroke="black" points="2541.5,-53 2374.5,-53 2374.5,-17 2541.5,-17 2541.5,-53"/>
<text text-anchor="middle" x="2458" y="-31.3" font-family="Helvetica,sans-Serif" font-size="14.00">amplihack&#45;agent&#45;eval</text>
</g>
<!-- agent_gen -->
<g id="node19" class="node">
<title>agent_gen</title>
<polygon fill="#98fb98" stroke="black" points="2356,-53 2150,-53 2150,-17 2356,-17 2356,-53"/>
<text text-anchor="middle" x="2253" y="-31.3" font-family="Helvetica,sans-Serif" font-size="14.00">amplihack&#45;agent&#45;generator</text>
</g>
<!-- domain_agents -->
<g id="node20" class="node">
<title>domain_agents</title>
<polygon fill="#98fb98" stroke="black" points="2131.5,-53 1934.5,-53 1934.5,-17 2131.5,-17 2131.5,-53"/>
<text text-anchor="middle" x="2033" y="-31.3" font-family="Helvetica,sans-Serif" font-size="14.00">amplihack&#45;domain&#45;agents</text>
</g>
<!-- hive -->
<g id="node21" class="node">
<title>hive</title>
<polygon fill="#98fb98" stroke="black" points="1916,-53 1794,-53 1794,-17 1916,-17 1916,-53"/>
<text text-anchor="middle" x="1855" y="-31.3" font-family="Helvetica,sans-Serif" font-size="14.00">amplihack&#45;hive</text>
</g>
<!-- blarify -->
<g id="node22" class="node">
<title>blarify</title>
<polygon fill="#98fb98" stroke="black" points="1775.5,-53 1638.5,-53 1638.5,-17 1775.5,-17 1775.5,-53"/>
<text text-anchor="middle" x="1707" y="-31.3" font-family="Helvetica,sans-Serif" font-size="14.00">amplihack&#45;blarify</text>
</g>
<!-- multilspy -->
<g id="node23" class="node">
<title>multilspy</title>
<polygon fill="#98fb98" stroke="black" points="1620.5,-53 1463.5,-53 1463.5,-17 1620.5,-17 1620.5,-53"/>
<text text-anchor="middle" x="1542" y="-31.3" font-family="Helvetica,sans-Serif" font-size="14.00">amplihack&#45;multilspy</text>
</g>
<!-- context -->
<g id="node24" class="node">
<title>context</title>
<polygon fill="#98fb98" stroke="black" points="1445.5,-53 1300.5,-53 1300.5,-17 1445.5,-17 1445.5,-53"/>
<text text-anchor="middle" x="1373" y="-31.3" font-family="Helvetica,sans-Serif" font-size="14.00">amplihack&#45;context</text>
</g>
<!-- delegation -->
<g id="node25" class="node">
<title>delegation</title>
<polygon fill="#98fb98" stroke="black" points="1282,-53 1116,-53 1116,-17 1282,-17 1282,-53"/>
<text text-anchor="middle" x="1199" y="-31.3" font-family="Helvetica,sans-Serif" font-size="14.00">amplihack&#45;delegation</text>
</g>
<!-- recovery -->
<g id="node26" class="node">
<title>recovery</title>
<polygon fill="#98fb98" stroke="black" points="1097.5,-53 944.5,-53 944.5,-17 1097.5,-17 1097.5,-53"/>
<text text-anchor="middle" x="1021" y="-31.3" font-family="Helvetica,sans-Serif" font-size="14.00">amplihack&#45;recovery</text>
</g>
<!-- remote -->
<g id="node27" class="node">
<title>remote</title>
<polygon fill="#98fb98" stroke="black" points="926,-53 784,-53 784,-17 926,-17 926,-53"/>
<text text-anchor="middle" x="855" y="-31.3" font-family="Helvetica,sans-Serif" font-size="14.00">amplihack&#45;remote</text>
</g>
<!-- safety -->
<g id="node28" class="node">
<title>safety</title>
<polygon fill="#98fb98" stroke="black" points="766,-53 630,-53 630,-17 766,-17 766,-53"/>
<text text-anchor="middle" x="698" y="-31.3" font-family="Helvetica,sans-Serif" font-size="14.00">amplihack&#45;safety</text>
</g>
<!-- utils -->
<g id="node29" class="node">
<title>utils</title>
<polygon fill="#98fb98" stroke="black" points="612,-53 490,-53 490,-17 612,-17 612,-53"/>
<text text-anchor="middle" x="551" y="-31.3" font-family="Helvetica,sans-Serif" font-size="14.00">amplihack&#45;utils</text>
</g>
<!-- bundle_recipes -->
<g id="node30" class="node">
<title>bundle_recipes</title>
<polygon fill="#e8e8e8" stroke="black" points="4733.5,-159 4662.5,-159 4662.5,-123 4733.5,-123 4733.5,-159"/>
<text text-anchor="middle" x="4698" y="-137.3" font-family="Helvetica,sans-Serif" font-size="14.00">recipes/</text>
</g>
<!-- bundle_tools -->
<g id="node31" class="node">
<title>bundle_tools</title>
<polygon fill="#e8e8e8" stroke="black" points="4644,-159 4590,-159 4590,-123 4644,-123 4644,-159"/>
<text text-anchor="middle" x="4617" y="-137.3" font-family="Helvetica,sans-Serif" font-size="14.00">tools/</text>
</g>
<!-- bundle_agents -->
<g id="node32" class="node">
<title>bundle_agents</title>
<polygon fill="#e8e8e8" stroke="black" points="4572,-159 4504,-159 4504,-123 4572,-123 4572,-159"/>
<text text-anchor="middle" x="4538" y="-137.3" font-family="Helvetica,sans-Serif" font-size="14.00">agents/</text>
</g>
<!-- bundle_skills -->
<g id="node33" class="node">
<title>bundle_skills</title>
<polygon fill="#e8e8e8" stroke="black" points="4486,-159 4430,-159 4430,-123 4486,-123 4486,-159"/>
<text text-anchor="middle" x="4458" y="-137.3" font-family="Helvetica,sans-Serif" font-size="14.00">skills/</text>
</g>
<!-- bundle_behaviors -->
<g id="node34" class="node">
<title>bundle_behaviors</title>
<polygon fill="#e8e8e8" stroke="black" points="4412.5,-159 4323.5,-159 4323.5,-123 4412.5,-123 4412.5,-159"/>
<text text-anchor="middle" x="4368" y="-137.3" font-family="Helvetica,sans-Serif" font-size="14.00">behaviors/</text>
</g>
</g>
</svg>
