<?xml version="1.0" encoding="UTF-8" standalone="no"?>
<!DOCTYPE svg PUBLIC "-//W3C//DTD SVG 1.1//EN"
 "http://www.w3.org/Graphics/SVG/1.1/DTD/svg11.dtd">
<!-- Generated by graphviz version 2.42.4 (0)
 -->
<!-- Title: repo_surface Pages: 1 -->
<svg width="3854pt" height="188pt"
 viewBox="0.00 0.00 3853.50 188.00" xmlns="http://www.w3.org/2000/svg" xmlns:xlink="http://www.w3.org/1999/xlink">
<g id="graph0" class="graph" transform="scale(1 1) rotate(0) translate(4 184)">
<title>repo_surface</title>
<polygon fill="white" stroke="transparent" points="-4,4 -4,-184 3849.5,-184 3849.5,4 -4,4"/>
<!-- root -->
<g id="node1" class="node">
<title>root</title>
<polygon fill="none" stroke="black" points="2268.5,-180 2128.5,-180 2128.5,-144 2268.5,-144 2268.5,-180"/>
<text text-anchor="middle" x="2198.5" y="-159.5" font-family="Times,serif" font-size="10.00">amplihack&#45;rs workspace</text>
</g>
<!-- Entry points (bins) -->
<g id="node2" class="node">
<title>Entry points (bins)</title>
<polygon fill="none" stroke="black" points="285.5,-108 282.5,-112 261.5,-112 258.5,-108 173.5,-108 173.5,-72 285.5,-72 285.5,-108"/>
<text text-anchor="middle" x="229.5" y="-87.5" font-family="Times,serif" font-size="10.00">Entry points (bins)</text>
</g>
<!-- root&#45;&gt;Entry points (bins) -->
<g id="edge1" class="edge">
<title>root&#45;&gt;Entry points (bins)</title>
<path fill="none" stroke="black" d="M2128.33,-158.87C1907.35,-152.1 1206.06,-130.24 625.5,-108 509.51,-103.56 374.45,-97.59 295.81,-94.03"/>
<polygon fill="black" stroke="black" points="295.71,-90.53 285.56,-93.57 295.39,-97.52 295.71,-90.53"/>
</g>
<!-- CLI core -->
<g id="node6" class="node">
<title>CLI core</title>
<polygon fill="none" stroke="black" points="694,-108 691,-112 670,-112 667,-108 635,-108 635,-72 694,-72 694,-108"/>
<text text-anchor="middle" x="664.5" y="-87.5" font-family="Times,serif" font-size="10.00">CLI core</text>
</g>
<!-- root&#45;&gt;CLI core -->
<g id="edge5" class="edge">
<title>root&#45;&gt;CLI core</title>
<path fill="none" stroke="black" d="M2128.47,-158.16C1942.48,-150.57 1420.66,-128.95 986.5,-108 884.96,-103.1 765.45,-96.6 704.56,-93.23"/>
<polygon fill="black" stroke="black" points="704.42,-89.72 694.24,-92.66 704.03,-96.71 704.42,-89.72"/>
</g>
<!-- Hooks -->
<g id="node8" class="node">
<title>Hooks</title>
<polygon fill="none" stroke="black" points="1049.5,-108 1046.5,-112 1025.5,-112 1022.5,-108 995.5,-108 995.5,-72 1049.5,-72 1049.5,-108"/>
<text text-anchor="middle" x="1022.5" y="-87.5" font-family="Times,serif" font-size="10.00">Hooks</text>
</g>
<!-- root&#45;&gt;Hooks -->
<g id="edge7" class="edge">
<title>root&#45;&gt;Hooks</title>
<path fill="none" stroke="black" d="M2128.49,-158.32C1965.46,-151.84 1547.85,-133.96 1199.5,-108 1151.17,-104.4 1095.54,-98.82 1059.75,-95.04"/>
<polygon fill="black" stroke="black" points="1060.07,-91.56 1049.76,-93.98 1059.33,-98.52 1060.07,-91.56"/>
</g>
<!-- Agents / AI -->
<g id="node10" class="node">
<title>Agents / AI</title>
<polygon fill="none" stroke="black" points="1282,-108 1279,-112 1258,-112 1255,-108 1209,-108 1209,-72 1282,-72 1282,-108"/>
<text text-anchor="middle" x="1245.5" y="-87.5" font-family="Times,serif" font-size="10.00">Agents / AI</text>
</g>
<!-- root&#45;&gt;Agents / AI -->
<g id="edge9" class="edge">
<title>root&#45;&gt;Agents / AI</title>
<path fill="none" stroke="black" d="M2128.42,-155.85C1943.75,-142.29 1447.32,-105.82 1292.37,-94.44"/>
<polygon fill="black" stroke="black" points="1292.46,-90.94 1282.23,-93.7 1291.95,-97.92 1292.46,-90.94"/>
</g>
<!-- Orchestration &amp; workflows -->
<g id="node18" class="node">
<title>Orchestration &amp; workflows</title>
<polygon fill="none" stroke="black" points="2076.5,-108 2073.5,-112 2052.5,-112 2049.5,-108 1924.5,-108 1924.5,-72 2076.5,-72 2076.5,-108"/>
<text text-anchor="middle" x="2000.5" y="-87.5" font-family="Times,serif" font-size="10.00">Orchestration &amp; workflows</text>
</g>
<!-- root&#45;&gt;Orchestration &amp; workflows -->
<g id="edge17" class="edge">
<title>root&#45;&gt;Orchestration &amp; workflows</title>
<path fill="none" stroke="black" d="M2150.32,-143.97C2122.65,-134.19 2087.72,-121.84 2058.55,-111.52"/>
<polygon fill="black" stroke="black" points="2059.49,-108.14 2048.9,-108.11 2057.16,-114.74 2059.49,-108.14"/>
</g>
<!-- State / memory / session -->
<g id="node23" class="node">
<title>State / memory / session</title>
<polygon fill="none" stroke="black" points="2466.5,-108 2463.5,-112 2442.5,-112 2439.5,-108 2326.5,-108 2326.5,-72 2466.5,-72 2466.5,-108"/>
<text text-anchor="middle" x="2396.5" y="-87.5" font-family="Times,serif" font-size="10.00">State / memory / session</text>
</g>
<!-- root&#45;&gt;State / memory / session -->
<g id="edge22" class="edge">
<title>root&#45;&gt;State / memory / session</title>
<path fill="none" stroke="black" d="M2246.68,-143.97C2274.35,-134.19 2309.28,-121.84 2338.45,-111.52"/>
<polygon fill="black" stroke="black" points="2339.84,-114.74 2348.1,-108.11 2337.51,-108.14 2339.84,-114.74"/>
</g>
<!-- Launcher &amp; remote -->
<g id="node28" class="node">
<title>Launcher &amp; remote</title>
<polygon fill="none" stroke="black" points="2836.5,-108 2833.5,-112 2812.5,-112 2809.5,-108 2720.5,-108 2720.5,-72 2836.5,-72 2836.5,-108"/>
<text text-anchor="middle" x="2778.5" y="-87.5" font-family="Times,serif" font-size="10.00">Launcher &amp; remote</text>
</g>
<!-- root&#45;&gt;Launcher &amp; remote -->
<g id="edge27" class="edge">
<title>root&#45;&gt;Launcher &amp; remote</title>
<path fill="none" stroke="black" d="M2268.75,-152.52C2380.91,-138.98 2599.07,-112.66 2710.07,-99.26"/>
<polygon fill="black" stroke="black" points="2710.64,-102.72 2720.15,-98.04 2709.8,-95.77 2710.64,-102.72"/>
</g>
<!-- Foundation -->
<g id="node31" class="node">
<title>Foundation</title>
<polygon fill="none" stroke="black" points="3129,-108 3126,-112 3105,-112 3102,-108 3054,-108 3054,-72 3129,-72 3129,-108"/>
<text text-anchor="middle" x="3091.5" y="-87.5" font-family="Times,serif" font-size="10.00">Foundation</text>
</g>
<!-- root&#45;&gt;Foundation -->
<g id="edge30" class="edge">
<title>root&#45;&gt;Foundation</title>
<path fill="none" stroke="black" d="M2268.57,-155.51C2443.44,-141.8 2895.6,-106.36 3043.74,-94.74"/>
<polygon fill="black" stroke="black" points="3044.17,-98.22 3053.87,-93.95 3043.62,-91.24 3044.17,-98.22"/>
</g>
<!-- Security &amp; safety -->
<g id="node35" class="node">
<title>Security &amp; safety</title>
<polygon fill="none" stroke="black" points="3456.5,-108 3453.5,-112 3432.5,-112 3429.5,-108 3352.5,-108 3352.5,-72 3456.5,-72 3456.5,-108"/>
<text text-anchor="middle" x="3404.5" y="-87.5" font-family="Times,serif" font-size="10.00">Security &amp; safety</text>
</g>
<!-- root&#45;&gt;Security &amp; safety -->
<g id="edge34" class="edge">
<title>root&#45;&gt;Security &amp; safety</title>
<path fill="none" stroke="black" d="M2268.6,-157.22C2424.69,-148.75 2812.75,-127.5 3137.5,-108 3207.63,-103.79 3288.09,-98.62 3342.2,-95.09"/>
<polygon fill="black" stroke="black" points="3342.57,-98.58 3352.32,-94.43 3342.12,-91.59 3342.57,-98.58"/>
</g>
<!-- Code analysis -->
<g id="node38" class="node">
<title>Code analysis</title>
<polygon fill="none" stroke="black" points="3698,-108 3695,-112 3674,-112 3671,-108 3611,-108 3611,-72 3698,-72 3698,-108"/>
<text text-anchor="middle" x="3654.5" y="-87.5" font-family="Times,serif" font-size="10.00">Code analysis</text>
</g>
<!-- root&#45;&gt;Code analysis -->
<g id="edge37" class="edge">
<title>root&#45;&gt;Code analysis</title>
<path fill="none" stroke="black" d="M2268.61,-159.25C2460.38,-154.19 3009.66,-138.02 3465.5,-108 3511.02,-105 3562.6,-100.27 3600.36,-96.56"/>
<polygon fill="black" stroke="black" points="3601.02,-100.01 3610.63,-95.55 3600.33,-93.05 3601.02,-100.01"/>
</g>
<!-- amplihack -->
<g id="node3" class="node">
<title>amplihack</title>
<polygon fill="none" stroke="black" points="69,-36 0,-36 0,-32 -4,-32 -4,-28 0,-28 0,-8 -4,-8 -4,-4 0,-4 0,0 69,0 69,-36"/>
<polyline fill="none" stroke="black" points="0,-32 4,-32 4,-28 0,-28 "/>
<polyline fill="none" stroke="black" points="0,-8 4,-8 4,-4 0,-4 "/>
<text text-anchor="middle" x="34.5" y="-15.5" font-family="Times,serif" font-size="10.00">amplihack</text>
</g>
<!-- Entry points (bins)&#45;&gt;amplihack -->
<g id="edge2" class="edge">
<title>Entry points (bins)&#45;&gt;amplihack</title>
<path fill="none" stroke="black" d="M178.99,-71.97C149.33,-61.82 111.16,-48.52 77.5,-36 74.79,-34.99 71.99,-33.93 69.19,-32.85"/>
</g>
<!-- amplihack&#45;hooks&#45;bin -->
<g id="node4" class="node">
<title>amplihack&#45;hooks&#45;bin</title>
<polygon fill="none" stroke="black" points="210,-36 87,-36 87,-32 83,-32 83,-28 87,-28 87,-8 83,-8 83,-4 87,-4 87,0 210,0 210,-36"/>
<polyline fill="none" stroke="black" points="87,-32 91,-32 91,-28 87,-28 "/>
<polyline fill="none" stroke="black" points="87,-8 91,-8 91,-4 87,-4 "/>
<text text-anchor="middle" x="148.5" y="-15.5" font-family="Times,serif" font-size="10.00">amplihack&#45;hooks&#45;bin</text>
</g>
<!-- Entry points (bins)&#45;&gt;amplihack&#45;hooks&#45;bin -->
<g id="edge3" class="edge">
<title>Entry points (bins)&#45;&gt;amplihack&#45;hooks&#45;bin</title>
<path fill="none" stroke="black" d="M209.48,-71.7C196.92,-60.85 180.8,-46.92 168.29,-36.1"/>
</g>
<!-- amplihack&#45;asset&#45;resolver&#45;bin -->
<g id="node5" class="node">
<title>amplihack&#45;asset&#45;resolver&#45;bin</title>
<polygon fill="none" stroke="black" points="392.5,-36 228.5,-36 228.5,-32 224.5,-32 224.5,-28 228.5,-28 228.5,-8 224.5,-8 224.5,-4 228.5,-4 228.5,0 392.5,0 392.5,-36"/>
<polyline fill="none" stroke="black" points="228.5,-32 232.5,-32 232.5,-28 228.5,-28 "/>
<polyline fill="none" stroke="black" points="228.5,-8 232.5,-8 232.5,-4 228.5,-4 "/>
<text text-anchor="middle" x="310.5" y="-15.5" font-family="Times,serif" font-size="10.00">amplihack&#45;asset&#45;resolver&#45;bin</text>
</g>
<!-- Entry points (bins)&#45;&gt;amplihack&#45;asset&#45;resolver&#45;bin -->
<g id="edge4" class="edge">
<title>Entry points (bins)&#45;&gt;amplihack&#45;asset&#45;resolver&#45;bin</title>
<path fill="none" stroke="black" d="M249.52,-71.7C262.08,-60.85 278.2,-46.92 290.71,-36.1"/>
</g>
<!-- amplihack&#45;cli -->
<g id="node7" class="node">
<title>amplihack&#45;cli</title>
<polygon fill="none" stroke="black" points="494.5,-36 491.5,-40 470.5,-40 467.5,-36 410.5,-36 410.5,0 494.5,0 494.5,-36"/>
<text text-anchor="middle" x="452.5" y="-15.5" font-family="Times,serif" font-size="10.00">amplihack&#45;cli</text>
</g>
<!-- CLI core&#45;&gt;amplihack&#45;cli -->
<g id="edge6" class="edge">
<title>CLI core&#45;&gt;amplihack&#45;cli</title>
<path fill="none" stroke="black" d="M634.82,-79.26C602.5,-68.66 549.31,-51.18 503.5,-36 500.58,-35.03 497.56,-34.03 494.52,-33.02"/>
</g>
<!-- amplihack&#45;hooks -->
<g id="node9" class="node">
<title>amplihack&#45;hooks</title>
<polygon fill="none" stroke="black" points="616,-36 613,-40 592,-40 589,-36 513,-36 513,0 616,0 616,-36"/>
<text text-anchor="middle" x="564.5" y="-15.5" font-family="Times,serif" font-size="10.00">amplihack&#45;hooks</text>
</g>
<!-- Hooks&#45;&gt;amplihack&#45;hooks -->
<g id="edge8" class="edge">
<title>Hooks&#45;&gt;amplihack&#45;hooks</title>
<path fill="none" stroke="black" d="M995.33,-86.69C930.73,-80.9 763.1,-64.22 625.5,-36 622.48,-35.38 619.4,-34.7 616.29,-33.96"/>
</g>
<!-- amplihack&#45;agent&#45;core -->
<g id="node11" class="node">
<title>amplihack&#45;agent&#45;core</title>
<polygon fill="none" stroke="black" points="762.5,-36 759.5,-40 738.5,-40 735.5,-36 634.5,-36 634.5,0 762.5,0 762.5,-36"/>
<text text-anchor="middle" x="698.5" y="-15.5" font-family="Times,serif" font-size="10.00">amplihack&#45;agent&#45;core</text>
</g>
<!-- Agents / AI&#45;&gt;amplihack&#45;agent&#45;core -->
<g id="edge10" class="edge">
<title>Agents / AI&#45;&gt;amplihack&#45;agent&#45;core</title>
<path fill="none" stroke="black" d="M1208.99,-85.48C1113.12,-76.14 855.86,-50.49 771.5,-36 768.55,-35.49 765.54,-34.94 762.51,-34.35"/>
</g>
<!-- amplihack&#45;agent&#45;eval -->
<g id="node12" class="node">
<title>amplihack&#45;agent&#45;eval</title>
<polygon fill="none" stroke="black" points="908,-36 905,-40 884,-40 881,-36 781,-36 781,0 908,0 908,-36"/>
<text text-anchor="middle" x="844.5" y="-15.5" font-family="Times,serif" font-size="10.00">amplihack&#45;agent&#45;eval</text>
</g>
<!-- Agents / AI&#45;&gt;amplihack&#45;agent&#45;eval -->
<g id="edge11" class="edge">
<title>Agents / AI&#45;&gt;amplihack&#45;agent&#45;eval</title>
<path fill="none" stroke="black" d="M1208.95,-83.93C1148.22,-75.32 1022.77,-56.74 917.5,-36 914.44,-35.4 911.3,-34.76 908.15,-34.09"/>
</g>
<!-- amplihack&#45;agent&#45;generator -->
<g id="node13" class="node">
<title>amplihack&#45;agent&#45;generator</title>
<polygon fill="none" stroke="black" points="1082.5,-36 1079.5,-40 1058.5,-40 1055.5,-36 926.5,-36 926.5,0 1082.5,0 1082.5,-36"/>
<text text-anchor="middle" x="1004.5" y="-15.5" font-family="Times,serif" font-size="10.00">amplihack&#45;agent&#45;generator</text>
</g>
<!-- Agents / AI&#45;&gt;amplihack&#45;agent&#45;generator -->
<g id="edge12" class="edge">
<title>Agents / AI&#45;&gt;amplihack&#45;agent&#45;generator</title>
<path fill="none" stroke="black" d="M1208.9,-78.37C1170.18,-67.12 1108.54,-49.22 1063.06,-36.01"/>
</g>
<!-- amplihack&#45;domain&#45;agents -->
<g id="node14" class="node">
<title>amplihack&#45;domain&#45;agents</title>
<polygon fill="none" stroke="black" points="1250,-36 1247,-40 1226,-40 1223,-36 1101,-36 1101,0 1250,0 1250,-36"/>
<text text-anchor="middle" x="1175.5" y="-15.5" font-family="Times,serif" font-size="10.00">amplihack&#45;domain&#45;agents</text>
</g>
<!-- Agents / AI&#45;&gt;amplihack&#45;domain&#45;agents -->
<g id="edge13" class="edge">
<title>Agents / AI&#45;&gt;amplihack&#45;domain&#45;agents</title>
<path fill="none" stroke="black" d="M1228.2,-71.7C1217.35,-60.85 1203.42,-46.92 1192.6,-36.1"/>
</g>
<!-- amplihack&#45;hive -->
<g id="node15" class="node">
<title>amplihack&#45;hive</title>
<polygon fill="none" stroke="black" points="1363,-36 1360,-40 1339,-40 1336,-36 1268,-36 1268,0 1363,0 1363,-36"/>
<text text-anchor="middle" x="1315.5" y="-15.5" font-family="Times,serif" font-size="10.00">amplihack&#45;hive</text>
</g>
<!-- Agents / AI&#45;&gt;amplihack&#45;hive -->
<g id="edge14" class="edge">
<title>Agents / AI&#45;&gt;amplihack&#45;hive</title>
<path fill="none" stroke="black" d="M1262.8,-71.7C1273.65,-60.85 1287.58,-46.92 1298.4,-36.1"/>
</g>
<!-- amplihack&#45;delegation -->
<g id="node16" class="node">
<title>amplihack&#45;delegation</title>
<polygon fill="none" stroke="black" points="1508,-36 1505,-40 1484,-40 1481,-36 1381,-36 1381,0 1508,0 1508,-36"/>
<text text-anchor="middle" x="1444.5" y="-15.5" font-family="Times,serif" font-size="10.00">amplihack&#45;delegation</text>
</g>
<!-- Agents / AI&#45;&gt;amplihack&#45;delegation -->
<g id="edge15" class="edge">
<title>Agents / AI&#45;&gt;amplihack&#45;delegation</title>
<path fill="none" stroke="black" d="M1282.46,-76C1314.5,-64.73 1361.08,-48.35 1396.08,-36.03"/>
</g>
<!-- amplihack&#45;fleet -->
<g id="node17" class="node">
<title>amplihack&#45;fleet</title>
<polygon fill="none" stroke="black" points="1621,-36 1618,-40 1597,-40 1594,-36 1526,-36 1526,0 1621,0 1621,-36"/>
<text text-anchor="middle" x="1573.5" y="-15.5" font-family="Times,serif" font-size="10.00">amplihack&#45;fleet</text>
</g>
<!-- Agents / AI&#45;&gt;amplihack&#45;fleet -->
<g id="edge16" class="edge">
<title>Agents / AI&#45;&gt;amplihack&#45;fleet</title>
<path fill="none" stroke="black" d="M1282.13,-83C1334.44,-74.16 1433.41,-56.46 1516.5,-36 1519.51,-35.26 1522.59,-34.46 1525.7,-33.62"/>
</g>
<!-- amplihack&#45;orchestration -->
<g id="node19" class="node">
<title>amplihack&#45;orchestration</title>
<polygon fill="none" stroke="black" points="1779.5,-36 1776.5,-40 1755.5,-40 1752.5,-36 1639.5,-36 1639.5,0 1779.5,0 1779.5,-36"/>
<text text-anchor="middle" x="1709.5" y="-15.5" font-family="Times,serif" font-size="10.00">amplihack&#45;orchestration</text>
</g>
<!-- Orchestration &amp; workflows&#45;&gt;amplihack&#45;orchestration -->
<g id="edge18" class="edge">
<title>Orchestration &amp; workflows&#45;&gt;amplihack&#45;orchestration</title>
<path fill="none" stroke="black" d="M1929.69,-71.97C1884.09,-61 1825.08,-46.8 1779.62,-35.87"/>
</g>
<!-- amplihack&#45;workflows -->
<g id="node20" class="node">
<title>amplihack&#45;workflows</title>
<polygon fill="none" stroke="black" points="1921.5,-36 1918.5,-40 1897.5,-40 1894.5,-36 1797.5,-36 1797.5,0 1921.5,0 1921.5,-36"/>
<text text-anchor="middle" x="1859.5" y="-15.5" font-family="Times,serif" font-size="10.00">amplihack&#45;workflows</text>
</g>
<!-- Orchestration &amp; workflows&#45;&gt;amplihack&#45;workflows -->
<g id="edge19" class="edge">
<title>Orchestration &amp; workflows&#45;&gt;amplihack&#45;workflows</title>
<path fill="none" stroke="black" d="M1966.01,-71.88C1944.16,-61.03 1916,-47.05 1894.13,-36.19"/>
</g>
<!-- amplihack&#45;reflection -->
<g id="node21" class="node">
<title>amplihack&#45;reflection</title>
<polygon fill="none" stroke="black" points="2061,-36 2058,-40 2037,-40 2034,-36 1940,-36 1940,0 2061,0 2061,-36"/>
<text text-anchor="middle" x="2000.5" y="-15.5" font-family="Times,serif" font-size="10.00">amplihack&#45;reflection</text>
</g>
<!-- Orchestration &amp; workflows&#45;&gt;amplihack&#45;reflection -->
<g id="edge20" class="edge">
<title>Orchestration &amp; workflows&#45;&gt;amplihack&#45;reflection</title>
<path fill="none" stroke="black" d="M2000.5,-71.7C2000.5,-60.85 2000.5,-46.92 2000.5,-36.1"/>
</g>
<!-- amplihack&#45;recovery -->
<g id="node22" class="node">
<title>amplihack&#45;recovery</title>
<polygon fill="none" stroke="black" points="2196,-36 2193,-40 2172,-40 2169,-36 2079,-36 2079,0 2196,0 2196,-36"/>
<text text-anchor="middle" x="2137.5" y="-15.5" font-family="Times,serif" font-size="10.00">amplihack&#45;recovery</text>
</g>
<!-- Orchestration &amp; workflows&#45;&gt;amplihack&#45;recovery -->
<g id="edge21" class="edge">
<title>Orchestration &amp; workflows&#45;&gt;amplihack&#45;recovery</title>
<path fill="none" stroke="black" d="M2034.01,-71.88C2055.24,-61.03 2082.6,-47.05 2103.86,-36.19"/>
</g>
<!-- amplihack&#45;memory -->
<g id="node24" class="node">
<title>amplihack&#45;memory</title>
<polygon fill="none" stroke="black" points="2329,-36 2326,-40 2305,-40 2302,-36 2214,-36 2214,0 2329,0 2329,-36"/>
<text text-anchor="middle" x="2271.5" y="-15.5" font-family="Times,serif" font-size="10.00">amplihack&#45;memory</text>
</g>
<!-- State / memory / session&#45;&gt;amplihack&#45;memory -->
<g id="edge23" class="edge">
<title>State / memory / session&#45;&gt;amplihack&#45;memory</title>
<path fill="none" stroke="black" d="M2365.92,-71.88C2346.55,-61.03 2321.59,-47.05 2302.2,-36.19"/>
</g>
<!-- amplihack&#45;state -->
<g id="node25" class="node">
<title>amplihack&#45;state</title>
<polygon fill="none" stroke="black" points="2445.5,-36 2442.5,-40 2421.5,-40 2418.5,-36 2347.5,-36 2347.5,0 2445.5,0 2445.5,-36"/>
<text text-anchor="middle" x="2396.5" y="-15.5" font-family="Times,serif" font-size="10.00">amplihack&#45;state</text>
</g>
<!-- State / memory / session&#45;&gt;amplihack&#45;state -->
<g id="edge24" class="edge">
<title>State / memory / session&#45;&gt;amplihack&#45;state</title>
<path fill="none" stroke="black" d="M2396.5,-71.7C2396.5,-60.85 2396.5,-46.92 2396.5,-36.1"/>
</g>
<!-- amplihack&#45;session -->
<g id="node26" class="node">
<title>amplihack&#45;session</title>
<polygon fill="none" stroke="black" points="2573.5,-36 2570.5,-40 2549.5,-40 2546.5,-36 2463.5,-36 2463.5,0 2573.5,0 2573.5,-36"/>
<text text-anchor="middle" x="2518.5" y="-15.5" font-family="Times,serif" font-size="10.00">amplihack&#45;session</text>
</g>
<!-- State / memory / session&#45;&gt;amplihack&#45;session -->
<g id="edge25" class="edge">
<title>State / memory / session&#45;&gt;amplihack&#45;session</title>
<path fill="none" stroke="black" d="M2426.34,-71.88C2445.25,-61.03 2469.61,-47.05 2488.54,-36.19"/>
</g>
<!-- amplihack&#45;context -->
<g id="node27" class="node">
<title>amplihack&#45;context</title>
<polygon fill="none" stroke="black" points="2701.5,-36 2698.5,-40 2677.5,-40 2674.5,-36 2591.5,-36 2591.5,0 2701.5,0 2701.5,-36"/>
<text text-anchor="middle" x="2646.5" y="-15.5" font-family="Times,serif" font-size="10.00">amplihack&#45;context</text>
</g>
<!-- State / memory / session&#45;&gt;amplihack&#45;context -->
<g id="edge26" class="edge">
<title>State / memory / session&#45;&gt;amplihack&#45;context</title>
<path fill="none" stroke="black" d="M2457.34,-71.97C2498.24,-60.51 2551.72,-45.54 2591.37,-34.44"/>
</g>
<!-- amplihack&#45;launcher -->
<g id="node29" class="node">
<title>amplihack&#45;launcher</title>
<polygon fill="none" stroke="black" points="2837.5,-36 2834.5,-40 2813.5,-40 2810.5,-36 2719.5,-36 2719.5,0 2837.5,0 2837.5,-36"/>
<text text-anchor="middle" x="2778.5" y="-15.5" font-family="Times,serif" font-size="10.00">amplihack&#45;launcher</text>
</g>
<!-- Launcher &amp; remote&#45;&gt;amplihack&#45;launcher -->
<g id="edge28" class="edge">
<title>Launcher &amp; remote&#45;&gt;amplihack&#45;launcher</title>
<path fill="none" stroke="black" d="M2778.5,-71.7C2778.5,-60.85 2778.5,-46.92 2778.5,-36.1"/>
</g>
<!-- amplihack&#45;remote -->
<g id="node30" class="node">
<title>amplihack&#45;remote</title>
<polygon fill="none" stroke="black" points="2965,-36 2962,-40 2941,-40 2938,-36 2856,-36 2856,0 2965,0 2965,-36"/>
<text text-anchor="middle" x="2910.5" y="-15.5" font-family="Times,serif" font-size="10.00">amplihack&#45;remote</text>
</g>
<!-- Launcher &amp; remote&#45;&gt;amplihack&#45;remote -->
<g id="edge29" class="edge">
<title>Launcher &amp; remote&#45;&gt;amplihack&#45;remote</title>
<path fill="none" stroke="black" d="M2810.79,-71.88C2831.25,-61.03 2857.61,-47.05 2878.09,-36.19"/>
</g>
<!-- amplihack&#45;types -->
<g id="node32" class="node">
<title>amplihack&#45;types</title>
<polygon fill="none" stroke="black" points="3084,-36 3081,-40 3060,-40 3057,-36 2983,-36 2983,0 3084,0 3084,-36"/>
<text text-anchor="middle" x="3033.5" y="-15.5" font-family="Times,serif" font-size="10.00">amplihack&#45;types</text>
</g>
<!-- Foundation&#45;&gt;amplihack&#45;types -->
<g id="edge31" class="edge">
<title>Foundation&#45;&gt;amplihack&#45;types</title>
<path fill="none" stroke="black" d="M3077.16,-71.7C3068.17,-60.85 3056.63,-46.92 3047.67,-36.1"/>
</g>
<!-- amplihack&#45;utils -->
<g id="node33" class="node">
<title>amplihack&#45;utils</title>
<polygon fill="none" stroke="black" points="3197,-36 3194,-40 3173,-40 3170,-36 3102,-36 3102,0 3197,0 3197,-36"/>
<text text-anchor="middle" x="3149.5" y="-15.5" font-family="Times,serif" font-size="10.00">amplihack&#45;utils</text>
</g>
<!-- Foundation&#45;&gt;amplihack&#45;utils -->
<g id="edge32" class="edge">
<title>Foundation&#45;&gt;amplihack&#45;utils</title>
<path fill="none" stroke="black" d="M3105.84,-71.7C3114.83,-60.85 3126.37,-46.92 3135.33,-36.1"/>
</g>
<!-- amplihack&#45;builders -->
<g id="node34" class="node">
<title>amplihack&#45;builders</title>
<polygon fill="none" stroke="black" points="3330,-36 3327,-40 3306,-40 3303,-36 3215,-36 3215,0 3330,0 3330,-36"/>
<text text-anchor="middle" x="3272.5" y="-15.5" font-family="Times,serif" font-size="10.00">amplihack&#45;builders</text>
</g>
<!-- Foundation&#45;&gt;amplihack&#45;builders -->
<g id="edge33" class="edge">
<title>Foundation&#45;&gt;amplihack&#45;builders</title>
<path fill="none" stroke="black" d="M3129,-74.5C3157.89,-63.32 3197.91,-47.85 3228.34,-36.08"/>
</g>
<!-- amplihack&#45;security -->
<g id="node36" class="node">
<title>amplihack&#45;security</title>
<polygon fill="none" stroke="black" points="3461,-36 3458,-40 3437,-40 3434,-36 3348,-36 3348,0 3461,0 3461,-36"/>
<text text-anchor="middle" x="3404.5" y="-15.5" font-family="Times,serif" font-size="10.00">amplihack&#45;security</text>
</g>
<!-- Security &amp; safety&#45;&gt;amplihack&#45;security -->
<g id="edge35" class="edge">
<title>Security &amp; safety&#45;&gt;amplihack&#45;security</title>
<path fill="none" stroke="black" d="M3404.5,-71.7C3404.5,-60.85 3404.5,-46.92 3404.5,-36.1"/>
</g>
<!-- amplihack&#45;safety -->
<g id="node37" class="node">
<title>amplihack&#45;safety</title>
<polygon fill="none" stroke="black" points="3583.5,-36 3580.5,-40 3559.5,-40 3556.5,-36 3479.5,-36 3479.5,0 3583.5,0 3583.5,-36"/>
<text text-anchor="middle" x="3531.5" y="-15.5" font-family="Times,serif" font-size="10.00">amplihack&#45;safety</text>
</g>
<!-- Security &amp; safety&#45;&gt;amplihack&#45;safety -->
<g id="edge36" class="edge">
<title>Security &amp; safety&#45;&gt;amplihack&#45;safety</title>
<path fill="none" stroke="black" d="M3435.57,-71.88C3455.25,-61.03 3480.61,-47.05 3500.31,-36.19"/>
</g>
<!-- amplihack&#45;blarify -->
<g id="node39" class="node">
<title>amplihack&#45;blarify</title>
<polygon fill="none" stroke="black" points="3707.5,-36 3704.5,-40 3683.5,-40 3680.5,-36 3601.5,-36 3601.5,0 3707.5,0 3707.5,-36"/>
<text text-anchor="middle" x="3654.5" y="-15.5" font-family="Times,serif" font-size="10.00">amplihack&#45;blarify</text>
</g>
<!-- Code analysis&#45;&gt;amplihack&#45;blarify -->
<g id="edge38" class="edge">
<title>Code analysis&#45;&gt;amplihack&#45;blarify</title>
<path fill="none" stroke="black" d="M3654.5,-71.7C3654.5,-60.85 3654.5,-46.92 3654.5,-36.1"/>
</g>
<!-- amplihack&#45;multilspy -->
<g id="node40" class="node">
<title>amplihack&#45;multilspy</title>
<polygon fill="none" stroke="black" points="3845.5,-36 3842.5,-40 3821.5,-40 3818.5,-36 3725.5,-36 3725.5,0 3845.5,0 3845.5,-36"/>
<text text-anchor="middle" x="3785.5" y="-15.5" font-family="Times,serif" font-size="10.00">amplihack&#45;multilspy</text>
</g>
<!-- Code analysis&#45;&gt;amplihack&#45;multilspy -->
<g id="edge39" class="edge">
<title>Code analysis&#45;&gt;amplihack&#45;multilspy</title>
<path fill="none" stroke="black" d="M3686.55,-71.88C3706.85,-61.03 3733.01,-47.05 3753.33,-36.19"/>
</g>
</g>
</svg>
