<?xml version="1.0" encoding="UTF-8" standalone="no"?>
<!DOCTYPE svg PUBLIC "-//W3C//DTD SVG 1.1//EN"
 "http://www.w3.org/Graphics/SVG/1.1/DTD/svg11.dtd">
<!-- Generated by graphviz version 2.42.4 (0)
 -->
<!-- Title: components Pages: 1 -->
<svg width="157pt" height="1556pt"
 viewBox="0.00 0.00 157.00 1556.00" xmlns="http://www.w3.org/2000/svg" xmlns:xlink="http://www.w3.org/1999/xlink">
<g id="graph0" class="graph" transform="scale(1 1) rotate(0) translate(4 1552)">
<title>components</title>
<polygon fill="white" stroke="transparent" points="-4,4 -4,-1552 153,-1552 153,4 -4,4"/>
<!-- amplihack -->
<g id="node1" class="node">
<title>amplihack</title>
<polygon fill="none" stroke="black" points="106.5,-36 42.5,-36 42.5,0 106.5,0 106.5,-36"/>
<text text-anchor="middle" x="74.5" y="-20.8" font-family="Times,serif" font-size="9.00">amplihack</text>
<text text-anchor="middle" x="74.5" y="-10.8" font-family="Times,serif" font-size="9.00">1 modules</text>
</g>
<!-- amplihack&#45;agent&#45;core -->
<g id="node2" class="node">
<title>amplihack&#45;agent&#45;core</title>
<polygon fill="none" stroke="black" points="132.5,-90 16.5,-90 16.5,-54 132.5,-54 132.5,-90"/>
<text text-anchor="middle" x="74.5" y="-74.8" font-family="Times,serif" font-size="9.00">amplihack&#45;agent&#45;core</text>
<text text-anchor="middle" x="74.5" y="-64.8" font-family="Times,serif" font-size="9.00">33 modules</text>
</g>
<!-- amplihack&#45;agent&#45;eval -->
<g id="node3" class="node">
<title>amplihack&#45;agent&#45;eval</title>
<polygon fill="none" stroke="black" points="132,-144 17,-144 17,-108 132,-108 132,-144"/>
<text text-anchor="middle" x="74.5" y="-128.8" font-family="Times,serif" font-size="9.00">amplihack&#45;agent&#45;eval</text>
<text text-anchor="middle" x="74.5" y="-118.8" font-family="Times,serif" font-size="9.00">35 modules</text>
</g>
<!-- amplihack&#45;agent&#45;generator -->
<g id="node4" class="node">
<title>amplihack&#45;agent&#45;generator</title>
<polygon fill="none" stroke="black" points="145.5,-198 3.5,-198 3.5,-162 145.5,-162 145.5,-198"/>
<text text-anchor="middle" x="74.5" y="-182.8" font-family="Times,serif" font-size="9.00">amplihack&#45;agent&#45;generator</text>
<text text-anchor="middle" x="74.5" y="-172.8" font-family="Times,serif" font-size="9.00">13 modules</text>
</g>
<!-- amplihack&#45;asset&#45;resolver&#45;bin -->
<g id="node5" class="node">
<title>amplihack&#45;asset&#45;resolver&#45;bin</title>
<polygon fill="none" stroke="black" points="149,-252 0,-252 0,-216 149,-216 149,-252"/>
<text text-anchor="middle" x="74.5" y="-236.8" font-family="Times,serif" font-size="9.00">amplihack&#45;asset&#45;resolver&#45;bin</text>
<text text-anchor="middle" x="74.5" y="-226.8" font-family="Times,serif" font-size="9.00">0 modules</text>
</g>
<!-- amplihack&#45;blarify -->
<g id="node6" class="node">
<title>amplihack&#45;blarify</title>
<polygon fill="none" stroke="black" points="123,-306 26,-306 26,-270 123,-270 123,-306"/>
<text text-anchor="middle" x="74.5" y="-290.8" font-family="Times,serif" font-size="9.00">amplihack&#45;blarify</text>
<text text-anchor="middle" x="74.5" y="-280.8" font-family="Times,serif" font-size="9.00">10 modules</text>
</g>
<!-- amplihack&#45;builders -->
<g id="node7" class="node">
<title>amplihack&#45;builders</title>
<polygon fill="none" stroke="black" points="127,-360 22,-360 22,-324 127,-324 127,-360"/>
<text text-anchor="middle" x="74.5" y="-344.8" font-family="Times,serif" font-size="9.00">amplihack&#45;builders</text>
<text text-anchor="middle" x="74.5" y="-334.8" font-family="Times,serif" font-size="9.00">3 modules</text>
</g>
<!-- amplihack&#45;cli -->
<g id="node8" class="node">
<title>amplihack&#45;cli</title>
<polygon fill="none" stroke="black" points="113.5,-414 35.5,-414 35.5,-378 113.5,-378 113.5,-414"/>
<text text-anchor="middle" x="74.5" y="-398.8" font-family="Times,serif" font-size="9.00">amplihack&#45;cli</text>
<text text-anchor="middle" x="74.5" y="-388.8" font-family="Times,serif" font-size="9.00">46 modules</text>
</g>
<!-- amplihack&#45;context -->
<g id="node9" class="node">
<title>amplihack&#45;context</title>
<polygon fill="none" stroke="black" points="125,-468 24,-468 24,-432 125,-432 125,-468"/>
<text text-anchor="middle" x="74.5" y="-452.8" font-family="Times,serif" font-size="9.00">amplihack&#45;context</text>
<text text-anchor="middle" x="74.5" y="-442.8" font-family="Times,serif" font-size="9.00">6 modules</text>
</g>
<!-- amplihack&#45;delegation -->
<g id="node10" class="node">
<title>amplihack&#45;delegation</title>
<polygon fill="none" stroke="black" points="132.5,-522 16.5,-522 16.5,-486 132.5,-486 132.5,-522"/>
<text text-anchor="middle" x="74.5" y="-506.8" font-family="Times,serif" font-size="9.00">amplihack&#45;delegation</text>
<text text-anchor="middle" x="74.5" y="-496.8" font-family="Times,serif" font-size="9.00">9 modules</text>
</g>
<!-- amplihack&#45;domain&#45;agents -->
<g id="node11" class="node">
<title>amplihack&#45;domain&#45;agents</title>
<polygon fill="none" stroke="black" points="141.5,-576 7.5,-576 7.5,-540 141.5,-540 141.5,-576"/>
<text text-anchor="middle" x="74.5" y="-560.8" font-family="Times,serif" font-size="9.00">amplihack&#45;domain&#45;agents</text>
<text text-anchor="middle" x="74.5" y="-550.8" font-family="Times,serif" font-size="9.00">12 modules</text>
</g>
<!-- amplihack&#45;fleet -->
<g id="node12" class="node">
<title>amplihack&#45;fleet</title>
<polygon fill="none" stroke="black" points="118,-630 31,-630 31,-594 118,-594 118,-630"/>
<text text-anchor="middle" x="74.5" y="-614.8" font-family="Times,serif" font-size="9.00">amplihack&#45;fleet</text>
<text text-anchor="middle" x="74.5" y="-604.8" font-family="Times,serif" font-size="9.00">5 modules</text>
</g>
<!-- amplihack&#45;hive -->
<g id="node13" class="node">
<title>amplihack&#45;hive</title>
<polygon fill="none" stroke="black" points="117.5,-684 31.5,-684 31.5,-648 117.5,-648 117.5,-684"/>
<text text-anchor="middle" x="74.5" y="-668.8" font-family="Times,serif" font-size="9.00">amplihack&#45;hive</text>
<text text-anchor="middle" x="74.5" y="-658.8" font-family="Times,serif" font-size="9.00">21 modules</text>
</g>
<!-- amplihack&#45;hooks -->
<g id="node14" class="node">
<title>amplihack&#45;hooks</title>
<polygon fill="none" stroke="black" points="121,-738 28,-738 28,-702 121,-702 121,-738"/>
<text text-anchor="middle" x="74.5" y="-722.8" font-family="Times,serif" font-size="9.00">amplihack&#45;hooks</text>
<text text-anchor="middle" x="74.5" y="-712.8" font-family="Times,serif" font-size="9.00">20 modules</text>
</g>
<!-- amplihack&#45;hooks&#45;bin -->
<g id="node15" class="node">
<title>amplihack&#45;hooks&#45;bin</title>
<polygon fill="none" stroke="black" points="130,-792 19,-792 19,-756 130,-756 130,-792"/>
<text text-anchor="middle" x="74.5" y="-776.8" font-family="Times,serif" font-size="9.00">amplihack&#45;hooks&#45;bin</text>
<text text-anchor="middle" x="74.5" y="-766.8" font-family="Times,serif" font-size="9.00">0 modules</text>
</g>
<!-- amplihack&#45;launcher -->
<g id="node16" class="node">
<title>amplihack&#45;launcher</title>
<polygon fill="none" stroke="black" points="128.5,-846 20.5,-846 20.5,-810 128.5,-810 128.5,-846"/>
<text text-anchor="middle" x="74.5" y="-830.8" font-family="Times,serif" font-size="9.00">amplihack&#45;launcher</text>
<text text-anchor="middle" x="74.5" y="-820.8" font-family="Times,serif" font-size="9.00">34 modules</text>
</g>
<!-- amplihack&#45;memory -->
<g id="node17" class="node">
<title>amplihack&#45;memory</title>
<polygon fill="none" stroke="black" points="126.5,-900 22.5,-900 22.5,-864 126.5,-864 126.5,-900"/>
<text text-anchor="middle" x="74.5" y="-884.8" font-family="Times,serif" font-size="9.00">amplihack&#45;memory</text>
<text text-anchor="middle" x="74.5" y="-874.8" font-family="Times,serif" font-size="9.00">30 modules</text>
</g>
<!-- amplihack&#45;multilspy -->
<g id="node18" class="node">
<title>amplihack&#45;multilspy</title>
<polygon fill="none" stroke="black" points="129.5,-954 19.5,-954 19.5,-918 129.5,-918 129.5,-954"/>
<text text-anchor="middle" x="74.5" y="-938.8" font-family="Times,serif" font-size="9.00">amplihack&#45;multilspy</text>
<text text-anchor="middle" x="74.5" y="-928.8" font-family="Times,serif" font-size="9.00">6 modules</text>
</g>
<!-- amplihack&#45;orchestration -->
<g id="node19" class="node">
<title>amplihack&#45;orchestration</title>
<polygon fill="none" stroke="black" points="139,-1008 10,-1008 10,-972 139,-972 139,-1008"/>
<text text-anchor="middle" x="74.5" y="-992.8" font-family="Times,serif" font-size="9.00">amplihack&#45;orchestration</text>
<text text-anchor="middle" x="74.5" y="-982.8" font-family="Times,serif" font-size="9.00">8 modules</text>
</g>
<!-- amplihack&#45;recovery -->
<g id="node20" class="node">
<title>amplihack&#45;recovery</title>
<polygon fill="none" stroke="black" points="128,-1062 21,-1062 21,-1026 128,-1026 128,-1062"/>
<text text-anchor="middle" x="74.5" y="-1046.8" font-family="Times,serif" font-size="9.00">amplihack&#45;recovery</text>
<text text-anchor="middle" x="74.5" y="-1036.8" font-family="Times,serif" font-size="9.00">7 modules</text>
</g>
<!-- amplihack&#45;reflection -->
<g id="node21" class="node">
<title>amplihack&#45;reflection</title>
<polygon fill="none" stroke="black" points="130,-1116 19,-1116 19,-1080 130,-1080 130,-1116"/>
<text text-anchor="middle" x="74.5" y="-1100.8" font-family="Times,serif" font-size="9.00">amplihack&#45;reflection</text>
<text text-anchor="middle" x="74.5" y="-1090.8" font-family="Times,serif" font-size="9.00">8 modules</text>
</g>
<!-- amplihack&#45;remote -->
<g id="node22" class="node">
<title>amplihack&#45;remote</title>
<polygon fill="none" stroke="black" points="124,-1170 25,-1170 25,-1134 124,-1134 124,-1170"/>
<text text-anchor="middle" x="74.5" y="-1154.8" font-family="Times,serif" font-size="9.00">amplihack&#45;remote</text>
<text text-anchor="middle" x="74.5" y="-1144.8" font-family="Times,serif" font-size="9.00">12 modules</text>
</g>
<!-- amplihack&#45;safety -->
<g id="node23" class="node">
<title>amplihack&#45;safety</title>
<polygon fill="none" stroke="black" points="121.5,-1224 27.5,-1224 27.5,-1188 121.5,-1188 121.5,-1224"/>
<text text-anchor="middle" x="74.5" y="-1208.8" font-family="Times,serif" font-size="9.00">amplihack&#45;safety</text>
<text text-anchor="middle" x="74.5" y="-1198.8" font-family="Times,serif" font-size="9.00">3 modules</text>
</g>
<!-- amplihack&#45;security -->
<g id="node24" class="node">
<title>amplihack&#45;security</title>
<polygon fill="none" stroke="black" points="126.5,-1278 22.5,-1278 22.5,-1242 126.5,-1242 126.5,-1278"/>
<text text-anchor="middle" x="74.5" y="-1262.8" font-family="Times,serif" font-size="9.00">amplihack&#45;security</text>
<text text-anchor="middle" x="74.5" y="-1252.8" font-family="Times,serif" font-size="9.00">6 modules</text>
</g>
<!-- amplihack&#45;session -->
<g id="node25" class="node">
<title>amplihack&#45;session</title>
<polygon fill="none" stroke="black" points="124.5,-1332 24.5,-1332 24.5,-1296 124.5,-1296 124.5,-1332"/>
<text text-anchor="middle" x="74.5" y="-1316.8" font-family="Times,serif" font-size="9.00">amplihack&#45;session</text>
<text text-anchor="middle" x="74.5" y="-1306.8" font-family="Times,serif" font-size="9.00">7 modules</text>
</g>
<!-- amplihack&#45;state -->
<g id="node26" class="node">
<title>amplihack&#45;state</title>
<polygon fill="none" stroke="black" points="119,-1386 30,-1386 30,-1350 119,-1350 119,-1386"/>
<text text-anchor="middle" x="74.5" y="-1370.8" font-family="Times,serif" font-size="9.00">amplihack&#45;state</text>
<text text-anchor="middle" x="74.5" y="-1360.8" font-family="Times,serif" font-size="9.00">5 modules</text>
</g>
<!-- amplihack&#45;types -->
<g id="node27" class="node">
<title>amplihack&#45;types</title>
<polygon fill="none" stroke="black" points="120.5,-1440 28.5,-1440 28.5,-1404 120.5,-1404 120.5,-1440"/>
<text text-anchor="middle" x="74.5" y="-1424.8" font-family="Times,serif" font-size="9.00">amplihack&#45;types</text>
<text text-anchor="middle" x="74.5" y="-1414.8" font-family="Times,serif" font-size="9.00">4 modules</text>
</g>
<!-- amplihack&#45;utils -->
<g id="node28" class="node">
<title>amplihack&#45;utils</title>
<polygon fill="none" stroke="black" points="118,-1494 31,-1494 31,-1458 118,-1458 118,-1494"/>
<text text-anchor="middle" x="74.5" y="-1478.8" font-family="Times,serif" font-size="9.00">amplihack&#45;utils</text>
<text text-anchor="middle" x="74.5" y="-1468.8" font-family="Times,serif" font-size="9.00">39 modules</text>
</g>
<!-- amplihack&#45;workflows -->
<g id="node29" class="node">
<title>amplihack&#45;workflows</title>
<polygon fill="none" stroke="black" points="131,-1548 18,-1548 18,-1512 131,-1512 131,-1548"/>
<text text-anchor="middle" x="74.5" y="-1532.8" font-family="Times,serif" font-size="9.00">amplihack&#45;workflows</text>
<text text-anchor="middle" x="74.5" y="-1522.8" font-family="Times,serif" font-size="9.00">11 modules</text>
</g>
</g>
</svg>
