<?xml version="1.0" encoding="UTF-8" standalone="no"?>
<!DOCTYPE svg PUBLIC "-//W3C//DTD SVG 1.1//EN"
 "http://www.w3.org/Graphics/SVG/1.1/DTD/svg11.dtd">
<!-- Generated by graphviz version 2.42.4 (0)
 -->
<!-- Title: service_components Pages: 1 -->
<svg width="3095pt" height="243pt"
 viewBox="0.00 0.00 3095.00 243.00" xmlns="http://www.w3.org/2000/svg" xmlns:xlink="http://www.w3.org/1999/xlink">
<g id="graph0" class="graph" transform="scale(1 1) rotate(0) translate(4 239)">
<title>service_components</title>
<polygon fill="white" stroke="transparent" points="-4,4 -4,-239 3091,-239 3091,4 -4,4"/>
<g id="clust1" class="cluster">
<title>cluster_cli</title>
<polygon fill="none" stroke="#4169e1" stroke-dasharray="5,2" points="8,-80 8,-227 1033,-227 1033,-80 8,-80"/>
<text text-anchor="middle" x="520.5" y="-211.8" font-family="Times,serif" font-size="14.00">amplihack&#45;cli</text>
</g>
<g id="clust2" class="cluster">
<title>cluster_agent_core</title>
<polygon fill="none" stroke="#228b22" stroke-dasharray="5,2" points="1041,-8 1041,-227 1424,-227 1424,-8 1041,-8"/>
<text text-anchor="middle" x="1232.5" y="-211.8" font-family="Times,serif" font-size="14.00">amplihack&#45;agent&#45;core</text>
</g>
<g id="clust3" class="cluster">
<title>cluster_hooks</title>
<polygon fill="none" stroke="#8b0000" stroke-dasharray="5,2" points="1432,-80 1432,-227 1804,-227 1804,-80 1432,-80"/>
<text text-anchor="middle" x="1618" y="-211.8" font-family="Times,serif" font-size="14.00">amplihack&#45;hooks</text>
</g>
<g id="clust4" class="cluster">
<title>cluster_memory</title>
<polygon fill="none" stroke="#daa520" stroke-dasharray="5,2" points="1812,-152 1812,-227 2356,-227 2356,-152 1812,-152"/>
<text text-anchor="middle" x="2084" y="-211.8" font-family="Times,serif" font-size="14.00">amplihack&#45;memory</text>
</g>
<g id="clust5" class="cluster">
<title>cluster_recipe</title>
<polygon fill="none" stroke="#800080" stroke-dasharray="5,2" points="2364,-80 2364,-227 2687,-227 2687,-80 2364,-80"/>
<text text-anchor="middle" x="2525.5" y="-211.8" font-family="Times,serif" font-size="14.00">amplihack&#45;recipe</text>
</g>
<g id="clust6" class="cluster">
<title>cluster_hive</title>
<polygon fill="none" stroke="#006400" stroke-dasharray="5,2" points="2695,-80 2695,-227 3079,-227 3079,-80 2695,-80"/>
<text text-anchor="middle" x="2887" y="-211.8" font-family="Times,serif" font-size="14.00">amplihack&#45;hive</text>
</g>
<!-- cli_commands_mod -->
<g id="node1" class="node">
<title>cli_commands_mod</title>
<polygon fill="#87ceeb" stroke="black" points="1025,-196 955,-196 955,-160 1025,-160 1025,-196"/>
<text text-anchor="middle" x="990" y="-175.8" font-family="Helvetica,sans-Serif" font-size="9.00">commands/</text>
</g>
<!-- cli_install -->
<g id="node2" class="node">
<title>cli_install</title>
<polygon fill="#87ceeb" stroke="black" points="681,-124 585,-124 585,-88 681,-88 681,-124"/>
<text text-anchor="middle" x="633" y="-103.8" font-family="Helvetica,sans-Serif" font-size="9.00">commands/install</text>
</g>
<!-- cli_commands_mod&#45;&gt;cli_install -->
<g id="edge1" class="edge">
<title>cli_commands_mod&#45;&gt;cli_install</title>
<path fill="none" stroke="black" d="M963.81,-159.84C958.13,-156.78 952.02,-153.95 946,-152 840.6,-117.88 804.83,-144.73 691.38,-123.79"/>
<polygon fill="black" stroke="black" points="691.74,-120.3 681.26,-121.84 690.42,-127.17 691.74,-120.3"/>
</g>
<!-- cli_launch -->
<g id="node3" class="node">
<title>cli_launch</title>
<polygon fill="#87ceeb" stroke="black" points="800.5,-124 699.5,-124 699.5,-88 800.5,-88 800.5,-124"/>
<text text-anchor="middle" x="750" y="-103.8" font-family="Helvetica,sans-Serif" font-size="9.00">commands/launch</text>
</g>
<!-- cli_commands_mod&#45;&gt;cli_launch -->
<g id="edge2" class="edge">
<title>cli_commands_mod&#45;&gt;cli_launch</title>
<path fill="none" stroke="black" d="M962.71,-159.76C957.32,-156.85 951.59,-154.1 946,-152 891.06,-131.33 871.83,-137.9 810.46,-123.95"/>
<polygon fill="black" stroke="black" points="811.21,-120.53 800.67,-121.64 809.6,-127.34 811.21,-120.53"/>
</g>
<!-- cli_recipe_cmd -->
<g id="node4" class="node">
<title>cli_recipe_cmd</title>
<polygon fill="#87ceeb" stroke="black" points="917,-124 819,-124 819,-88 917,-88 917,-124"/>
<text text-anchor="middle" x="868" y="-103.8" font-family="Helvetica,sans-Serif" font-size="9.00">commands/recipe</text>
</g>
<!-- cli_commands_mod&#45;&gt;cli_recipe_cmd -->
<g id="edge3" class="edge">
<title>cli_commands_mod&#45;&gt;cli_recipe_cmd</title>
<path fill="none" stroke="black" d="M960.16,-159.88C944.06,-150.64 924,-139.13 906.71,-129.21"/>
<polygon fill="black" stroke="black" points="908.37,-126.13 897.96,-124.19 904.89,-132.2 908.37,-126.13"/>
</g>
<!-- cli_fleet_cmd -->
<g id="node5" class="node">
<title>cli_fleet_cmd</title>
<polygon fill="#87ceeb" stroke="black" points="1025,-124 935,-124 935,-88 1025,-88 1025,-124"/>
<text text-anchor="middle" x="980" y="-103.8" font-family="Helvetica,sans-Serif" font-size="9.00">commands/fleet</text>
</g>
<!-- cli_commands_mod&#45;&gt;cli_fleet_cmd -->
<g id="edge4" class="edge">
<title>cli_commands_mod&#45;&gt;cli_fleet_cmd</title>
<path fill="none" stroke="black" d="M987.53,-159.7C986.43,-151.98 985.1,-142.71 983.87,-134.11"/>
<polygon fill="black" stroke="black" points="987.32,-133.51 982.44,-124.1 980.39,-134.5 987.32,-133.51"/>
</g>
<!-- cli_doctor_cmd -->
<g id="node6" class="node">
<title>cli_doctor_cmd</title>
<polygon fill="#87ceeb" stroke="black" points="936.5,-196 837.5,-196 837.5,-160 936.5,-160 936.5,-196"/>
<text text-anchor="middle" x="887" y="-175.8" font-family="Helvetica,sans-Serif" font-size="9.00">commands/doctor</text>
</g>
<!-- cli_new_agent -->
<g id="node7" class="node">
<title>cli_new_agent</title>
<polygon fill="#87ceeb" stroke="black" points="819.5,-196 700.5,-196 700.5,-160 819.5,-160 819.5,-196"/>
<text text-anchor="middle" x="760" y="-175.8" font-family="Helvetica,sans-Serif" font-size="9.00">commands/new_agent</text>
</g>
<!-- cli_orch_cmd -->
<g id="node8" class="node">
<title>cli_orch_cmd</title>
<polygon fill="#87ceeb" stroke="black" points="682,-196 592,-196 592,-160 682,-160 682,-196"/>
<text text-anchor="middle" x="637" y="-175.8" font-family="Helvetica,sans-Serif" font-size="9.00">commands/orch</text>
</g>
<!-- cli_hive_cmd -->
<g id="node9" class="node">
<title>cli_hive_cmd</title>
<polygon fill="#87ceeb" stroke="black" points="574,-196 436,-196 436,-160 574,-160 574,-196"/>
<text text-anchor="middle" x="505" y="-175.8" font-family="Helvetica,sans-Serif" font-size="9.00">commands/hive_haymaker</text>
</g>
<!-- cli_auto_mode -->
<g id="node10" class="node">
<title>cli_auto_mode</title>
<polygon fill="#87ceeb" stroke="black" points="418,-196 342,-196 342,-160 418,-160 418,-196"/>
<text text-anchor="middle" x="380" y="-175.8" font-family="Helvetica,sans-Serif" font-size="9.00">auto_mode_*</text>
</g>
<!-- cli_update -->
<g id="node11" class="node">
<title>cli_update</title>
<polygon fill="#87ceeb" stroke="black" points="324,-196 270,-196 270,-160 324,-160 324,-196"/>
<text text-anchor="middle" x="297" y="-175.8" font-family="Helvetica,sans-Serif" font-size="9.00">update/</text>
</g>
<!-- cli_signals -->
<g id="node12" class="node">
<title>cli_signals</title>
<polygon fill="#87ceeb" stroke="black" points="252,-196 198,-196 198,-160 252,-160 252,-196"/>
<text text-anchor="middle" x="225" y="-175.8" font-family="Helvetica,sans-Serif" font-size="9.00">signals</text>
</g>
<!-- cli_copilot -->
<g id="node13" class="node">
<title>cli_copilot</title>
<polygon fill="#87ceeb" stroke="black" points="180,-196 100,-196 100,-160 180,-160 180,-196"/>
<text text-anchor="middle" x="140" y="-175.8" font-family="Helvetica,sans-Serif" font-size="9.00">copilot_setup/</text>
</g>
<!-- cli_fleet_local -->
<g id="node14" class="node">
<title>cli_fleet_local</title>
<polygon fill="#87ceeb" stroke="black" points="81.5,-196 16.5,-196 16.5,-160 81.5,-160 81.5,-196"/>
<text text-anchor="middle" x="49" y="-175.8" font-family="Helvetica,sans-Serif" font-size="9.00">fleet_local/</text>
</g>
<!-- ac_agent -->
<g id="node15" class="node">
<title>ac_agent</title>
<polygon fill="#98fb98" stroke="black" points="1416,-196 1362,-196 1362,-160 1416,-160 1416,-196"/>
<text text-anchor="middle" x="1389" y="-175.8" font-family="Helvetica,sans-Serif" font-size="9.00">agent</text>
</g>
<!-- ac_agentic_loop -->
<g id="node16" class="node">
<title>ac_agentic_loop</title>
<polygon fill="#98fb98" stroke="black" points="1227.5,-124 1150.5,-124 1150.5,-88 1227.5,-88 1227.5,-124"/>
<text text-anchor="middle" x="1189" y="-103.8" font-family="Helvetica,sans-Serif" font-size="9.00">agentic_loop/</text>
</g>
<!-- ac_agent&#45;&gt;ac_agentic_loop -->
<g id="edge5" class="edge">
<title>ac_agent&#45;&gt;ac_agentic_loop</title>
<path fill="none" stroke="black" d="M1366.91,-159.78C1362.47,-156.88 1357.72,-154.12 1353,-152 1307.36,-131.51 1289.84,-138.19 1237.48,-123.89"/>
<polygon fill="black" stroke="black" points="1238.24,-120.47 1227.66,-121.08 1236.31,-127.2 1238.24,-120.47"/>
</g>
<!-- ac_sdk -->
<g id="node17" class="node">
<title>ac_sdk</title>
<polygon fill="#98fb98" stroke="black" points="1326,-124 1246,-124 1246,-88 1326,-88 1326,-124"/>
<text text-anchor="middle" x="1286" y="-103.8" font-family="Helvetica,sans-Serif" font-size="9.00">sdk_adapters/</text>
</g>
<!-- ac_agent&#45;&gt;ac_sdk -->
<g id="edge6" class="edge">
<title>ac_agent&#45;&gt;ac_sdk</title>
<path fill="none" stroke="black" d="M1364.25,-159.74C1360.49,-157.13 1356.64,-154.49 1353,-152 1342.33,-144.71 1330.66,-136.84 1320.09,-129.75"/>
<polygon fill="black" stroke="black" points="1321.77,-126.66 1311.52,-124 1317.87,-132.48 1321.77,-126.66"/>
</g>
<!-- ac_sub_agents -->
<g id="node18" class="node">
<title>ac_sub_agents</title>
<polygon fill="#98fb98" stroke="black" points="1415.5,-124 1344.5,-124 1344.5,-88 1415.5,-88 1415.5,-124"/>
<text text-anchor="middle" x="1380" y="-103.8" font-family="Helvetica,sans-Serif" font-size="9.00">sub_agents/</text>
</g>
<!-- ac_agent&#45;&gt;ac_sub_agents -->
<g id="edge7" class="edge">
<title>ac_agent&#45;&gt;ac_sub_agents</title>
<path fill="none" stroke="black" d="M1386.78,-159.7C1385.78,-151.98 1384.59,-142.71 1383.49,-134.11"/>
<polygon fill="black" stroke="black" points="1386.95,-133.58 1382.2,-124.1 1380,-134.47 1386.95,-133.58"/>
</g>
<!-- ac_answer_synth -->
<g id="node19" class="node">
<title>ac_answer_synth</title>
<polygon fill="#98fb98" stroke="black" points="1181,-52 1099,-52 1099,-16 1181,-16 1181,-52"/>
<text text-anchor="middle" x="1140" y="-31.8" font-family="Helvetica,sans-Serif" font-size="9.00">answer_synth/</text>
</g>
<!-- ac_agentic_loop&#45;&gt;ac_answer_synth -->
<g id="edge8" class="edge">
<title>ac_agentic_loop&#45;&gt;ac_answer_synth</title>
<path fill="none" stroke="black" d="M1176.89,-87.7C1171.13,-79.47 1164.14,-69.48 1157.79,-60.42"/>
<polygon fill="black" stroke="black" points="1160.58,-58.29 1151.97,-52.1 1154.84,-62.3 1160.58,-58.29"/>
</g>
<!-- ac_cognitive -->
<g id="node20" class="node">
<title>ac_cognitive</title>
<polygon fill="#98fb98" stroke="black" points="1300.5,-52 1199.5,-52 1199.5,-16 1300.5,-16 1300.5,-52"/>
<text text-anchor="middle" x="1250" y="-31.8" font-family="Helvetica,sans-Serif" font-size="9.00">cognitive_adapter/</text>
</g>
<!-- ac_agentic_loop&#45;&gt;ac_cognitive -->
<g id="edge9" class="edge">
<title>ac_agentic_loop&#45;&gt;ac_cognitive</title>
<path fill="none" stroke="black" d="M1204.08,-87.7C1211.39,-79.3 1220.31,-69.07 1228.34,-59.86"/>
<polygon fill="black" stroke="black" points="1231.16,-61.94 1235.09,-52.1 1225.89,-57.34 1231.16,-61.94"/>
</g>
<!-- ac_session -->
<g id="node21" class="node">
<title>ac_session</title>
<polygon fill="#98fb98" stroke="black" points="1344,-196 1290,-196 1290,-160 1344,-160 1344,-196"/>
<text text-anchor="middle" x="1317" y="-175.8" font-family="Helvetica,sans-Serif" font-size="9.00">session</text>
</g>
<!-- ac_memory_retrieval -->
<g id="node22" class="node">
<title>ac_memory_retrieval</title>
<polygon fill="#98fb98" stroke="black" points="1271.5,-196 1176.5,-196 1176.5,-160 1271.5,-160 1271.5,-196"/>
<text text-anchor="middle" x="1224" y="-175.8" font-family="Helvetica,sans-Serif" font-size="9.00">memory_retrieval</text>
</g>
<!-- ac_temporal -->
<g id="node23" class="node">
<title>ac_temporal</title>
<polygon fill="#98fb98" stroke="black" points="1158.5,-196 1049.5,-196 1049.5,-160 1158.5,-160 1158.5,-196"/>
<text text-anchor="middle" x="1104" y="-175.8" font-family="Helvetica,sans-Serif" font-size="9.00">temporal_reasoning/</text>
</g>
<!-- hk_session_start -->
<g id="node24" class="node">
<title>hk_session_start</title>
<polygon fill="#ffa07a" stroke="black" points="1514,-124 1440,-124 1440,-88 1514,-88 1514,-124"/>
<text text-anchor="middle" x="1477" y="-103.8" font-family="Helvetica,sans-Serif" font-size="9.00">session_start</text>
</g>
<!-- hk_pre_tool -->
<g id="node25" class="node">
<title>hk_pre_tool</title>
<polygon fill="#ffa07a" stroke="black" points="1605.5,-124 1532.5,-124 1532.5,-88 1605.5,-88 1605.5,-124"/>
<text text-anchor="middle" x="1569" y="-103.8" font-family="Helvetica,sans-Serif" font-size="9.00">pre_tool_use</text>
</g>
<!-- hk_post_tool -->
<g id="node26" class="node">
<title>hk_post_tool</title>
<polygon fill="#ffa07a" stroke="black" points="1700.5,-124 1623.5,-124 1623.5,-88 1700.5,-88 1700.5,-124"/>
<text text-anchor="middle" x="1662" y="-103.8" font-family="Helvetica,sans-Serif" font-size="9.00">post_tool_use</text>
</g>
<!-- hk_stop -->
<g id="node27" class="node">
<title>hk_stop</title>
<polygon fill="#ffa07a" stroke="black" points="1796,-196 1742,-196 1742,-160 1796,-160 1796,-196"/>
<text text-anchor="middle" x="1769" y="-175.8" font-family="Helvetica,sans-Serif" font-size="9.00">stop</text>
</g>
<!-- hk_user_prompt -->
<g id="node28" class="node">
<title>hk_user_prompt</title>
<polygon fill="#ffa07a" stroke="black" points="1724,-196 1650,-196 1650,-160 1724,-160 1724,-196"/>
<text text-anchor="middle" x="1687" y="-175.8" font-family="Helvetica,sans-Serif" font-size="9.00">user_prompt</text>
</g>
<!-- hk_workflow -->
<g id="node29" class="node">
<title>hk_workflow</title>
<polygon fill="#ffa07a" stroke="black" points="1631.5,-196 1512.5,-196 1512.5,-160 1631.5,-160 1631.5,-196"/>
<text text-anchor="middle" x="1572" y="-175.8" font-family="Helvetica,sans-Serif" font-size="9.00">workflow_classification</text>
</g>
<!-- hk_protocol -->
<g id="node30" class="node">
<title>hk_protocol</title>
<polygon fill="#ffa07a" stroke="black" points="1494,-196 1440,-196 1440,-160 1494,-160 1494,-196"/>
<text text-anchor="middle" x="1467" y="-175.8" font-family="Helvetica,sans-Serif" font-size="9.00">protocol</text>
</g>
<!-- hk_protocol&#45;&gt;hk_session_start -->
<g id="edge10" class="edge">
<title>hk_protocol&#45;&gt;hk_session_start</title>
<path fill="none" stroke="black" d="M1469.47,-159.7C1470.57,-151.98 1471.9,-142.71 1473.13,-134.11"/>
<polygon fill="black" stroke="black" points="1476.61,-134.5 1474.56,-124.1 1469.68,-133.51 1476.61,-134.5"/>
</g>
<!-- hk_protocol&#45;&gt;hk_pre_tool -->
<g id="edge11" class="edge">
<title>hk_protocol&#45;&gt;hk_pre_tool</title>
<path fill="none" stroke="black" d="M1491.95,-159.88C1505.04,-150.89 1521.26,-139.76 1535.44,-130.03"/>
<polygon fill="black" stroke="black" points="1537.69,-132.73 1543.95,-124.19 1533.73,-126.96 1537.69,-132.73"/>
</g>
<!-- hk_protocol&#45;&gt;hk_post_tool -->
<g id="edge12" class="edge">
<title>hk_protocol&#45;&gt;hk_post_tool</title>
<path fill="none" stroke="black" d="M1489.77,-159.84C1494.32,-156.93 1499.19,-154.15 1504,-152 1547.72,-132.44 1564.38,-138.09 1613.76,-124.16"/>
<polygon fill="black" stroke="black" points="1614.78,-127.51 1623.37,-121.32 1612.79,-120.79 1614.78,-127.51"/>
</g>
<!-- mem_backend -->
<g id="node31" class="node">
<title>mem_backend</title>
<polygon fill="#f0e68c" stroke="black" points="2348,-196 2292,-196 2292,-160 2348,-160 2348,-196"/>
<text text-anchor="middle" x="2320" y="-175.8" font-family="Helvetica,sans-Serif" font-size="9.00">backend</text>
</g>
<!-- mem_database -->
<g id="node32" class="node">
<title>mem_database</title>
<polygon fill="#f0e68c" stroke="black" points="2274,-196 2216,-196 2216,-160 2274,-160 2274,-196"/>
<text text-anchor="middle" x="2245" y="-175.8" font-family="Helvetica,sans-Serif" font-size="9.00">database</text>
</g>
<!-- mem_discoveries -->
<g id="node33" class="node">
<title>mem_discoveries</title>
<polygon fill="#f0e68c" stroke="black" points="2198,-196 2132,-196 2132,-160 2198,-160 2198,-196"/>
<text text-anchor="middle" x="2165" y="-175.8" font-family="Helvetica,sans-Serif" font-size="9.00">discoveries</text>
</g>
<!-- mem_bloom -->
<g id="node34" class="node">
<title>mem_bloom</title>
<polygon fill="#f0e68c" stroke="black" points="2114,-196 2060,-196 2060,-160 2114,-160 2114,-196"/>
<text text-anchor="middle" x="2087" y="-175.8" font-family="Helvetica,sans-Serif" font-size="9.00">bloom</text>
</g>
<!-- mem_config -->
<g id="node35" class="node">
<title>mem_config</title>
<polygon fill="#f0e68c" stroke="black" points="2042,-196 1988,-196 1988,-160 2042,-160 2042,-196"/>
<text text-anchor="middle" x="2015" y="-175.8" font-family="Helvetica,sans-Serif" font-size="9.00">config</text>
</g>
<!-- mem_coordinator -->
<g id="node36" class="node">
<title>mem_coordinator</title>
<polygon fill="#f0e68c" stroke="black" points="1970,-196 1902,-196 1902,-160 1970,-160 1970,-196"/>
<text text-anchor="middle" x="1936" y="-175.8" font-family="Helvetica,sans-Serif" font-size="9.00">coordinator</text>
</g>
<!-- mem_evaluation -->
<g id="node37" class="node">
<title>mem_evaluation</title>
<polygon fill="#f0e68c" stroke="black" points="1883.5,-196 1820.5,-196 1820.5,-160 1883.5,-160 1883.5,-196"/>
<text text-anchor="middle" x="1852" y="-175.8" font-family="Helvetica,sans-Serif" font-size="9.00">evaluation</text>
</g>
<!-- rcp_parser -->
<g id="node38" class="node">
<title>rcp_parser</title>
<polygon fill="#dda0dd" stroke="black" points="2504,-124 2450,-124 2450,-88 2504,-88 2504,-124"/>
<text text-anchor="middle" x="2477" y="-103.8" font-family="Helvetica,sans-Serif" font-size="9.00">parser</text>
</g>
<!-- rcp_executor -->
<g id="node39" class="node">
<title>rcp_executor</title>
<polygon fill="#dda0dd" stroke="black" points="2679,-196 2623,-196 2623,-160 2679,-160 2679,-196"/>
<text text-anchor="middle" x="2651" y="-175.8" font-family="Helvetica,sans-Serif" font-size="9.00">executor</text>
</g>
<!-- rcp_executor&#45;&gt;rcp_parser -->
<g id="edge13" class="edge">
<title>rcp_executor&#45;&gt;rcp_parser</title>
<path fill="none" stroke="black" d="M2628.18,-159.94C2623.64,-157.02 2618.78,-154.21 2614,-152 2572.12,-132.61 2557.33,-139.91 2514,-124 2513.9,-123.96 2513.8,-123.93 2513.7,-123.89"/>
<polygon fill="black" stroke="black" points="2514.86,-120.58 2504.28,-120.12 2512.26,-127.08 2514.86,-120.58"/>
</g>
<!-- rcp_condition -->
<g id="node41" class="node">
<title>rcp_condition</title>
<polygon fill="#dda0dd" stroke="black" points="2603.5,-124 2522.5,-124 2522.5,-88 2603.5,-88 2603.5,-124"/>
<text text-anchor="middle" x="2563" y="-103.8" font-family="Helvetica,sans-Serif" font-size="9.00">condition_eval</text>
</g>
<!-- rcp_executor&#45;&gt;rcp_condition -->
<g id="edge14" class="edge">
<title>rcp_executor&#45;&gt;rcp_condition</title>
<path fill="none" stroke="black" d="M2629.25,-159.7C2618.16,-150.88 2604.53,-140.03 2592.51,-130.47"/>
<polygon fill="black" stroke="black" points="2594.51,-127.59 2584.5,-124.1 2590.15,-133.07 2594.51,-127.59"/>
</g>
<!-- rcp_template -->
<g id="node42" class="node">
<title>rcp_template</title>
<polygon fill="#dda0dd" stroke="black" points="2678.5,-124 2621.5,-124 2621.5,-88 2678.5,-88 2678.5,-124"/>
<text text-anchor="middle" x="2650" y="-103.8" font-family="Helvetica,sans-Serif" font-size="9.00">template</text>
</g>
<!-- rcp_executor&#45;&gt;rcp_template -->
<g id="edge15" class="edge">
<title>rcp_executor&#45;&gt;rcp_template</title>
<path fill="none" stroke="black" d="M2650.75,-159.7C2650.64,-151.98 2650.51,-142.71 2650.39,-134.11"/>
<polygon fill="black" stroke="black" points="2653.89,-134.05 2650.24,-124.1 2646.89,-134.15 2653.89,-134.05"/>
</g>
<!-- rcp_models -->
<g id="node40" class="node">
<title>rcp_models</title>
<polygon fill="#dda0dd" stroke="black" points="2605,-196 2551,-196 2551,-160 2605,-160 2605,-196"/>
<text text-anchor="middle" x="2578" y="-175.8" font-family="Helvetica,sans-Serif" font-size="9.00">models</text>
</g>
<!-- rcp_discovery -->
<g id="node43" class="node">
<title>rcp_discovery</title>
<polygon fill="#dda0dd" stroke="black" points="2532.5,-196 2473.5,-196 2473.5,-160 2532.5,-160 2532.5,-196"/>
<text text-anchor="middle" x="2503" y="-175.8" font-family="Helvetica,sans-Serif" font-size="9.00">discovery</text>
</g>
<!-- rcp_agent_resolver -->
<g id="node44" class="node">
<title>rcp_agent_resolver</title>
<polygon fill="#dda0dd" stroke="black" points="2455.5,-196 2372.5,-196 2372.5,-160 2455.5,-160 2455.5,-196"/>
<text text-anchor="middle" x="2414" y="-175.8" font-family="Helvetica,sans-Serif" font-size="9.00">agent_resolver</text>
</g>
<!-- hv_controller -->
<g id="node45" class="node">
<title>hv_controller</title>
<polygon fill="#90ee90" stroke="black" points="3070.5,-196 3011.5,-196 3011.5,-160 3070.5,-160 3070.5,-196"/>
<text text-anchor="middle" x="3041" y="-175.8" font-family="Helvetica,sans-Serif" font-size="9.00">controller</text>
</g>
<!-- hv_distributed -->
<g id="node46" class="node">
<title>hv_distributed</title>
<polygon fill="#90ee90" stroke="black" points="2989.5,-124 2920.5,-124 2920.5,-88 2989.5,-88 2989.5,-124"/>
<text text-anchor="middle" x="2955" y="-103.8" font-family="Helvetica,sans-Serif" font-size="9.00">distributed/</text>
</g>
<!-- hv_controller&#45;&gt;hv_distributed -->
<g id="edge16" class="edge">
<title>hv_controller&#45;&gt;hv_distributed</title>
<path fill="none" stroke="black" d="M3019.74,-159.7C3008.91,-150.88 2995.58,-140.03 2983.84,-130.47"/>
<polygon fill="black" stroke="black" points="2985.98,-127.7 2976.01,-124.1 2981.56,-133.13 2985.98,-127.7"/>
</g>
<!-- hv_event_bus -->
<g id="node50" class="node">
<title>hv_event_bus</title>
<polygon fill="#90ee90" stroke="black" points="3070.5,-124 3007.5,-124 3007.5,-88 3070.5,-88 3070.5,-124"/>
<text text-anchor="middle" x="3039" y="-103.8" font-family="Helvetica,sans-Serif" font-size="9.00">event_bus</text>
</g>
<!-- hv_controller&#45;&gt;hv_event_bus -->
<g id="edge17" class="edge">
<title>hv_controller&#45;&gt;hv_event_bus</title>
<path fill="none" stroke="black" d="M3040.51,-159.7C3040.29,-151.98 3040.02,-142.71 3039.77,-134.11"/>
<polygon fill="black" stroke="black" points="3043.27,-134 3039.49,-124.1 3036.28,-134.2 3043.27,-134"/>
</g>
<!-- hv_crdt -->
<g id="node47" class="node">
<title>hv_crdt</title>
<polygon fill="#90ee90" stroke="black" points="2993,-196 2939,-196 2939,-160 2993,-160 2993,-196"/>
<text text-anchor="middle" x="2966" y="-175.8" font-family="Helvetica,sans-Serif" font-size="9.00">crdt</text>
</g>
<!-- hv_dht -->
<g id="node48" class="node">
<title>hv_dht</title>
<polygon fill="#90ee90" stroke="black" points="2921,-196 2867,-196 2867,-160 2921,-160 2921,-196"/>
<text text-anchor="middle" x="2894" y="-175.8" font-family="Helvetica,sans-Serif" font-size="9.00">dht</text>
</g>
<!-- hv_embeddings -->
<g id="node49" class="node">
<title>hv_embeddings</title>
<polygon fill="#90ee90" stroke="black" points="2848.5,-196 2775.5,-196 2775.5,-160 2848.5,-160 2848.5,-196"/>
<text text-anchor="middle" x="2812" y="-175.8" font-family="Helvetica,sans-Serif" font-size="9.00">embeddings</text>
</g>
<!-- hv_feed -->
<g id="node51" class="node">
<title>hv_feed</title>
<polygon fill="#90ee90" stroke="black" points="2757,-196 2703,-196 2703,-160 2757,-160 2757,-196"/>
<text text-anchor="middle" x="2730" y="-175.8" font-family="Helvetica,sans-Serif" font-size="9.00">feed</text>
</g>
</g>
</svg>
