<?xml version="1.0" encoding="UTF-8" standalone="no"?>
<!DOCTYPE svg PUBLIC "-//W3C//DTD SVG 1.1//EN"
 "http://www.w3.org/Graphics/SVG/1.1/DTD/svg11.dtd">
<!-- Generated by graphviz version 2.42.4 (0)
 -->
<!-- Title: runtime Pages: 1 -->
<svg width="311pt" height="206pt"
 viewBox="0.00 0.00 311.00 206.00" xmlns="http://www.w3.org/2000/svg" xmlns:xlink="http://www.w3.org/1999/xlink">
<g id="graph0" class="graph" transform="scale(1 1) rotate(0) translate(4 202)">
<title>runtime</title>
<polygon fill="white" stroke="transparent" points="-4,4 -4,-202 307,-202 307,4 -4,4"/>
<!-- amplihack -->
<g id="node1" class="node">
<title>amplihack</title>
<polygon fill="#000000" stroke="#000000" points="116.5,-144 51.5,-144 47.5,-140 47.5,-108 112.5,-108 116.5,-112 116.5,-144"/>
<polyline fill="none" stroke="#000000" points="112.5,-140 47.5,-140 "/>
<polyline fill="none" stroke="#000000" points="112.5,-140 112.5,-108 "/>
<polyline fill="none" stroke="#000000" points="112.5,-140 116.5,-144 "/>
<text text-anchor="middle" x="82" y="-123.5" font-family="Times,serif" font-size="10.00">amplihack</text>
</g>
<!-- amplihack&#45;cli -->
<g id="node2" class="node">
<title>amplihack&#45;cli</title>
<polygon fill="none" stroke="black" points="293.5,-198 209.5,-198 209.5,-162 293.5,-162 293.5,-198"/>
<text text-anchor="middle" x="251.5" y="-177.5" font-family="Times,serif" font-size="10.00">amplihack&#45;cli</text>
</g>
<!-- amplihack&#45;&gt;amplihack&#45;cli -->
<g id="edge1" class="edge">
<title>amplihack&#45;&gt;amplihack&#45;cli</title>
<path fill="none" stroke="black" d="M116.9,-136.93C140.65,-144.59 172.82,-154.96 199.63,-163.6"/>
<polygon fill="black" stroke="black" points="198.66,-166.96 209.25,-166.7 200.8,-160.3 198.66,-166.96"/>
</g>
<!-- amplihack&#45;hooks -->
<g id="node3" class="node">
<title>amplihack&#45;hooks</title>
<polygon fill="none" stroke="black" points="303,-144 200,-144 200,-108 303,-108 303,-144"/>
<text text-anchor="middle" x="251.5" y="-123.5" font-family="Times,serif" font-size="10.00">amplihack&#45;hooks</text>
</g>
<!-- amplihack&#45;&gt;amplihack&#45;hooks -->
<g id="edge2" class="edge">
<title>amplihack&#45;&gt;amplihack&#45;hooks</title>
<path fill="none" stroke="black" d="M116.9,-126C137.72,-126 165.02,-126 189.51,-126"/>
<polygon fill="black" stroke="black" points="189.8,-129.5 199.8,-126 189.8,-122.5 189.8,-129.5"/>
</g>
<!-- amplihack&#45;state -->
<g id="node4" class="node">
<title>amplihack&#45;state</title>
<polygon fill="none" stroke="black" points="300.5,-90 202.5,-90 202.5,-54 300.5,-54 300.5,-90"/>
<text text-anchor="middle" x="251.5" y="-69.5" font-family="Times,serif" font-size="10.00">amplihack&#45;state</text>
</g>
<!-- amplihack&#45;&gt;amplihack&#45;state -->
<g id="edge3" class="edge">
<title>amplihack&#45;&gt;amplihack&#45;state</title>
<path fill="none" stroke="black" d="M116.9,-115.07C138.58,-108.08 167.29,-98.83 192.53,-90.69"/>
<polygon fill="black" stroke="black" points="193.93,-93.92 202.37,-87.52 191.78,-87.25 193.93,-93.92"/>
</g>
<!-- amplihack&#45;types -->
<g id="node5" class="node">
<title>amplihack&#45;types</title>
<polygon fill="none" stroke="black" points="302,-36 201,-36 201,0 302,0 302,-36"/>
<text text-anchor="middle" x="251.5" y="-15.5" font-family="Times,serif" font-size="10.00">amplihack&#45;types</text>
</g>
<!-- amplihack&#45;&gt;amplihack&#45;types -->
<g id="edge4" class="edge">
<title>amplihack&#45;&gt;amplihack&#45;types</title>
<path fill="none" stroke="black" d="M116.52,-120.07C132.11,-116.07 150.22,-109.53 164,-99 186.92,-81.49 178.64,-64.38 200,-45 201.1,-44 202.25,-43.02 203.44,-42.07"/>
<polygon fill="black" stroke="black" points="205.58,-44.84 211.66,-36.16 201.5,-39.15 205.58,-44.84"/>
</g>
<!-- amplihack&#45;asset&#45;resolver&#45;bin -->
<g id="node6" class="node">
<title>amplihack&#45;asset&#45;resolver&#45;bin</title>
<polygon fill="#000000" stroke="#000000" points="164,-198 4,-198 0,-194 0,-162 160,-162 164,-166 164,-198"/>
<polyline fill="none" stroke="#000000" points="160,-194 0,-194 "/>
<polyline fill="none" stroke="#000000" points="160,-194 160,-162 "/>
<polyline fill="none" stroke="#000000" points="160,-194 164,-198 "/>
<text text-anchor="middle" x="82" y="-177.5" font-family="Times,serif" font-size="10.00">amplihack&#45;asset&#45;resolver&#45;bin</text>
</g>
<!-- amplihack&#45;asset&#45;resolver&#45;bin&#45;&gt;amplihack&#45;cli -->
<g id="edge5" class="edge">
<title>amplihack&#45;asset&#45;resolver&#45;bin&#45;&gt;amplihack&#45;cli</title>
<path fill="none" stroke="black" d="M164.3,-180C176.17,-180 188.11,-180 199.16,-180"/>
<polygon fill="black" stroke="black" points="199.45,-183.5 209.45,-180 199.45,-176.5 199.45,-183.5"/>
</g>
<!-- amplihack&#45;hooks&#45;bin -->
<g id="node7" class="node">
<title>amplihack&#45;hooks&#45;bin</title>
<polygon fill="#000000" stroke="#000000" points="143.5,-90 24.5,-90 20.5,-86 20.5,-54 139.5,-54 143.5,-58 143.5,-90"/>
<polyline fill="none" stroke="#000000" points="139.5,-86 20.5,-86 "/>
<polyline fill="none" stroke="#000000" points="139.5,-86 139.5,-54 "/>
<polyline fill="none" stroke="#000000" points="139.5,-86 143.5,-90 "/>
<text text-anchor="middle" x="82" y="-69.5" font-family="Times,serif" font-size="10.00">amplihack&#45;hooks&#45;bin</text>
</g>
<!-- amplihack&#45;hooks&#45;bin&#45;&gt;amplihack&#45;hooks -->
<g id="edge6" class="edge">
<title>amplihack&#45;hooks&#45;bin&#45;&gt;amplihack&#45;hooks</title>
<path fill="none" stroke="black" d="M139.24,-90.13C155.61,-95.41 173.55,-101.19 190.16,-106.55"/>
<polygon fill="black" stroke="black" points="189.17,-109.9 199.76,-109.64 191.32,-103.24 189.17,-109.9"/>
</g>
<!-- amplihack&#45;hooks&#45;bin&#45;&gt;amplihack&#45;state -->
<g id="edge7" class="edge">
<title>amplihack&#45;hooks&#45;bin&#45;&gt;amplihack&#45;state</title>
<path fill="none" stroke="black" d="M143.95,-72C159.75,-72 176.73,-72 192.39,-72"/>
<polygon fill="black" stroke="black" points="192.46,-75.5 202.46,-72 192.46,-68.5 192.46,-75.5"/>
</g>
<!-- amplihack&#45;hooks&#45;bin&#45;&gt;amplihack&#45;types -->
<g id="edge8" class="edge">
<title>amplihack&#45;hooks&#45;bin&#45;&gt;amplihack&#45;types</title>
<path fill="none" stroke="black" d="M139.24,-53.87C155.93,-48.49 174.25,-42.58 191.12,-37.14"/>
<polygon fill="black" stroke="black" points="192.43,-40.4 200.87,-34 190.28,-33.74 192.43,-40.4"/>
</g>
</g>
</svg>
