<?xml version="1.0" encoding="UTF-8" standalone="no"?>
<!DOCTYPE svg PUBLIC "-//W3C//DTD SVG 1.1//EN"
 "http://www.w3.org/Graphics/SVG/1.1/DTD/svg11.dtd">
<!-- Generated by graphviz version 2.42.4 (0)
 -->
<!-- Title: compile_deps Pages: 1 -->
<svg width="1462pt" height="473pt"
 viewBox="0.00 0.00 1461.81 473.00" xmlns="http://www.w3.org/2000/svg" xmlns:xlink="http://www.w3.org/1999/xlink">
<g id="graph0" class="graph" transform="scale(1 1) rotate(0) translate(4 469)">
<title>compile_deps</title>
<polygon fill="white" stroke="transparent" points="-4,4 -4,-469 1457.81,-469 1457.81,4 -4,4"/>
<g id="clust1" class="cluster">
<title>cluster_foundation</title>
<polygon fill="none" stroke="#999999" stroke-dasharray="5,2" points="16.81,-111 16.81,-268 486.81,-268 486.81,-111 16.81,-111"/>
<text text-anchor="middle" x="251.81" y="-252.8" font-family="Times,serif" font-size="14.00">Foundation Layer</text>
</g>
<g id="clust2" class="cluster">
<title>cluster_core</title>
<polygon fill="none" stroke="#999999" stroke-dasharray="5,2" points="76.81,-8 76.81,-83 864.81,-83 864.81,-8 76.81,-8"/>
<text text-anchor="middle" x="470.81" y="-67.8" font-family="Times,serif" font-size="14.00">Core Infrastructure</text>
</g>
<g id="clust3" class="cluster">
<title>cluster_agent</title>
<polygon fill="none" stroke="#999999" stroke-dasharray="5,2" points="621.81,-111 621.81,-268 1093.81,-268 1093.81,-111 621.81,-111"/>
<text text-anchor="middle" x="857.81" y="-252.8" font-family="Times,serif" font-size="14.00">Agent Layer</text>
</g>
<g id="clust4" class="cluster">
<title>cluster_orch</title>
<polygon fill="none" stroke="#999999" stroke-dasharray="5,2" points="1101.81,-193 1101.81,-268 1445.81,-268 1445.81,-193 1101.81,-193"/>
<text text-anchor="middle" x="1273.81" y="-252.8" font-family="Times,serif" font-size="14.00">Orchestration Layer</text>
</g>
<g id="clust5" class="cluster">
<title>cluster_integration</title>
<polygon fill="none" stroke="#999999" stroke-dasharray="5,2" points="14.81,-296 14.81,-457 519.81,-457 519.81,-296 14.81,-296"/>
<text text-anchor="middle" x="267.31" y="-441.8" font-family="Times,serif" font-size="14.00">Integration Layer</text>
</g>
<!-- types -->
<g id="node1" class="node">
<title>types</title>
<polygon fill="#ffdab9" stroke="black" points="478.81,-155 380.81,-155 380.81,-119 478.81,-119 478.81,-155"/>
<text text-anchor="middle" x="429.81" y="-134.5" font-family="Helvetica,sans-Serif" font-size="10.00">amplihack&#45;types</text>
</g>
<!-- state -->
<g id="node2" class="node">
<title>state</title>
<polygon fill="#ffdab9" stroke="black" points="478.81,-237 382.81,-237 382.81,-201 478.81,-201 478.81,-237"/>
<text text-anchor="middle" x="430.81" y="-216.5" font-family="Helvetica,sans-Serif" font-size="10.00">amplihack&#45;state</text>
</g>
<!-- state&#45;&gt;types -->
<g id="edge1" class="edge">
<title>state&#45;&gt;types</title>
<path fill="none" stroke="black" d="M430.59,-200.64C430.46,-190.3 430.29,-176.94 430.15,-165.22"/>
<polygon fill="black" stroke="black" points="433.64,-165.01 430.02,-155.05 426.64,-165.09 433.64,-165.01"/>
<text text-anchor="middle" x="440.31" y="-175.8" font-family="Helvetica,sans-Serif" font-size="9.00">uses</text>
</g>
<!-- utils -->
<g id="node3" class="node">
<title>utils</title>
<polygon fill="#ffdab9" stroke="black" points="364.81,-237 272.81,-237 272.81,-201 364.81,-201 364.81,-237"/>
<text text-anchor="middle" x="318.81" y="-216.5" font-family="Helvetica,sans-Serif" font-size="10.00">amplihack&#45;utils</text>
</g>
<!-- security -->
<g id="node4" class="node">
<title>security</title>
<polygon fill="#ffdab9" stroke="black" points="254.81,-237 144.81,-237 144.81,-201 254.81,-201 254.81,-237"/>
<text text-anchor="middle" x="199.81" y="-216.5" font-family="Helvetica,sans-Serif" font-size="10.00">amplihack&#45;security</text>
</g>
<!-- safety -->
<g id="node5" class="node">
<title>safety</title>
<polygon fill="#ffdab9" stroke="black" points="126.81,-237 24.81,-237 24.81,-201 126.81,-201 126.81,-237"/>
<text text-anchor="middle" x="75.81" y="-216.5" font-family="Helvetica,sans-Serif" font-size="10.00">amplihack&#45;safety</text>
</g>
<!-- memory -->
<g id="node6" class="node">
<title>memory</title>
<polygon fill="#add8e6" stroke="black" points="856.31,-52 743.31,-52 743.31,-16 856.31,-16 856.31,-52"/>
<text text-anchor="middle" x="799.81" y="-31.5" font-family="Helvetica,sans-Serif" font-size="10.00">amplihack&#45;memory</text>
</g>
<!-- workflows -->
<g id="node7" class="node">
<title>workflows</title>
<polygon fill="#add8e6" stroke="black" points="725.31,-52 604.31,-52 604.31,-16 725.31,-16 725.31,-52"/>
<text text-anchor="middle" x="664.81" y="-31.5" font-family="Helvetica,sans-Serif" font-size="10.00">amplihack&#45;workflows</text>
</g>
<!-- recipe -->
<g id="node8" class="node">
<title>recipe</title>
<polygon fill="#add8e6" stroke="black" points="586.31,-52 485.31,-52 485.31,-16 586.31,-16 586.31,-52"/>
<text text-anchor="middle" x="535.81" y="-31.5" font-family="Helvetica,sans-Serif" font-size="10.00">amplihack&#45;recipe</text>
</g>
<!-- context -->
<g id="node9" class="node">
<title>context</title>
<polygon fill="#add8e6" stroke="black" points="466.81,-52 358.81,-52 358.81,-16 466.81,-16 466.81,-52"/>
<text text-anchor="middle" x="412.81" y="-31.5" font-family="Helvetica,sans-Serif" font-size="10.00">amplihack&#45;context</text>
</g>
<!-- delegation -->
<g id="node10" class="node">
<title>delegation</title>
<polygon fill="#add8e6" stroke="black" points="340.31,-52 217.31,-52 217.31,-16 340.31,-16 340.31,-52"/>
<text text-anchor="middle" x="278.81" y="-31.5" font-family="Helvetica,sans-Serif" font-size="10.00">amplihack&#45;delegation</text>
</g>
<!-- recovery -->
<g id="node11" class="node">
<title>recovery</title>
<polygon fill="#add8e6" stroke="black" points="198.81,-52 84.81,-52 84.81,-16 198.81,-16 198.81,-52"/>
<text text-anchor="middle" x="141.81" y="-31.5" font-family="Helvetica,sans-Serif" font-size="10.00">amplihack&#45;recovery</text>
</g>
<!-- agent_core -->
<g id="node12" class="node">
<title>agent_core</title>
<polygon fill="#98fb98" stroke="black" points="903.81,-155 779.81,-155 779.81,-119 903.81,-119 903.81,-155"/>
<text text-anchor="middle" x="841.81" y="-134.5" font-family="Helvetica,sans-Serif" font-size="10.00">amplihack&#45;agent&#45;core</text>
</g>
<!-- agent_core&#45;&gt;memory -->
<g id="edge2" class="edge">
<title>agent_core&#45;&gt;memory</title>
<path fill="none" stroke="black" d="M834.68,-118.87C828.16,-103.2 818.42,-79.77 810.89,-61.65"/>
<polygon fill="black" stroke="black" points="814.04,-60.11 806.96,-52.22 807.57,-62.79 814.04,-60.11"/>
<text text-anchor="middle" x="840.81" y="-93.8" font-family="Helvetica,sans-Serif" font-size="9.00">stores</text>
</g>
<!-- agent_eval -->
<g id="node13" class="node">
<title>agent_eval</title>
<polygon fill="#98fb98" stroke="black" points="1085.81,-237 961.81,-237 961.81,-201 1085.81,-201 1085.81,-237"/>
<text text-anchor="middle" x="1023.81" y="-216.5" font-family="Helvetica,sans-Serif" font-size="10.00">amplihack&#45;agent&#45;eval</text>
</g>
<!-- agent_gen -->
<g id="node14" class="node">
<title>agent_gen</title>
<polygon fill="#98fb98" stroke="black" points="943.81,-237 793.81,-237 793.81,-201 943.81,-201 943.81,-237"/>
<text text-anchor="middle" x="868.81" y="-216.5" font-family="Helvetica,sans-Serif" font-size="10.00">amplihack&#45;agent&#45;generator</text>
</g>
<!-- domain_agents -->
<g id="node15" class="node">
<title>domain_agents</title>
<polygon fill="#98fb98" stroke="black" points="775.31,-237 630.31,-237 630.31,-201 775.31,-201 775.31,-237"/>
<text text-anchor="middle" x="702.81" y="-216.5" font-family="Helvetica,sans-Serif" font-size="10.00">amplihack&#45;domain&#45;agents</text>
</g>
<!-- domain_agents&#45;&gt;memory -->
<g id="edge4" class="edge">
<title>domain_agents&#45;&gt;memory</title>
<path fill="none" stroke="black" d="M709.28,-200.9C717.65,-179.42 733.14,-141.66 749.81,-111 759.24,-93.65 771.38,-75.11 781.34,-60.69"/>
<polygon fill="black" stroke="black" points="784.36,-62.49 787.22,-52.29 778.62,-58.48 784.36,-62.49"/>
<text text-anchor="middle" x="760.31" y="-134.8" font-family="Helvetica,sans-Serif" font-size="9.00">uses</text>
</g>
<!-- domain_agents&#45;&gt;workflows -->
<g id="edge5" class="edge">
<title>domain_agents&#45;&gt;workflows</title>
<path fill="none" stroke="black" d="M695,-200.99C689.61,-188.51 682.73,-171.03 678.81,-155 671.16,-123.77 667.65,-86.9 666.07,-62.36"/>
<polygon fill="black" stroke="black" points="669.56,-62.11 665.48,-52.33 662.57,-62.51 669.56,-62.11"/>
<text text-anchor="middle" x="698.81" y="-134.8" font-family="Helvetica,sans-Serif" font-size="9.00">classifies</text>
</g>
<!-- domain_agents&#45;&gt;agent_core -->
<g id="edge3" class="edge">
<title>domain_agents&#45;&gt;agent_core</title>
<path fill="none" stroke="black" d="M732.62,-200.84C753.24,-188.97 780.85,-173.08 803.15,-160.25"/>
<polygon fill="black" stroke="black" points="805.11,-163.16 812.04,-155.13 801.62,-157.09 805.11,-163.16"/>
<text text-anchor="middle" x="798.31" y="-175.8" font-family="Helvetica,sans-Serif" font-size="9.00">extends</text>
</g>
<!-- hive -->
<g id="node16" class="node">
<title>hive</title>
<polygon fill="#dda0dd" stroke="black" points="1437.81,-237 1345.81,-237 1345.81,-201 1437.81,-201 1437.81,-237"/>
<text text-anchor="middle" x="1391.81" y="-216.5" font-family="Helvetica,sans-Serif" font-size="10.00">amplihack&#45;hive</text>
</g>
<!-- hive&#45;&gt;memory -->
<g id="edge7" class="edge">
<title>hive&#45;&gt;memory</title>
<path fill="none" stroke="black" d="M1355.63,-200.96C1349.39,-198.2 1342.95,-195.44 1336.81,-193 1232.46,-151.49 1205.41,-143.12 1097.81,-111 1018.93,-87.45 926.98,-64.7 866.31,-50.33"/>
<polygon fill="black" stroke="black" points="867.01,-46.9 856.48,-48.01 865.4,-53.71 867.01,-46.9"/>
<text text-anchor="middle" x="1264.31" y="-134.8" font-family="Helvetica,sans-Serif" font-size="9.00">shared state</text>
</g>
<!-- hive&#45;&gt;agent_core -->
<g id="edge6" class="edge">
<title>hive&#45;&gt;agent_core</title>
<path fill="none" stroke="black" d="M1359.35,-200.93C1352.1,-197.78 1344.33,-194.89 1336.81,-193 1271.14,-176.5 1252.18,-189.63 1184.81,-183 1090.95,-173.77 983.18,-158.93 913.88,-148.84"/>
<polygon fill="black" stroke="black" points="914.34,-145.37 903.94,-147.38 913.33,-152.29 914.34,-145.37"/>
<text text-anchor="middle" x="1213.31" y="-175.8" font-family="Helvetica,sans-Serif" font-size="9.00">orchestrates</text>
</g>
<!-- fleet -->
<g id="node17" class="node">
<title>fleet</title>
<polygon fill="#dda0dd" stroke="black" points="1327.31,-237 1234.31,-237 1234.31,-201 1327.31,-201 1327.31,-237"/>
<text text-anchor="middle" x="1280.81" y="-216.5" font-family="Helvetica,sans-Serif" font-size="10.00">amplihack&#45;fleet</text>
</g>
<!-- remote -->
<g id="node18" class="node">
<title>remote</title>
<polygon fill="#dda0dd" stroke="black" points="1216.31,-237 1109.31,-237 1109.31,-201 1216.31,-201 1216.31,-237"/>
<text text-anchor="middle" x="1162.81" y="-216.5" font-family="Helvetica,sans-Serif" font-size="10.00">amplihack&#45;remote</text>
</g>
<!-- cli -->
<g id="node19" class="node">
<title>cli</title>
<polygon fill="#ffd700" stroke="black" points="511.31,-340 428.31,-340 428.31,-304 511.31,-304 511.31,-340"/>
<text text-anchor="middle" x="469.81" y="-319.5" font-family="Helvetica,sans-Serif" font-size="10.00">amplihack&#45;cli</text>
</g>
<!-- cli&#45;&gt;types -->
<g id="edge8" class="edge">
<title>cli&#45;&gt;types</title>
<path fill="none" stroke="black" d="M477.84,-303.67C488.38,-278.32 503.76,-230.11 487.81,-193 482.62,-180.93 473.33,-170.26 463.69,-161.61"/>
<polygon fill="black" stroke="black" points="465.86,-158.87 455.95,-155.12 461.36,-164.23 465.86,-158.87"/>
<text text-anchor="middle" x="504.31" y="-216.8" font-family="Helvetica,sans-Serif" font-size="9.00">uses</text>
</g>
<!-- cli&#45;&gt;state -->
<g id="edge9" class="edge">
<title>cli&#45;&gt;state</title>
<path fill="none" stroke="black" d="M463.19,-303.87C457.14,-288.2 448.09,-264.77 441.1,-246.65"/>
<polygon fill="black" stroke="black" points="444.32,-245.29 437.45,-237.22 437.79,-247.81 444.32,-245.29"/>
<text text-anchor="middle" x="466.31" y="-278.8" font-family="Helvetica,sans-Serif" font-size="9.00">uses</text>
</g>
<!-- cli&#45;&gt;hive -->
<g id="edge10" class="edge">
<title>cli&#45;&gt;hive</title>
<path fill="none" stroke="black" d="M511.31,-320.03C673.59,-316.03 1259.98,-299.52 1336.81,-268 1349.26,-262.89 1360.85,-253.75 1370.15,-244.81"/>
<polygon fill="black" stroke="black" points="1372.88,-247.03 1377.39,-237.44 1367.89,-242.12 1372.88,-247.03"/>
<text text-anchor="middle" x="1321.31" y="-278.8" font-family="Helvetica,sans-Serif" font-size="9.00">optional</text>
</g>
<!-- hooks -->
<g id="node20" class="node">
<title>hooks</title>
<polygon fill="#ffd700" stroke="black" points="511.31,-426 410.31,-426 410.31,-390 511.31,-390 511.31,-426"/>
<text text-anchor="middle" x="460.81" y="-405.5" font-family="Helvetica,sans-Serif" font-size="10.00">amplihack&#45;hooks</text>
</g>
<!-- hooks&#45;&gt;types -->
<g id="edge11" class="edge">
<title>hooks&#45;&gt;types</title>
<path fill="none" stroke="black" d="M413.53,-389.96C409.57,-388.6 405.62,-387.26 401.81,-386 231.48,-329.69 122.51,-412.2 15.81,-268 -4.02,-241.21 -6.16,-218.07 15.81,-193 38.8,-166.75 261.39,-148.87 370.34,-141.62"/>
<polygon fill="black" stroke="black" points="370.76,-145.1 380.51,-140.96 370.3,-138.12 370.76,-145.1"/>
<text text-anchor="middle" x="39.31" y="-278.8" font-family="Helvetica,sans-Serif" font-size="9.00">uses</text>
</g>
<!-- hooks&#45;&gt;state -->
<g id="edge12" class="edge">
<title>hooks&#45;&gt;state</title>
<path fill="none" stroke="black" d="M437.89,-389.87C423.67,-377.72 406.67,-360.07 398.81,-340 386.46,-308.49 401.28,-270.51 414.6,-245.84"/>
<polygon fill="black" stroke="black" points="417.68,-247.5 419.57,-237.08 411.59,-244.05 417.68,-247.5"/>
<text text-anchor="middle" x="409.31" y="-319.8" font-family="Helvetica,sans-Serif" font-size="9.00">uses</text>
</g>
<!-- hooks&#45;&gt;security -->
<g id="edge14" class="edge">
<title>hooks&#45;&gt;security</title>
<path fill="none" stroke="black" d="M429.97,-389.85C407.31,-376.9 376.02,-358.28 349.81,-340 305.3,-308.96 256.77,-268.91 227.32,-243.83"/>
<polygon fill="black" stroke="black" points="229.41,-241.01 219.53,-237.18 224.86,-246.33 229.41,-241.01"/>
<text text-anchor="middle" x="369.81" y="-319.8" font-family="Helvetica,sans-Serif" font-size="9.00">validates</text>
</g>
<!-- hooks&#45;&gt;workflows -->
<g id="edge15" class="edge">
<title>hooks&#45;&gt;workflows</title>
<path fill="none" stroke="black" d="M508.26,-389.99C530.93,-381.49 553.97,-372.15 557.81,-368 572.01,-352.6 571.81,-343.95 571.81,-323 571.81,-323 571.81,-323 571.81,-136 571.81,-116.91 608.22,-82.16 635.48,-58.83"/>
<polygon fill="black" stroke="black" points="637.85,-61.4 643.24,-52.28 633.34,-56.06 637.85,-61.4"/>
<text text-anchor="middle" x="591.81" y="-216.8" font-family="Helvetica,sans-Serif" font-size="9.00">classifies</text>
</g>
<!-- hooks&#45;&gt;cli -->
<g id="edge13" class="edge">
<title>hooks&#45;&gt;cli</title>
<path fill="none" stroke="black" d="M461.96,-389.74C462.65,-380.34 463.63,-368.52 464.81,-358 465.09,-355.44 465.42,-352.77 465.77,-350.11"/>
<polygon fill="black" stroke="black" points="469.25,-350.45 467.16,-340.06 462.32,-349.49 469.25,-350.45"/>
<text text-anchor="middle" x="475.31" y="-360.8" font-family="Helvetica,sans-Serif" font-size="9.00">uses</text>
</g>
<!-- launcher -->
<g id="node21" class="node">
<title>launcher</title>
<polygon fill="#ffd700" stroke="black" points="392.31,-426 279.31,-426 279.31,-390 392.31,-390 392.31,-426"/>
<text text-anchor="middle" x="335.81" y="-405.5" font-family="Helvetica,sans-Serif" font-size="10.00">amplihack&#45;launcher</text>
</g>
<!-- blarify -->
<g id="node22" class="node">
<title>blarify</title>
<polygon fill="#ffd700" stroke="black" points="260.81,-426 158.81,-426 158.81,-390 260.81,-390 260.81,-426"/>
<text text-anchor="middle" x="209.81" y="-405.5" font-family="Helvetica,sans-Serif" font-size="10.00">amplihack&#45;blarify</text>
</g>
<!-- multilspy -->
<g id="node23" class="node">
<title>multilspy</title>
<polygon fill="#ffd700" stroke="black" points="140.31,-426 23.31,-426 23.31,-390 140.31,-390 140.31,-426"/>
<text text-anchor="middle" x="81.81" y="-405.5" font-family="Helvetica,sans-Serif" font-size="10.00">amplihack&#45;multilspy</text>
</g>
<!-- bin_amplihack -->
<g id="node24" class="node">
<title>bin_amplihack</title>
<polygon fill="#ff6347" stroke="black" points="648.77,-400.54 648.77,-415.46 614.82,-426 566.8,-426 532.84,-415.46 532.84,-400.54 566.8,-390 614.82,-390 648.77,-400.54"/>
<polygon fill="none" stroke="black" points="652.77,-397.6 652.77,-418.4 615.42,-430 566.19,-430 528.84,-418.4 528.84,-397.6 566.19,-386 615.42,-386 652.77,-397.6"/>
<text text-anchor="middle" x="590.81" y="-405.5" font-family="Helvetica,sans-Serif" font-size="10.00">bins/amplihack</text>
</g>
<!-- bin_amplihack&#45;&gt;cli -->
<g id="edge16" class="edge">
<title>bin_amplihack&#45;&gt;cli</title>
<path fill="none" stroke="black" d="M562.13,-387.09C544.39,-374.78 521.55,-358.92 503.03,-346.06"/>
<polygon fill="black" stroke="black" points="504.8,-343.03 494.59,-340.21 500.81,-348.78 504.8,-343.03"/>
<text text-anchor="middle" x="558.31" y="-360.8" font-family="Helvetica,sans-Serif" font-size="9.00">dispatches</text>
</g>
</g>
</svg>
