<?xml version="1.0" encoding="UTF-8" standalone="no"?>
<!DOCTYPE svg PUBLIC "-//W3C//DTD SVG 1.1//EN"
 "http://www.w3.org/Graphics/SVG/1.1/DTD/svg11.dtd">
<!-- Generated by graphviz version 2.42.4 (0)
 -->
<!-- Title: compile_deps Pages: 1 -->
<svg width="776pt" height="1406pt"
 viewBox="0.00 0.00 776.00 1406.22" xmlns="http://www.w3.org/2000/svg" xmlns:xlink="http://www.w3.org/1999/xlink">
<g id="graph0" class="graph" transform="scale(1 1) rotate(0) translate(4 1402.22)">
<title>compile_deps</title>
<polygon fill="white" stroke="transparent" points="-4,4 -4,-1402.22 772,-1402.22 772,4 -4,4"/>
<text text-anchor="middle" x="384" y="-1383.02" font-family="Times,serif" font-size="14.00">amplihack&#45;rs internal crate dependencies</text>
<g id="clust1" class="cluster">
<title>cluster_0</title>
<polygon fill="#000000" stroke="#000000" points="8,-765 8,-948 188,-948 188,-765 8,-765"/>
<text text-anchor="middle" x="98" y="-932.8" font-family="Times,serif" font-size="14.00">Entry points (bins)</text>
</g>
<g id="clust2" class="cluster">
<title>cluster_1</title>
<polygon fill="#000000" stroke="#000000" points="244,-873 244,-948 344,-948 344,-873 244,-873"/>
<text text-anchor="middle" x="294" y="-932.8" font-family="Times,serif" font-size="14.00">CLI core</text>
</g>
<g id="clust3" class="cluster">
<title>cluster_2</title>
<polygon fill="#000000" stroke="#000000" points="234.5,-765 234.5,-840 353.5,-840 353.5,-765 234.5,-765"/>
<text text-anchor="middle" x="294" y="-824.8" font-family="Times,serif" font-size="14.00">Hooks</text>
</g>
<g id="clust4" class="cluster">
<title>cluster_3</title>
<polygon fill="#000000" stroke="#000000" points="208,-8 208,-353 576,-353 576,-8 208,-8"/>
<text text-anchor="middle" x="392" y="-337.8" font-family="Times,serif" font-size="14.00">Agents / AI</text>
</g>
<g id="clust5" class="cluster">
<title>cluster_4</title>
<polygon fill="#000000" stroke="#000000" points="400,-811 400,-1048 609,-1048 609,-811 400,-811"/>
<text text-anchor="middle" x="504.5" y="-1032.8" font-family="Times,serif" font-size="14.00">Orchestration &amp; workflows</text>
</g>
<g id="clust6" class="cluster">
<title>cluster_5</title>
<polygon fill="#000000" stroke="#000000" points="407.5,-361 407.5,-598 600.5,-598 600.5,-361 407.5,-361"/>
<text text-anchor="middle" x="504" y="-582.8" font-family="Times,serif" font-size="14.00">State / memory / session</text>
</g>
<g id="clust7" class="cluster">
<title>cluster_6</title>
<polygon fill="#000000" stroke="#000000" points="426,-1124 426,-1253 582,-1253 582,-1124 426,-1124"/>
<text text-anchor="middle" x="504" y="-1237.8" font-family="Times,serif" font-size="14.00">Launcher &amp; remote</text>
</g>
<g id="clust8" class="cluster">
<title>cluster_7</title>
<polygon fill="#000000" stroke="#000000" points="629,-1032 629,-1215 760,-1215 760,-1032 629,-1032"/>
<text text-anchor="middle" x="694.5" y="-1199.8" font-family="Times,serif" font-size="14.00">Foundation</text>
</g>
<g id="clust9" class="cluster">
<title>cluster_8</title>
<polygon fill="#000000" stroke="#000000" points="433.5,-606 433.5,-735 575.5,-735 575.5,-606 433.5,-606"/>
<text text-anchor="middle" x="504.5" y="-719.8" font-family="Times,serif" font-size="14.00">Security &amp; safety</text>
</g>
<g id="clust10" class="cluster">
<title>cluster_9</title>
<polygon fill="#000000" stroke="#000000" points="30,-1040 30,-1169 166,-1169 166,-1040 30,-1040"/>
<text text-anchor="middle" x="98" y="-1153.8" font-family="Times,serif" font-size="14.00">Code analysis</text>
</g>
<!-- amplihack -->
<g id="node1" class="node">
<title>amplihack</title>
<path fill="none" stroke="black" d="M120.5,-863C120.5,-863 75.5,-863 75.5,-863 69.5,-863 63.5,-857 63.5,-851 63.5,-851 63.5,-839 63.5,-839 63.5,-833 69.5,-827 75.5,-827 75.5,-827 120.5,-827 120.5,-827 126.5,-827 132.5,-833 132.5,-839 132.5,-839 132.5,-851 132.5,-851 132.5,-857 126.5,-863 120.5,-863"/>
<text text-anchor="middle" x="98" y="-842.5" font-family="Times,serif" font-size="10.00">amplihack</text>
</g>
<!-- amplihack&#45;cli -->
<g id="node4" class="node">
<title>amplihack&#45;cli</title>
<path fill="none" stroke="black" d="M324,-917C324,-917 264,-917 264,-917 258,-917 252,-911 252,-905 252,-905 252,-893 252,-893 252,-887 258,-881 264,-881 264,-881 324,-881 324,-881 330,-881 336,-887 336,-893 336,-893 336,-905 336,-905 336,-911 330,-917 324,-917"/>
<text text-anchor="middle" x="294" y="-896.5" font-family="Times,serif" font-size="10.00">amplihack&#45;cli</text>
</g>
<!-- amplihack&#45;&gt;amplihack&#45;cli -->
<g id="edge1" class="edge">
<title>amplihack&#45;&gt;amplihack&#45;cli</title>
<path fill="none" stroke="black" d="M132.79,-854.41C162.93,-862.79 207.48,-875.2 241.96,-884.79"/>
<polygon fill="black" stroke="black" points="241.28,-888.24 251.85,-887.55 243.15,-881.49 241.28,-888.24"/>
</g>
<!-- amplihack&#45;hooks -->
<g id="node5" class="node">
<title>amplihack&#45;hooks</title>
<path fill="none" stroke="black" d="M333.5,-809C333.5,-809 254.5,-809 254.5,-809 248.5,-809 242.5,-803 242.5,-797 242.5,-797 242.5,-785 242.5,-785 242.5,-779 248.5,-773 254.5,-773 254.5,-773 333.5,-773 333.5,-773 339.5,-773 345.5,-779 345.5,-785 345.5,-785 345.5,-797 345.5,-797 345.5,-803 339.5,-809 333.5,-809"/>
<text text-anchor="middle" x="294" y="-788.5" font-family="Times,serif" font-size="10.00">amplihack&#45;hooks</text>
</g>
<!-- amplihack&#45;&gt;amplihack&#45;hooks -->
<g id="edge2" class="edge">
<title>amplihack&#45;&gt;amplihack&#45;hooks</title>
<path fill="none" stroke="black" d="M132.79,-835.59C160.24,-827.95 199.65,-816.98 232.51,-807.84"/>
<polygon fill="black" stroke="black" points="233.78,-811.12 242.48,-805.06 231.91,-804.37 233.78,-811.12"/>
</g>
<!-- amplihack&#45;state -->
<g id="node18" class="node">
<title>amplihack&#45;state</title>
<path fill="none" stroke="black" d="M541,-567C541,-567 467,-567 467,-567 461,-567 455,-561 455,-555 455,-555 455,-543 455,-543 455,-537 461,-531 467,-531 467,-531 541,-531 541,-531 547,-531 553,-537 553,-543 553,-543 553,-555 553,-555 553,-561 547,-567 541,-567"/>
<text text-anchor="middle" x="504" y="-546.5" font-family="Times,serif" font-size="10.00">amplihack&#45;state</text>
</g>
<!-- amplihack&#45;&gt;amplihack&#45;state -->
<g id="edge3" class="edge">
<title>amplihack&#45;&gt;amplihack&#45;state</title>
<path fill="none" stroke="black" d="M132.74,-842.15C151.17,-838.94 173.19,-832.19 188,-818 207.39,-799.43 191.16,-781.91 208,-761 261.7,-694.34 314.64,-723.54 372,-660 391.18,-638.75 380.02,-622.5 400,-602 412.73,-588.94 429.37,-578.48 445.55,-570.42"/>
<polygon fill="black" stroke="black" points="447.45,-573.39 454.99,-565.95 444.46,-567.07 447.45,-573.39"/>
</g>
<!-- amplihack&#45;types -->
<g id="node23" class="node">
<title>amplihack&#45;types</title>
<path fill="none" stroke="black" d="M733,-1130C733,-1130 656,-1130 656,-1130 650,-1130 644,-1124 644,-1118 644,-1118 644,-1106 644,-1106 644,-1100 650,-1094 656,-1094 656,-1094 733,-1094 733,-1094 739,-1094 745,-1100 745,-1106 745,-1106 745,-1118 745,-1118 745,-1124 739,-1130 733,-1130"/>
<text text-anchor="middle" x="694.5" y="-1109.5" font-family="Times,serif" font-size="10.00">amplihack&#45;types</text>
</g>
<!-- amplihack&#45;&gt;amplihack&#45;types -->
<g id="edge4" class="edge">
<title>amplihack&#45;&gt;amplihack&#45;types</title>
<path fill="none" stroke="black" d="M132.63,-846.1C151.99,-848.64 174.99,-855.32 188,-872 216.25,-908.23 174.74,-1253.31 208,-1285 337.03,-1407.94 474.7,-1402.16 609,-1285 658.35,-1241.95 589.09,-1190.93 629,-1139 630.87,-1136.56 633.01,-1134.35 635.33,-1132.33"/>
<polygon fill="black" stroke="black" points="637.78,-1134.87 643.86,-1126.19 633.7,-1129.19 637.78,-1134.87"/>
</g>
<!-- amplihack&#45;hooks&#45;bin -->
<g id="node2" class="node">
<title>amplihack&#45;hooks&#45;bin</title>
<path fill="none" stroke="black" d="M147.5,-809C147.5,-809 48.5,-809 48.5,-809 42.5,-809 36.5,-803 36.5,-797 36.5,-797 36.5,-785 36.5,-785 36.5,-779 42.5,-773 48.5,-773 48.5,-773 147.5,-773 147.5,-773 153.5,-773 159.5,-779 159.5,-785 159.5,-785 159.5,-797 159.5,-797 159.5,-803 153.5,-809 147.5,-809"/>
<text text-anchor="middle" x="98" y="-788.5" font-family="Times,serif" font-size="10.00">amplihack&#45;hooks&#45;bin</text>
</g>
<!-- amplihack&#45;hooks&#45;bin&#45;&gt;amplihack&#45;hooks -->
<g id="edge28" class="edge">
<title>amplihack&#45;hooks&#45;bin&#45;&gt;amplihack&#45;hooks</title>
<path fill="none" stroke="black" d="M159.58,-791C182.73,-791 209.11,-791 232.27,-791"/>
<polygon fill="black" stroke="black" points="232.32,-794.5 242.32,-791 232.32,-787.5 232.32,-794.5"/>
</g>
<!-- amplihack&#45;hooks&#45;bin&#45;&gt;amplihack&#45;state -->
<g id="edge29" class="edge">
<title>amplihack&#45;hooks&#45;bin&#45;&gt;amplihack&#45;state</title>
<path fill="none" stroke="black" d="M115.76,-772.64C136.08,-751.13 172.07,-715.34 208,-691 284.94,-638.87 383.93,-595.41 445.43,-570.8"/>
<polygon fill="black" stroke="black" points="446.96,-573.96 454.96,-567.02 444.38,-567.45 446.96,-573.96"/>
</g>
<!-- amplihack&#45;hooks&#45;bin&#45;&gt;amplihack&#45;types -->
<g id="edge30" class="edge">
<title>amplihack&#45;hooks&#45;bin&#45;&gt;amplihack&#45;types</title>
<path fill="none" stroke="black" d="M159.52,-799.33C170.33,-803.38 180.51,-809.32 188,-818 227.35,-863.58 187.07,-895.54 208,-952 263.68,-1102.19 259.78,-1179.58 400,-1257 440.66,-1279.45 573.52,-1286.97 609,-1257 649.63,-1222.67 595.92,-1180.66 629,-1139 630.88,-1136.64 632.99,-1134.48 635.29,-1132.51"/>
<polygon fill="black" stroke="black" points="637.6,-1135.16 643.7,-1126.5 633.53,-1129.47 637.6,-1135.16"/>
</g>
<!-- amplihack&#45;asset&#45;resolver&#45;bin -->
<g id="node3" class="node">
<title>amplihack&#45;asset&#45;resolver&#45;bin</title>
<path fill="none" stroke="black" d="M168,-917C168,-917 28,-917 28,-917 22,-917 16,-911 16,-905 16,-905 16,-893 16,-893 16,-887 22,-881 28,-881 28,-881 168,-881 168,-881 174,-881 180,-887 180,-893 180,-893 180,-905 180,-905 180,-911 174,-917 168,-917"/>
<text text-anchor="middle" x="98" y="-896.5" font-family="Times,serif" font-size="10.00">amplihack&#45;asset&#45;resolver&#45;bin</text>
</g>
<!-- amplihack&#45;asset&#45;resolver&#45;bin&#45;&gt;amplihack&#45;cli -->
<g id="edge6" class="edge">
<title>amplihack&#45;asset&#45;resolver&#45;bin&#45;&gt;amplihack&#45;cli</title>
<path fill="none" stroke="black" d="M180.15,-899C201,-899 222.85,-899 241.72,-899"/>
<polygon fill="black" stroke="black" points="241.87,-902.5 251.87,-899 241.86,-895.5 241.87,-902.5"/>
</g>
<!-- amplihack&#45;hive -->
<g id="node10" class="node">
<title>amplihack&#45;hive</title>
<path fill="none" stroke="black" d="M329.5,-160C329.5,-160 258.5,-160 258.5,-160 252.5,-160 246.5,-154 246.5,-148 246.5,-148 246.5,-136 246.5,-136 246.5,-130 252.5,-124 258.5,-124 258.5,-124 329.5,-124 329.5,-124 335.5,-124 341.5,-130 341.5,-136 341.5,-136 341.5,-148 341.5,-148 341.5,-154 335.5,-160 329.5,-160"/>
<text text-anchor="middle" x="294" y="-139.5" font-family="Times,serif" font-size="10.00">amplihack&#45;hive</text>
</g>
<!-- amplihack&#45;cli&#45;&gt;amplihack&#45;hive -->
<g id="edge8" class="edge">
<title>amplihack&#45;cli&#45;&gt;amplihack&#45;hive</title>
<path fill="none" stroke="black" d="M251.81,-883.6C230.94,-873.41 208.11,-857.69 198,-835 190.58,-818.33 190.58,-194.67 198,-178 204.96,-162.37 220.23,-153.4 236.59,-148.3"/>
<polygon fill="black" stroke="black" points="237.53,-151.67 246.29,-145.71 235.73,-144.9 237.53,-151.67"/>
</g>
<!-- amplihack&#45;workflows -->
<g id="node14" class="node">
<title>amplihack&#45;workflows</title>
<path fill="none" stroke="black" d="M554,-909C554,-909 454,-909 454,-909 448,-909 442,-903 442,-897 442,-897 442,-885 442,-885 442,-879 448,-873 454,-873 454,-873 554,-873 554,-873 560,-873 566,-879 566,-885 566,-885 566,-897 566,-897 566,-903 560,-909 554,-909"/>
<text text-anchor="middle" x="504" y="-888.5" font-family="Times,serif" font-size="10.00">amplihack&#45;workflows</text>
</g>
<!-- amplihack&#45;cli&#45;&gt;amplihack&#45;workflows -->
<g id="edge16" class="edge">
<title>amplihack&#45;cli&#45;&gt;amplihack&#45;workflows</title>
<path fill="none" stroke="black" d="M336.09,-897.42C363.34,-896.37 399.8,-894.97 431.7,-893.74"/>
<polygon fill="black" stroke="black" points="432.02,-897.23 441.88,-893.35 431.75,-890.24 432.02,-897.23"/>
</g>
<!-- amplihack&#45;reflection -->
<g id="node15" class="node">
<title>amplihack&#45;reflection</title>
<path fill="none" stroke="black" d="M552.5,-963C552.5,-963 455.5,-963 455.5,-963 449.5,-963 443.5,-957 443.5,-951 443.5,-951 443.5,-939 443.5,-939 443.5,-933 449.5,-927 455.5,-927 455.5,-927 552.5,-927 552.5,-927 558.5,-927 564.5,-933 564.5,-939 564.5,-939 564.5,-951 564.5,-951 564.5,-957 558.5,-963 552.5,-963"/>
<text text-anchor="middle" x="504" y="-942.5" font-family="Times,serif" font-size="10.00">amplihack&#45;reflection</text>
</g>
<!-- amplihack&#45;cli&#45;&gt;amplihack&#45;reflection -->
<g id="edge11" class="edge">
<title>amplihack&#45;cli&#45;&gt;amplihack&#45;reflection</title>
<path fill="none" stroke="black" d="M336.09,-908.09C363.88,-914.23 401.27,-922.5 433.62,-929.66"/>
<polygon fill="black" stroke="black" points="432.96,-933.09 443.48,-931.84 434.47,-926.26 432.96,-933.09"/>
</g>
<!-- amplihack&#45;memory -->
<g id="node17" class="node">
<title>amplihack&#45;memory</title>
<path fill="none" stroke="black" d="M549.5,-513C549.5,-513 458.5,-513 458.5,-513 452.5,-513 446.5,-507 446.5,-501 446.5,-501 446.5,-489 446.5,-489 446.5,-483 452.5,-477 458.5,-477 458.5,-477 549.5,-477 549.5,-477 555.5,-477 561.5,-483 561.5,-489 561.5,-489 561.5,-501 561.5,-501 561.5,-507 555.5,-513 549.5,-513"/>
<text text-anchor="middle" x="504" y="-492.5" font-family="Times,serif" font-size="10.00">amplihack&#45;memory</text>
</g>
<!-- amplihack&#45;cli&#45;&gt;amplihack&#45;memory -->
<g id="edge10" class="edge">
<title>amplihack&#45;cli&#45;&gt;amplihack&#45;memory</title>
<path fill="none" stroke="black" d="M333.23,-880.81C347.85,-871.83 363.12,-859.55 372,-844 407.6,-781.62 353.7,-576.91 400,-522 409.34,-510.92 422.63,-504.09 436.56,-499.96"/>
<polygon fill="black" stroke="black" points="437.43,-503.35 446.27,-497.5 435.71,-496.56 437.43,-503.35"/>
</g>
<!-- amplihack&#45;cli&#45;&gt;amplihack&#45;state -->
<g id="edge13" class="edge">
<title>amplihack&#45;cli&#45;&gt;amplihack&#45;state</title>
<path fill="none" stroke="black" d="M332.61,-880.93C347.31,-871.91 362.82,-859.57 372,-844 427,-750.74 338.38,-691.03 400,-602 410.96,-586.16 428.13,-574.76 445.34,-566.69"/>
<polygon fill="black" stroke="black" points="447.09,-569.74 454.86,-562.54 444.29,-563.32 447.09,-569.74"/>
</g>
<!-- amplihack&#45;launcher -->
<g id="node21" class="node">
<title>amplihack&#45;launcher</title>
<path fill="none" stroke="black" d="M551,-1222C551,-1222 457,-1222 457,-1222 451,-1222 445,-1216 445,-1210 445,-1210 445,-1198 445,-1198 445,-1192 451,-1186 457,-1186 457,-1186 551,-1186 551,-1186 557,-1186 563,-1192 563,-1198 563,-1198 563,-1210 563,-1210 563,-1216 557,-1222 551,-1222"/>
<text text-anchor="middle" x="504" y="-1201.5" font-family="Times,serif" font-size="10.00">amplihack&#45;launcher</text>
</g>
<!-- amplihack&#45;cli&#45;&gt;amplihack&#45;launcher -->
<g id="edge9" class="edge">
<title>amplihack&#45;cli&#45;&gt;amplihack&#45;launcher</title>
<path fill="none" stroke="black" d="M296.28,-917.08C300.78,-966.55 320.25,-1105.2 400,-1177 409.85,-1185.87 422.27,-1191.89 435.04,-1195.96"/>
<polygon fill="black" stroke="black" points="434.26,-1199.38 444.84,-1198.71 436.15,-1192.64 434.26,-1199.38"/>
</g>
<!-- amplihack&#45;remote -->
<g id="node22" class="node">
<title>amplihack&#45;remote</title>
<path fill="none" stroke="black" d="M546.5,-1168C546.5,-1168 461.5,-1168 461.5,-1168 455.5,-1168 449.5,-1162 449.5,-1156 449.5,-1156 449.5,-1144 449.5,-1144 449.5,-1138 455.5,-1132 461.5,-1132 461.5,-1132 546.5,-1132 546.5,-1132 552.5,-1132 558.5,-1138 558.5,-1144 558.5,-1144 558.5,-1156 558.5,-1156 558.5,-1162 552.5,-1168 546.5,-1168"/>
<text text-anchor="middle" x="504" y="-1147.5" font-family="Times,serif" font-size="10.00">amplihack&#45;remote</text>
</g>
<!-- amplihack&#45;cli&#45;&gt;amplihack&#45;remote -->
<g id="edge12" class="edge">
<title>amplihack&#45;cli&#45;&gt;amplihack&#45;remote</title>
<path fill="none" stroke="black" d="M298.58,-917.31C307.71,-959.19 335.86,-1062.6 400,-1118 411.23,-1127.7 425.37,-1134.46 439.54,-1139.17"/>
<polygon fill="black" stroke="black" points="438.75,-1142.58 449.33,-1142.11 440.76,-1135.88 438.75,-1142.58"/>
</g>
<!-- amplihack&#45;cli&#45;&gt;amplihack&#45;types -->
<g id="edge14" class="edge">
<title>amplihack&#45;cli&#45;&gt;amplihack&#45;types</title>
<path fill="none" stroke="black" d="M299.6,-917.19C310.17,-954.82 340.01,-1040.97 400,-1080 437.34,-1104.3 559.29,-1110.35 633.73,-1111.74"/>
<polygon fill="black" stroke="black" points="633.85,-1115.24 643.91,-1111.9 633.96,-1108.24 633.85,-1115.24"/>
</g>
<!-- amplihack&#45;utils -->
<g id="node24" class="node">
<title>amplihack&#45;utils</title>
<path fill="none" stroke="black" d="M730,-1076C730,-1076 659,-1076 659,-1076 653,-1076 647,-1070 647,-1064 647,-1064 647,-1052 647,-1052 647,-1046 653,-1040 659,-1040 659,-1040 730,-1040 730,-1040 736,-1040 742,-1046 742,-1052 742,-1052 742,-1064 742,-1064 742,-1070 736,-1076 730,-1076"/>
<text text-anchor="middle" x="694.5" y="-1055.5" font-family="Times,serif" font-size="10.00">amplihack&#45;utils</text>
</g>
<!-- amplihack&#45;cli&#45;&gt;amplihack&#45;utils -->
<g id="edge15" class="edge">
<title>amplihack&#45;cli&#45;&gt;amplihack&#45;utils</title>
<path fill="none" stroke="black" d="M301.1,-917.13C313.56,-950.88 345.42,-1022.55 400,-1052 474.14,-1092.01 574.9,-1082.85 637,-1071.34"/>
<polygon fill="black" stroke="black" points="637.84,-1074.74 647,-1069.41 636.51,-1067.87 637.84,-1074.74"/>
</g>
<!-- amplihack&#45;builders -->
<g id="node25" class="node">
<title>amplihack&#45;builders</title>
<path fill="none" stroke="black" d="M740,-1184C740,-1184 649,-1184 649,-1184 643,-1184 637,-1178 637,-1172 637,-1172 637,-1160 637,-1160 637,-1154 643,-1148 649,-1148 649,-1148 740,-1148 740,-1148 746,-1148 752,-1154 752,-1160 752,-1160 752,-1172 752,-1172 752,-1178 746,-1184 740,-1184"/>
<text text-anchor="middle" x="694.5" y="-1163.5" font-family="Times,serif" font-size="10.00">amplihack&#45;builders</text>
</g>
<!-- amplihack&#45;cli&#45;&gt;amplihack&#45;builders -->
<g id="edge7" class="edge">
<title>amplihack&#45;cli&#45;&gt;amplihack&#45;builders</title>
<path fill="none" stroke="black" d="M297.45,-917.06C306.91,-983.77 343.36,-1214.59 400,-1257 474.35,-1312.68 523.85,-1294.13 609,-1257 638.87,-1243.97 662.93,-1214.6 677.63,-1192.73"/>
<polygon fill="black" stroke="black" points="680.66,-1194.47 683.16,-1184.18 674.79,-1190.67 680.66,-1194.47"/>
</g>
<!-- amplihack&#45;hooks&#45;&gt;amplihack&#45;cli -->
<g id="edge22" class="edge">
<title>amplihack&#45;hooks&#45;&gt;amplihack&#45;cli</title>
<path fill="none" stroke="black" d="M294,-809.14C294,-829.65 294,-850.17 294,-870.68"/>
<polygon fill="black" stroke="black" points="290.5,-870.75 294,-880.75 297.5,-870.75 290.5,-870.75"/>
</g>
<!-- amplihack&#45;hooks&#45;&gt;amplihack&#45;workflows -->
<g id="edge27" class="edge">
<title>amplihack&#45;hooks&#45;&gt;amplihack&#45;workflows</title>
<path fill="none" stroke="black" d="M316.15,-809.08C336.44,-825.56 368.55,-849.5 400,-864 410.13,-868.67 421.2,-872.64 432.22,-875.97"/>
<polygon fill="black" stroke="black" points="431.27,-879.35 441.85,-878.75 433.21,-872.62 431.27,-879.35"/>
</g>
<!-- amplihack&#45;hooks&#45;&gt;amplihack&#45;state -->
<g id="edge24" class="edge">
<title>amplihack&#45;hooks&#45;&gt;amplihack&#45;state</title>
<path fill="none" stroke="black" d="M321.27,-772.84C338.23,-759.77 359.39,-740.67 372,-719 398.89,-672.78 367,-644.07 400,-602 411.68,-587.11 428.68,-576.01 445.52,-567.92"/>
<polygon fill="black" stroke="black" points="447.15,-571.03 454.83,-563.73 444.27,-564.65 447.15,-571.03"/>
</g>
<!-- amplihack&#45;hooks&#45;&gt;amplihack&#45;types -->
<g id="edge25" class="edge">
<title>amplihack&#45;hooks&#45;&gt;amplihack&#45;types</title>
<path fill="none" stroke="black" d="M345.74,-785.86C425.01,-779.05 572.93,-771.67 609,-807 653.25,-850.34 592.86,-1034.7 629,-1085 630.95,-1087.71 633.22,-1090.15 635.73,-1092.35"/>
<polygon fill="black" stroke="black" points="633.7,-1095.2 643.86,-1098.23 637.81,-1089.53 633.7,-1095.2"/>
</g>
<!-- amplihack&#45;hooks&#45;&gt;amplihack&#45;utils -->
<g id="edge26" class="edge">
<title>amplihack&#45;hooks&#45;&gt;amplihack&#45;utils</title>
<path fill="none" stroke="black" d="M339.65,-772.92C405.59,-749.47 529.74,-718.07 609,-777 650.24,-807.66 678.96,-964.55 689.28,-1029.64"/>
<polygon fill="black" stroke="black" points="685.84,-1030.28 690.83,-1039.62 692.76,-1029.2 685.84,-1030.28"/>
</g>
<!-- amplihack&#45;security -->
<g id="node26" class="node">
<title>amplihack&#45;security</title>
<path fill="none" stroke="black" d="M548.5,-704C548.5,-704 459.5,-704 459.5,-704 453.5,-704 447.5,-698 447.5,-692 447.5,-692 447.5,-680 447.5,-680 447.5,-674 453.5,-668 459.5,-668 459.5,-668 548.5,-668 548.5,-668 554.5,-668 560.5,-674 560.5,-680 560.5,-680 560.5,-692 560.5,-692 560.5,-698 554.5,-704 548.5,-704"/>
<text text-anchor="middle" x="504" y="-683.5" font-family="Times,serif" font-size="10.00">amplihack&#45;security</text>
</g>
<!-- amplihack&#45;hooks&#45;&gt;amplihack&#45;security -->
<g id="edge23" class="edge">
<title>amplihack&#45;hooks&#45;&gt;amplihack&#45;security</title>
<path fill="none" stroke="black" d="M330.76,-772.95C365.88,-755.22 419.59,-728.11 457.69,-708.87"/>
<polygon fill="black" stroke="black" points="459.66,-711.8 467.01,-704.17 456.51,-705.55 459.66,-711.8"/>
</g>
<!-- amplihack&#45;agent&#45;core -->
<g id="node6" class="node">
<title>amplihack&#45;agent&#45;core</title>
<path fill="none" stroke="black" d="M556,-214C556,-214 452,-214 452,-214 446,-214 440,-208 440,-202 440,-202 440,-190 440,-190 440,-184 446,-178 452,-178 452,-178 556,-178 556,-178 562,-178 568,-184 568,-190 568,-190 568,-202 568,-202 568,-208 562,-214 556,-214"/>
<text text-anchor="middle" x="504" y="-193.5" font-family="Times,serif" font-size="10.00">amplihack&#45;agent&#45;core</text>
</g>
<!-- amplihack&#45;agent&#45;core&#45;&gt;amplihack&#45;memory -->
<g id="edge5" class="edge">
<title>amplihack&#45;agent&#45;core&#45;&gt;amplihack&#45;memory</title>
<path fill="none" stroke="black" d="M485.48,-214.28C457.5,-243.35 405.64,-303.26 386,-366 373.65,-405.45 366.19,-422.72 386,-459 396.1,-477.5 415.87,-487.09 436.38,-491.9"/>
<polygon fill="black" stroke="black" points="435.98,-495.39 446.47,-493.89 437.34,-488.52 435.98,-495.39"/>
</g>
<!-- amplihack&#45;agent&#45;eval -->
<g id="node7" class="node">
<title>amplihack&#45;agent&#45;eval</title>
<path fill="none" stroke="black" d="M345.5,-322C345.5,-322 242.5,-322 242.5,-322 236.5,-322 230.5,-316 230.5,-310 230.5,-310 230.5,-298 230.5,-298 230.5,-292 236.5,-286 242.5,-286 242.5,-286 345.5,-286 345.5,-286 351.5,-286 357.5,-292 357.5,-298 357.5,-298 357.5,-310 357.5,-310 357.5,-316 351.5,-322 345.5,-322"/>
<text text-anchor="middle" x="294" y="-301.5" font-family="Times,serif" font-size="10.00">amplihack&#45;agent&#45;eval</text>
</g>
<!-- amplihack&#45;agent&#45;generator -->
<g id="node8" class="node">
<title>amplihack&#45;agent&#45;generator</title>
<path fill="none" stroke="black" d="M360,-268C360,-268 228,-268 228,-268 222,-268 216,-262 216,-256 216,-256 216,-244 216,-244 216,-238 222,-232 228,-232 228,-232 360,-232 360,-232 366,-232 372,-238 372,-244 372,-244 372,-256 372,-256 372,-262 366,-268 360,-268"/>
<text text-anchor="middle" x="294" y="-247.5" font-family="Times,serif" font-size="10.00">amplihack&#45;agent&#45;generator</text>
</g>
<!-- amplihack&#45;domain&#45;agents -->
<g id="node9" class="node">
<title>amplihack&#45;domain&#45;agents</title>
<path fill="none" stroke="black" d="M356.5,-214C356.5,-214 231.5,-214 231.5,-214 225.5,-214 219.5,-208 219.5,-202 219.5,-202 219.5,-190 219.5,-190 219.5,-184 225.5,-178 231.5,-178 231.5,-178 356.5,-178 356.5,-178 362.5,-178 368.5,-184 368.5,-190 368.5,-190 368.5,-202 368.5,-202 368.5,-208 362.5,-214 356.5,-214"/>
<text text-anchor="middle" x="294" y="-193.5" font-family="Times,serif" font-size="10.00">amplihack&#45;domain&#45;agents</text>
</g>
<!-- amplihack&#45;domain&#45;agents&#45;&gt;amplihack&#45;agent&#45;core -->
<g id="edge17" class="edge">
<title>amplihack&#45;domain&#45;agents&#45;&gt;amplihack&#45;agent&#45;core</title>
<path fill="none" stroke="black" d="M368.63,-196C388.43,-196 409.84,-196 429.63,-196"/>
<polygon fill="black" stroke="black" points="429.82,-199.5 439.82,-196 429.82,-192.5 429.82,-199.5"/>
</g>
<!-- amplihack&#45;domain&#45;agents&#45;&gt;amplihack&#45;workflows -->
<g id="edge19" class="edge">
<title>amplihack&#45;domain&#45;agents&#45;&gt;amplihack&#45;workflows</title>
<path fill="none" stroke="black" d="M363.48,-214.26C366.67,-216.8 369.55,-219.7 372,-223 414.49,-280.24 355.23,-808.52 400,-864 408.23,-874.2 419.81,-880.82 432.25,-885.07"/>
<polygon fill="black" stroke="black" points="431.3,-888.44 441.88,-887.87 433.26,-881.71 431.3,-888.44"/>
</g>
<!-- amplihack&#45;domain&#45;agents&#45;&gt;amplihack&#45;memory -->
<g id="edge18" class="edge">
<title>amplihack&#45;domain&#45;agents&#45;&gt;amplihack&#45;memory</title>
<path fill="none" stroke="black" d="M362.88,-214.21C366.26,-216.76 369.35,-219.68 372,-223 440.37,-308.65 328.22,-385.18 400,-468 409.49,-478.95 422.83,-485.73 436.77,-489.86"/>
<polygon fill="black" stroke="black" points="435.93,-493.26 446.48,-492.32 437.64,-486.47 435.93,-493.26"/>
</g>
<!-- amplihack&#45;hive&#45;&gt;amplihack&#45;agent&#45;core -->
<g id="edge20" class="edge">
<title>amplihack&#45;hive&#45;&gt;amplihack&#45;agent&#45;core</title>
<path fill="none" stroke="black" d="M341.68,-154.12C367.72,-160.88 400.74,-169.45 430.11,-177.08"/>
<polygon fill="black" stroke="black" points="429.35,-180.5 439.91,-179.62 431.11,-173.72 429.35,-180.5"/>
</g>
<!-- amplihack&#45;hive&#45;&gt;amplihack&#45;memory -->
<g id="edge21" class="edge">
<title>amplihack&#45;hive&#45;&gt;amplihack&#45;memory</title>
<path fill="none" stroke="black" d="M341.84,-149.21C353.35,-153.21 364.5,-159.4 372,-169 413.1,-221.58 356.81,-417.13 400,-468 409.38,-479.05 422.68,-485.86 436.61,-490"/>
<polygon fill="black" stroke="black" points="435.77,-493.4 446.32,-492.45 437.48,-486.61 435.77,-493.4"/>
</g>
<!-- amplihack&#45;delegation -->
<g id="node11" class="node">
<title>amplihack&#45;delegation</title>
<path fill="none" stroke="black" d="M345.5,-106C345.5,-106 242.5,-106 242.5,-106 236.5,-106 230.5,-100 230.5,-94 230.5,-94 230.5,-82 230.5,-82 230.5,-76 236.5,-70 242.5,-70 242.5,-70 345.5,-70 345.5,-70 351.5,-70 357.5,-76 357.5,-82 357.5,-82 357.5,-94 357.5,-94 357.5,-100 351.5,-106 345.5,-106"/>
<text text-anchor="middle" x="294" y="-85.5" font-family="Times,serif" font-size="10.00">amplihack&#45;delegation</text>
</g>
<!-- amplihack&#45;fleet -->
<g id="node12" class="node">
<title>amplihack&#45;fleet</title>
<path fill="none" stroke="black" d="M329.5,-52C329.5,-52 258.5,-52 258.5,-52 252.5,-52 246.5,-46 246.5,-40 246.5,-40 246.5,-28 246.5,-28 246.5,-22 252.5,-16 258.5,-16 258.5,-16 329.5,-16 329.5,-16 335.5,-16 341.5,-22 341.5,-28 341.5,-28 341.5,-40 341.5,-40 341.5,-46 335.5,-52 329.5,-52"/>
<text text-anchor="middle" x="294" y="-31.5" font-family="Times,serif" font-size="10.00">amplihack&#45;fleet</text>
</g>
<!-- amplihack&#45;orchestration -->
<g id="node13" class="node">
<title>amplihack&#45;orchestration</title>
<path fill="none" stroke="black" d="M562,-1017C562,-1017 446,-1017 446,-1017 440,-1017 434,-1011 434,-1005 434,-1005 434,-993 434,-993 434,-987 440,-981 446,-981 446,-981 562,-981 562,-981 568,-981 574,-987 574,-993 574,-993 574,-1005 574,-1005 574,-1011 568,-1017 562,-1017"/>
<text text-anchor="middle" x="504" y="-996.5" font-family="Times,serif" font-size="10.00">amplihack&#45;orchestration</text>
</g>
<!-- amplihack&#45;orchestration&#45;&gt;amplihack&#45;utils -->
<g id="edge33" class="edge">
<title>amplihack&#45;orchestration&#45;&gt;amplihack&#45;utils</title>
<path fill="none" stroke="black" d="M562.58,-1017.02C586.17,-1024.41 613.39,-1032.93 636.88,-1040.28"/>
<polygon fill="black" stroke="black" points="636.11,-1043.7 646.7,-1043.35 638.2,-1037.02 636.11,-1043.7"/>
</g>
<!-- amplihack&#45;workflows&#45;&gt;amplihack&#45;utils -->
<g id="edge35" class="edge">
<title>amplihack&#45;workflows&#45;&gt;amplihack&#45;utils</title>
<path fill="none" stroke="black" d="M566.02,-898.57C581.11,-902.58 596.51,-908.69 609,-918 647.4,-946.64 671.89,-998.35 684.12,-1030.27"/>
<polygon fill="black" stroke="black" points="680.93,-1031.72 687.67,-1039.89 687.49,-1029.3 680.93,-1031.72"/>
</g>
<!-- amplihack&#45;recovery -->
<g id="node16" class="node">
<title>amplihack&#45;recovery</title>
<path fill="none" stroke="black" d="M550.5,-855C550.5,-855 457.5,-855 457.5,-855 451.5,-855 445.5,-849 445.5,-843 445.5,-843 445.5,-831 445.5,-831 445.5,-825 451.5,-819 457.5,-819 457.5,-819 550.5,-819 550.5,-819 556.5,-819 562.5,-825 562.5,-831 562.5,-831 562.5,-843 562.5,-843 562.5,-849 556.5,-855 550.5,-855"/>
<text text-anchor="middle" x="504" y="-834.5" font-family="Times,serif" font-size="10.00">amplihack&#45;recovery</text>
</g>
<!-- amplihack&#45;state&#45;&gt;amplihack&#45;types -->
<g id="edge34" class="edge">
<title>amplihack&#45;state&#45;&gt;amplihack&#45;types</title>
<path fill="none" stroke="black" d="M553.17,-561.57C573.96,-569.59 596.36,-582.3 609,-602 638,-647.21 598.32,-1040.91 629,-1085 630.91,-1087.74 633.15,-1090.2 635.63,-1092.42"/>
<polygon fill="black" stroke="black" points="633.57,-1095.25 643.7,-1098.34 637.71,-1089.6 633.57,-1095.25"/>
</g>
<!-- amplihack&#45;session -->
<g id="node19" class="node">
<title>amplihack&#45;session</title>
<path fill="none" stroke="black" d="M547,-459C547,-459 461,-459 461,-459 455,-459 449,-453 449,-447 449,-447 449,-435 449,-435 449,-429 455,-423 461,-423 461,-423 547,-423 547,-423 553,-423 559,-429 559,-435 559,-435 559,-447 559,-447 559,-453 553,-459 547,-459"/>
<text text-anchor="middle" x="504" y="-438.5" font-family="Times,serif" font-size="10.00">amplihack&#45;session</text>
</g>
<!-- amplihack&#45;context -->
<g id="node20" class="node">
<title>amplihack&#45;context</title>
<path fill="none" stroke="black" d="M547,-405C547,-405 461,-405 461,-405 455,-405 449,-399 449,-393 449,-393 449,-381 449,-381 449,-375 455,-369 461,-369 461,-369 547,-369 547,-369 553,-369 559,-375 559,-381 559,-381 559,-393 559,-393 559,-399 553,-405 547,-405"/>
<text text-anchor="middle" x="504" y="-384.5" font-family="Times,serif" font-size="10.00">amplihack&#45;context</text>
</g>
<!-- amplihack&#45;launcher&#45;&gt;amplihack&#45;types -->
<g id="edge31" class="edge">
<title>amplihack&#45;launcher&#45;&gt;amplihack&#45;types</title>
<path fill="none" stroke="black" d="M563.15,-1197.75C579.27,-1193.79 595.92,-1187.37 609,-1177 623.96,-1165.15 614.92,-1151.89 629,-1139 630.92,-1137.24 632.97,-1135.59 635.12,-1134.04"/>
<polygon fill="black" stroke="black" points="637.22,-1136.85 643.79,-1128.53 633.47,-1130.94 637.22,-1136.85"/>
</g>
<!-- amplihack&#45;launcher&#45;&gt;amplihack&#45;utils -->
<g id="edge32" class="edge">
<title>amplihack&#45;launcher&#45;&gt;amplihack&#45;utils</title>
<path fill="none" stroke="black" d="M563.18,-1200.32C579.97,-1196.49 596.98,-1189.51 609,-1177 637.99,-1146.83 602.23,-1117.16 629,-1085 631.71,-1081.75 634.88,-1078.88 638.33,-1076.35"/>
<polygon fill="black" stroke="black" points="640.19,-1079.32 646.81,-1071.05 636.48,-1073.38 640.19,-1079.32"/>
</g>
<!-- amplihack&#45;safety -->
<g id="node27" class="node">
<title>amplihack&#45;safety</title>
<path fill="none" stroke="black" d="M544,-650C544,-650 464,-650 464,-650 458,-650 452,-644 452,-638 452,-638 452,-626 452,-626 452,-620 458,-614 464,-614 464,-614 544,-614 544,-614 550,-614 556,-620 556,-626 556,-626 556,-638 556,-638 556,-644 550,-650 544,-650"/>
<text text-anchor="middle" x="504" y="-629.5" font-family="Times,serif" font-size="10.00">amplihack&#45;safety</text>
</g>
<!-- amplihack&#45;blarify -->
<g id="node28" class="node">
<title>amplihack&#45;blarify</title>
<path fill="none" stroke="black" d="M139,-1138C139,-1138 57,-1138 57,-1138 51,-1138 45,-1132 45,-1126 45,-1126 45,-1114 45,-1114 45,-1108 51,-1102 57,-1102 57,-1102 139,-1102 139,-1102 145,-1102 151,-1108 151,-1114 151,-1114 151,-1126 151,-1126 151,-1132 145,-1138 139,-1138"/>
<text text-anchor="middle" x="98" y="-1117.5" font-family="Times,serif" font-size="10.00">amplihack&#45;blarify</text>
</g>
<!-- amplihack&#45;multilspy -->
<g id="node29" class="node">
<title>amplihack&#45;multilspy</title>
<path fill="none" stroke="black" d="M146,-1084C146,-1084 50,-1084 50,-1084 44,-1084 38,-1078 38,-1072 38,-1072 38,-1060 38,-1060 38,-1054 44,-1048 50,-1048 50,-1048 146,-1048 146,-1048 152,-1048 158,-1054 158,-1060 158,-1060 158,-1072 158,-1072 158,-1078 152,-1084 146,-1084"/>
<text text-anchor="middle" x="98" y="-1063.5" font-family="Times,serif" font-size="10.00">amplihack&#45;multilspy</text>
</g>
</g>
</svg>
